 0
SECTION
 2
ENTITIES
  0
LINE
 8
Layer0
10
7639.86834645998
20
-2250.50051227771
30
0.0
11
7657.86834645998
21
-2250.50051227775
31
0.0
  0
LINE
 8
Layer0
10
7657.86834645998
20
-2000.50051227775
30
-1.28237228752728e-027
11
7672.86834645998
21
-2000.50051227776
31
-1.28237228752728e-027
  0
LINE
 8
Layer0
10
7519.86834645998
20
-2250.50051227771
30
0.0
11
7534.86834645998
21
-2250.50051227771
31
0.0
  0
LINE
 8
Layer0
10
7579.86834645998
20
-1997.50051227774
30
0.0
11
7594.86834645998
21
-1997.50051227774
31
0.0
  0
LINE
 8
Layer0
10
7549.86834645998
20
-1997.50051227773
30
0.0
11
7564.86834645998
21
-1997.50051227773
31
0.0
  0
LINE
 8
Layer0
10
7534.86834645998
20
-2000.50051227773
30
0.0
11
7549.86834645998
21
-2000.50051227773
31
0.0
  0
LINE
 8
Layer0
10
7594.86834645997
20
-2000.50051227774
30
0.0
11
7609.86834645998
21
-2000.50051227774
31
0.0
  0
LINE
 8
Layer0
10
7624.86834645998
20
-2000.50051227775
30
0.0
11
7639.86834645998
21
-2000.50051227775
31
0.0
  0
LINE
 8
Layer0
10
7672.86834645998
20
-1997.50051227775
30
-1.28237228752728e-027
11
7690.86834645997
21
-1997.50051227775
31
-1.28237228752728e-027
  0
LINE
 8
Layer0
10
7459.86834645998
20
-2250.50051227771
30
0.0
11
7474.86834645998
21
-2250.50051227771
31
0.0
  0
LINE
 8
Layer0
10
7690.86834645998
20
-2090.50051227777
30
-1.28237228752728e-027
11
7690.86834645998
21
-2105.50051227776
31
-1.28237228752728e-027
  0
LINE
 8
Layer0
10
7489.86834645998
20
-2250.50051227772
30
0.0
11
7504.86834645997
21
-2250.50051227771
31
0.0
  0
LINE
 8
Layer0
10
7549.86834645998
20
-2250.50051227771
30
0.0
11
7564.86834645998
21
-2250.50051227771
31
0.0
  0
LINE
 8
Layer0
10
7579.86834645997
20
-2250.50051227771
30
0.0
11
7594.86834645997
21
-2250.50051227771
31
0.0
  0
LINE
 8
Layer0
10
7687.86834645997
20
-2030.50051227776
30
-1.28237228752728e-027
11
7690.86834645998
21
-2030.50051227777
31
-1.28237228752728e-027
  0
LINE
 8
Layer0
10
7447.86834645998
20
-2030.50051227772
30
0.0
11
7447.86834645998
21
-2015.50051227772
31
0.0
  0
LINE
 8
Layer0
10
7444.86834645998
20
-2015.50051227771
30
0.0
11
7444.86834645997
21
-2000.50051227772
31
0.0
  0
LINE
 8
Layer0
10
7444.86834645997
20
-2165.50051227772
30
0.0
11
7444.86834645997
21
-2150.50051227772
31
0.0
  0
LINE
 8
Layer0
10
7444.86834645998
20
-2253.50051227771
30
0.0
11
7444.86834645997
21
-2240.50051227772
31
0.0
  0
LINE
 8
Layer0
10
7444.86834645998
20
-2075.50051227772
30
0.0
11
7444.86834645998
21
-2060.50051227772
31
0.0
  0
LINE
 8
Layer0
10
7444.86834645998
20
-2045.50051227772
30
0.0
11
7444.86834645998
21
-2030.50051227772
31
0.0
  0
LINE
 8
Layer0
10
7444.86834645998
20
-2105.50051227772
30
0.0
11
7444.86834645998
21
-2090.50051227772
31
0.0
  0
LINE
 8
Layer0
10
7444.86834645997
20
-2195.50051227772
30
0.0
11
7444.86834645997
21
-2180.50051227772
31
0.0
  0
LINE
 8
Layer0
10
7444.86834645997
20
-2225.50051227772
30
0.0
11
7444.86834645997
21
-2210.50051227772
31
0.0
  0
LINE
 8
Layer0
10
7444.86834645997
20
-2135.50051227772
30
0.0
11
7444.86834645997
21
-2120.50051227772
31
0.0
  0
LINE
 8
Layer0
10
7447.86834645997
20
-2120.50051227772
30
0.0
11
7447.86834645998
21
-2105.50051227772
31
0.0
  0
LINE
 8
Layer0
10
7447.86834645998
20
-2195.50051227772
30
0.0
11
7444.86834645997
21
-2195.50051227772
31
0.0
  0
LINE
 8
Layer0
10
7447.86834645997
20
-2180.50051227772
30
0.0
11
7447.86834645997
21
-2165.50051227772
31
0.0
  0
LINE
 8
Layer0
10
7447.86834645998
20
-2240.50051227772
30
0.0
11
7447.86834645997
21
-2225.50051227772
31
0.0
  0
LINE
 8
Layer0
10
7447.86834645997
20
-2210.50051227772
30
0.0
11
7447.86834645998
21
-2195.50051227772
31
0.0
  0
LINE
 8
Layer0
10
7444.86834645997
20
-2240.50051227772
30
0.0
11
7447.86834645998
21
-2240.50051227772
31
0.0
  0
LINE
 8
Layer0
10
7447.86834645997
20
-2225.50051227772
30
0.0
11
7444.86834645997
21
-2225.50051227772
31
0.0
  0
LINE
 8
Layer0
10
7447.86834645997
20
-2165.50051227772
30
0.0
11
7444.86834645997
21
-2165.50051227772
31
0.0
  0
LINE
 8
Layer0
10
7444.86834645997
20
-2180.50051227772
30
0.0
11
7447.86834645997
21
-2180.50051227772
31
0.0
  0
LINE
 8
Layer0
10
7447.86834645997
20
-2210.50051227772
30
0.0
11
7444.86834645997
21
-2210.50051227772
31
0.0
  0
LINE
 8
Layer0
10
7447.86834645998
20
-2045.50051227772
30
0.0
11
7444.86834645998
21
-2045.50051227772
31
0.0
  0
LINE
 8
Layer0
10
7447.86834645997
20
-2135.50051227772
30
0.0
11
7444.86834645997
21
-2135.50051227772
31
0.0
  0
LINE
 8
Layer0
10
7447.86834645997
20
-2150.50051227772
30
0.0
11
7447.86834645997
21
-2135.50051227772
31
0.0
  0
LINE
 8
Layer0
10
7447.86834645998
20
-2090.50051227772
30
0.0
11
7447.86834645998
21
-2075.50051227772
31
0.0
  0
LINE
 8
Layer0
10
7447.86834645998
20
-2060.50051227772
30
0.0
11
7447.86834645998
21
-2045.50051227772
31
0.0
  0
LINE
 8
Layer0
10
7447.86834645997
20
-2120.50051227772
30
0.0
11
7444.86834645997
21
-2120.50051227772
31
0.0
  0
LINE
 8
Layer0
10
7447.86834645998
20
-2105.50051227772
30
0.0
11
7444.86834645998
21
-2105.50051227772
31
0.0
  0
LINE
 8
Layer0
10
7444.86834645998
20
-2090.50051227772
30
0.0
11
7447.86834645998
21
-2090.50051227772
31
0.0
  0
LINE
 8
Layer0
10
7447.86834645998
20
-2075.50051227772
30
0.0
11
7444.86834645998
21
-2075.50051227772
31
0.0
  0
LINE
 8
Layer0
10
7444.86834645997
20
-2150.50051227772
30
0.0
11
7447.86834645997
21
-2150.50051227772
31
0.0
  0
LINE
 8
Layer0
10
7447.86834645998
20
-2015.50051227772
30
0.0
11
7444.86834645998
21
-2015.50051227771
31
0.0
  0
LINE
 8
Layer0
10
7444.86834645998
20
-2030.50051227772
30
0.0
11
7447.86834645998
21
-2030.50051227772
31
0.0
  0
LINE
 8
Layer0
10
7447.86834645998
20
-2060.50051227772
30
0.0
11
7444.86834645998
21
-2060.50051227772
31
0.0
  0
LINE
 8
Layer0
10
7672.86834645998
20
-2250.50051227771
30
-1.28237228752728e-027
11
7690.86834645997
21
-2250.50051227775
31
-1.28237228752728e-027
  0
LINE
 8
Layer0
10
7564.86834645998
20
-2000.50051227773
30
0.0
11
7564.86834645998
21
-1997.50051227773
31
0.0
  0
LINE
 8
Layer0
10
7579.86834645998
20
-2000.50051227774
30
0.0
11
7579.86834645998
21
-1997.50051227774
31
0.0
  0
LINE
 8
Layer0
10
7624.86834645998
20
-2000.50051227775
30
0.0
11
7624.86834645998
21
-1997.50051227775
31
0.0
  0
LINE
 8
Layer0
10
7474.86834645998
20
-2000.50051227772
30
0.0
11
7489.86834645998
21
-2000.50051227772
31
0.0
  0
LINE
 8
Layer0
10
7459.86834645998
20
-2000.50051227772
30
0.0
11
7459.86834645998
21
-1997.50051227772
31
0.0
  0
LINE
 8
Layer0
10
7519.86834645998
20
-2000.50051227772
30
0.0
11
7519.86834645998
21
-1997.50051227772
31
0.0
  0
LINE
 8
Layer0
10
7504.86834645998
20
-1997.50051227772
30
0.0
11
7504.86834645998
21
-2000.50051227772
31
0.0
  0
LINE
 8
Layer0
10
7474.86834645998
20
-2000.50051227772
30
0.0
11
7474.86834645998
21
-1997.50051227772
31
0.0
  0
LINE
 8
Layer0
10
7639.86834645998
20
-2000.50051227775
30
0.0
11
7639.86834645998
21
-1997.50051227775
31
0.0
  0
LINE
 8
Layer0
10
7639.86834645998
20
-1997.50051227775
30
0.0
11
7657.86834645998
21
-1997.50051227775
31
0.0
  0
LINE
 8
Layer0
10
7549.86834645998
20
-2000.50051227773
30
0.0
11
7549.86834645998
21
-1997.50051227773
31
0.0
  0
LINE
 8
Layer0
10
7519.86834645998
20
-1997.50051227772
30
0.0
11
7534.86834645998
21
-1997.50051227773
31
0.0
  0
LINE
 8
Layer0
10
7690.86834645998
20
-2150.50051227777
30
-1.28237228752728e-027
11
7690.86834645998
21
-2165.50051227777
31
-1.28237228752728e-027
  0
LINE
 8
Layer0
10
7549.86834645998
20
-2253.50051227772
30
0.0
11
7549.86834645998
21
-2250.50051227771
31
0.0
  0
LINE
 8
Layer0
10
7579.86834645998
20
-2253.50051227771
30
0.0
11
7579.86834645997
21
-2250.50051227771
31
0.0
  0
LINE
 8
Layer0
10
7489.86834645997
20
-2253.50051227772
30
0.0
11
7489.86834645998
21
-2250.50051227772
31
0.0
  0
LINE
 8
Layer0
10
7504.86834645997
20
-2250.50051227771
30
0.0
11
7504.86834645998
21
-2253.50051227771
31
0.0
  0
LINE
 8
Layer0
10
7489.86834645997
20
-1997.50051227772
30
0.0
11
7504.86834645998
21
-1997.50051227772
31
0.0
  0
LINE
 8
Layer0
10
7609.86834645998
20
-1997.50051227774
30
0.0
11
7624.86834645998
21
-1997.50051227775
31
0.0
  0
LINE
 8
Layer0
10
7459.86834645998
20
-1997.50051227772
30
0.0
11
7474.86834645998
21
-1997.50051227772
31
0.0
  0
LINE
 8
Layer0
10
7594.86834645998
20
-1997.50051227774
30
0.0
11
7594.86834645997
21
-2000.50051227774
31
0.0
  0
LINE
 8
Layer0
10
7609.86834645998
20
-2000.50051227774
30
0.0
11
7609.86834645998
21
-1997.50051227774
31
0.0
  0
LINE
 8
Layer0
10
7534.86834645998
20
-1997.50051227773
30
0.0
11
7534.86834645998
21
-2000.50051227773
31
0.0
  0
LINE
 8
Layer0
10
7609.86834645998
20
-2250.50051227771
30
0.0
11
7624.86834645998
21
-2250.50051227771
31
0.0
  0
LINE
 8
Layer0
10
7672.86834645997
20
-2253.50051227771
30
-1.28237228752728e-027
11
7672.86834645998
21
-2250.50051227771
31
-1.28237228752728e-027
  0
LINE
 8
Layer0
10
7672.86834645998
20
-2000.50051227776
30
-1.28237228752728e-027
11
7672.86834645998
21
-1997.50051227775
31
-1.28237228752728e-027
  0
LINE
 8
Layer0
10
7687.86834645997
20
-2180.50051227777
30
-1.28237228752728e-027
11
7687.86834645997
21
-2165.50051227777
31
-1.28237228752728e-027
  0
LINE
 8
Layer0
10
7687.86834645998
20
-2120.50051227777
30
-1.28237228752728e-027
11
7687.86834645998
21
-2105.50051227777
31
-1.28237228752728e-027
  0
LINE
 8
Layer0
10
7444.86834645998
20
-2253.50051227771
30
0.0
11
7459.86834645998
21
-2253.50051227771
31
0.0
  0
LINE
 8
Layer0
10
7624.86834645997
20
-2253.50051227771
30
0.0
11
7639.86834645998
21
-2253.50051227771
31
0.0
  0
LINE
 8
Layer0
10
7504.86834645998
20
-2253.50051227771
30
0.0
11
7519.86834645997
21
-2253.50051227771
31
0.0
  0
LINE
 8
Layer0
10
7534.86834645998
20
-2253.50051227771
30
0.0
11
7549.86834645998
21
-2253.50051227772
31
0.0
  0
LINE
 8
Layer0
10
7564.86834645998
20
-2250.50051227771
30
0.0
11
7564.86834645997
21
-2253.50051227772
31
0.0
  0
LINE
 8
Layer0
10
7474.86834645997
20
-2253.50051227772
30
0.0
11
7489.86834645997
21
-2253.50051227772
31
0.0
  0
LINE
 8
Layer0
10
7564.86834645997
20
-2253.50051227772
30
0.0
11
7579.86834645998
21
-2253.50051227771
31
0.0
  0
LINE
 8
Layer0
10
7594.86834645998
20
-2253.50051227771
30
0.0
11
7609.86834645997
21
-2253.50051227771
31
0.0
  0
LINE
 8
Layer0
10
7534.86834645998
20
-2253.50051227771
30
0.0
11
7534.86834645998
21
-2250.50051227771
31
0.0
  0
LINE
 8
Layer0
10
7639.86834645998
20
-2253.50051227771
30
0.0
11
7639.86834645998
21
-2250.50051227771
31
0.0
  0
LINE
 8
Layer0
10
7624.86834645998
20
-2250.50051227771
30
0.0
11
7624.86834645997
21
-2253.50051227771
31
0.0
  0
LINE
 8
Layer0
10
7594.86834645998
20
-2253.50051227771
30
0.0
11
7594.86834645997
21
-2250.50051227771
31
0.0
  0
LINE
 8
Layer0
10
7609.86834645997
20
-2253.50051227771
30
0.0
11
7609.86834645998
21
-2250.50051227771
31
0.0
  0
LINE
 8
Layer0
10
7459.86834645998
20
-2253.50051227771
30
0.0
11
7459.86834645998
21
-2250.50051227771
31
0.0
  0
LINE
 8
Layer0
10
7474.86834645997
20
-2253.50051227772
30
0.0
11
7474.86834645998
21
-2250.50051227771
31
0.0
  0
LINE
 8
Layer0
10
7519.86834645997
20
-2253.50051227771
30
0.0
11
7519.86834645998
21
-2250.50051227771
31
0.0
  0
LINE
 8
Layer0
10
7690.86834645997
20
-2060.50051227777
30
-1.28237228752728e-027
11
7690.86834645998
21
-2075.50051227777
31
-1.28237228752728e-027
  0
LINE
 8
Layer0
10
7690.86834645998
20
-2030.50051227777
30
-1.28237228752728e-027
11
7690.86834645997
21
-2045.50051227777
31
-1.28237228752728e-027
  0
LINE
 8
Layer0
10
7564.86834645998
20
-2000.50051227773
30
0.0
11
7579.86834645998
21
-2000.50051227774
31
0.0
  0
LINE
 8
Layer0
10
7489.86834645998
20
-2000.50051227772
30
0.0
11
7489.86834645997
21
-1997.50051227772
31
0.0
  0
LINE
 8
Layer0
10
7504.86834645998
20
-2000.50051227772
30
0.0
11
7519.86834645998
21
-2000.50051227772
31
0.0
  0
LINE
 8
Layer0
10
7444.86834645997
20
-2000.50051227772
30
0.0
11
7459.86834645998
21
-2000.50051227772
31
0.0
  0
LINE
 8
Layer0
10
7690.86834645998
20
-2240.50051227777
30
-1.28237228752728e-027
11
7690.86834645997
21
-2250.50051227775
31
-1.28237228752728e-027
  0
LINE
 8
Layer0
10
7657.86834645998
20
-2000.50051227775
30
-1.28237228752728e-027
11
7657.86834645998
21
-1997.50051227775
31
0.0
  0
LINE
 8
Layer0
10
7687.86834645997
20
-2210.50051227776
30
-1.28237228752728e-027
11
7687.86834645997
21
-2195.50051227777
31
-1.28237228752728e-027
  0
LINE
 8
Layer0
10
7687.86834645998
20
-2150.50051227776
30
-1.28237228752728e-027
11
7687.86834645998
21
-2135.50051227777
31
-1.28237228752728e-027
  0
LINE
 8
Layer0
10
7687.86834645997
20
-2180.50051227777
30
-1.28237228752728e-027
11
7690.86834645998
21
-2180.50051227777
31
-1.28237228752728e-027
  0
LINE
 8
Layer0
10
7687.86834645998
20
-2090.50051227777
30
-1.28237228752728e-027
11
7690.86834645998
21
-2090.50051227777
31
-1.28237228752728e-027
  0
LINE
 8
Layer0
10
7690.86834645997
20
-2015.50051227777
30
-1.28237228752728e-027
11
7687.86834645997
21
-2015.50051227776
31
-1.28237228752728e-027
  0
LINE
 8
Layer0
10
7687.86834645998
20
-2045.50051227777
30
-1.28237228752728e-027
11
7690.86834645997
21
-2045.50051227777
31
-1.28237228752728e-027
  0
LINE
 8
Layer0
10
7690.86834645997
20
-2120.50051227777
30
-1.28237228752728e-027
11
7690.86834645998
21
-2135.50051227777
31
-1.28237228752728e-027
  0
LINE
 8
Layer0
10
7687.86834645998
20
-2135.50051227777
30
-1.28237228752728e-027
11
7690.86834645998
21
-2135.50051227777
31
-1.28237228752728e-027
  0
LINE
 8
Layer0
10
7687.86834645998
20
-2150.50051227776
30
-1.28237228752728e-027
11
7690.86834645998
21
-2150.50051227777
31
-1.28237228752728e-027
  0
LINE
 8
Layer0
10
7690.86834645997
20
-1997.50051227775
30
-1.28237228752728e-027
11
7690.86834645997
21
-2015.50051227777
31
-1.28237228752728e-027
  0
LINE
 8
Layer0
10
7657.86834645998
20
-2250.50051227775
30
0.0
11
7657.86834645997
21
-2253.50051227771
31
-1.28237228752728e-027
  0
LINE
 8
Layer0
10
7690.86834645998
20
-2210.50051227777
30
-1.28237228752728e-027
11
7690.86834645998
21
-2225.50051227776
31
-1.28237228752728e-027
  0
LINE
 8
Layer0
10
7687.86834645997
20
-2060.50051227776
30
-1.28237228752728e-027
11
7690.86834645997
21
-2060.50051227777
31
-1.28237228752728e-027
  0
LINE
 8
Layer0
10
7690.86834645998
20
-2180.50051227777
30
-1.28237228752728e-027
11
7690.86834645997
21
-2195.50051227777
31
-1.28237228752728e-027
  0
LINE
 8
Layer0
10
7657.86834645997
20
-2253.50051227771
30
-1.28237228752728e-027
11
7672.86834645997
21
-2253.50051227771
31
-1.28237228752728e-027
  0
LINE
 8
Layer0
10
7687.86834645998
20
-2240.50051227777
30
-1.28237228752728e-027
11
7687.86834645997
21
-2225.50051227777
31
-1.28237228752728e-027
  0
LINE
 8
Layer0
10
7687.86834645997
20
-2210.50051227776
30
-1.28237228752728e-027
11
7690.86834645998
21
-2210.50051227777
31
-1.28237228752728e-027
  0
LINE
 8
Layer0
10
7687.86834645998
20
-2120.50051227777
30
-1.28237228752728e-027
11
7690.86834645997
21
-2120.50051227777
31
-1.28237228752728e-027
  0
LINE
 8
Layer0
10
7690.86834645998
20
-2225.50051227776
30
-1.28237228752728e-027
11
7687.86834645997
21
-2225.50051227777
31
-1.28237228752728e-027
  0
LINE
 8
Layer0
10
7687.86834645997
20
-2195.50051227777
30
-1.28237228752728e-027
11
7690.86834645997
21
-2195.50051227777
31
-1.28237228752728e-027
  0
LINE
 8
Layer0
10
7690.86834645998
20
-2165.50051227777
30
-1.28237228752728e-027
11
7687.86834645997
21
-2165.50051227777
31
-1.28237228752728e-027
  0
LINE
 8
Layer0
10
7690.86834645998
20
-2105.50051227776
30
-1.28237228752728e-027
11
7687.86834645998
21
-2105.50051227777
31
-1.28237228752728e-027
  0
LINE
 8
Layer0
10
7690.86834645998
20
-2075.50051227777
30
-1.28237228752728e-027
11
7687.86834645998
21
-2075.50051227777
31
-1.28237228752728e-027
  0
LINE
 8
Layer0
10
7687.86834645997
20
-2060.50051227776
30
-1.28237228752728e-027
11
7687.86834645998
21
-2045.50051227777
31
-1.28237228752728e-027
  0
LINE
 8
Layer0
10
7687.86834645997
20
-2030.50051227776
30
-1.28237228752728e-027
11
7687.86834645997
21
-2015.50051227776
31
-1.28237228752728e-027
  0
LINE
 8
Layer0
10
7687.86834645998
20
-2090.50051227777
30
-1.28237228752728e-027
11
7687.86834645998
21
-2075.50051227777
31
-1.28237228752728e-027
  0
LINE
 8
Layer0
10
7687.86834645998
20
-2240.50051227777
30
-1.28237228752728e-027
11
7690.86834645998
21
-2240.50051227777
31
-1.28237228752728e-027
 0
ENDSEC
 0
EOF
