 0
SECTION
 2
ENTITIES
  0
LINE
 8
Layer0
10
7355.29138650594
20
-2357.92485325755
30
0.0
11
7354.26916129461
21
-2350.16028190447
31
0.0
  0
LINE
 8
Layer0
10
7295.29138650594
20
-2357.92485325755
30
0.0
11
7296.31361171727
21
-2365.68942461062
31
0.0
  0
LINE
 8
Layer0
10
7273.29138650598
20
-2509.92485325755
30
0.0
11
7288.29138650598
21
-2509.92485325756
31
0.0
  0
LINE
 8
Layer0
10
7418.29138650597
20
-2449.92485325756
30
0.0
11
7415.29138650597
21
-2449.92485325756
31
0.0
  0
LINE
 8
Layer0
10
7415.29138650597
20
-2419.92485325756
30
0.0
11
7418.29138650596
21
-2419.92485325755
31
0.0
  0
LINE
 8
Layer0
10
7415.29138650597
20
-2434.92485325756
30
0.0
11
7418.29138650596
21
-2434.92485325756
31
0.0
  0
LINE
 8
Layer0
10
7415.29138650594
20
-2284.92485325756
30
0.0
11
7418.29138650594
21
-2284.92485325756
31
0.0
  0
LINE
 8
Layer0
10
7415.29138650594
20
-2299.92485325756
30
0.0
11
7418.29138650595
21
-2299.92485325756
31
0.0
  0
LINE
 8
Layer0
10
7415.29138650595
20
-2344.92485325756
30
0.0
11
7418.29138650595
21
-2344.92485325756
31
0.0
  0
LINE
 8
Layer0
10
7418.29138650597
20
-2464.92485325756
30
0.0
11
7418.29138650597
21
-2479.92485325756
31
0.0
  0
LINE
 8
Layer0
10
7418.29138650595
20
-2344.92485325756
30
0.0
11
7418.29138650596
21
-2359.92485325756
31
0.0
  0
LINE
 8
Layer0
10
7418.29138650594
20
-2284.92485325756
30
0.0
11
7418.29138650595
21
-2299.92485325756
31
0.0
  0
LINE
 8
Layer0
10
7418.29138650595
20
-2314.92485325756
30
0.0
11
7418.29138650595
21
-2329.92485325755
31
0.0
  0
LINE
 8
Layer0
10
7418.29138650596
20
-2374.92485325756
30
0.0
11
7418.29138650596
21
-2389.92485325756
31
0.0
  0
LINE
 8
Layer0
10
7418.29138650596
20
-2404.92485325755
30
0.0
11
7418.29138650596
21
-2419.92485325755
31
0.0
  0
LINE
 8
Layer0
10
7418.29138650596
20
-2389.92485325756
30
0.0
11
7415.29138650596
21
-2389.92485325755
31
0.0
  0
LINE
 8
Layer0
10
7415.29138650596
20
-2374.92485325756
30
0.0
11
7418.29138650596
21
-2374.92485325756
31
0.0
  0
LINE
 8
Layer0
10
7415.29138650597
20
-2404.92485325756
30
0.0
11
7418.29138650596
21
-2404.92485325755
31
0.0
  0
LINE
 8
Layer0
10
7415.29138650595
20
-2314.92485325756
30
0.0
11
7418.29138650595
21
-2314.92485325756
31
0.0
  0
LINE
 8
Layer0
10
7418.29138650595
20
-2329.92485325755
30
0.0
11
7415.29138650595
21
-2329.92485325756
31
0.0
  0
LINE
 8
Layer0
10
7418.29138650596
20
-2434.92485325756
30
0.0
11
7418.29138650597
21
-2449.92485325756
31
0.0
  0
LINE
 8
Layer0
10
7415.29138650594
20
-2269.92485325756
30
0.0
11
7415.29138650594
21
-2284.92485325756
31
0.0
  0
LINE
 8
Layer0
10
7415.29138650597
20
-2449.92485325756
30
0.0
11
7415.29138650598
21
-2464.92485325756
31
0.0
  0
LINE
 8
Layer0
10
7415.29138650595
20
-2329.92485325756
30
0.0
11
7415.29138650595
21
-2344.92485325756
31
0.0
  0
LINE
 8
Layer0
10
7415.29138650596
20
-2359.92485325756
30
0.0
11
7415.29138650596
21
-2374.92485325756
31
0.0
  0
LINE
 8
Layer0
10
7415.29138650594
20
-2299.92485325756
30
0.0
11
7415.29138650595
21
-2314.92485325756
31
0.0
  0
LINE
 8
Layer0
10
7415.29138650596
20
-2389.92485325755
30
0.0
11
7415.29138650597
21
-2404.92485325756
31
0.0
  0
LINE
 8
Layer0
10
7415.29138650597
20
-2419.92485325756
30
0.0
11
7415.29138650597
21
-2434.92485325756
31
0.0
  0
LINE
 8
Layer0
10
7415.29138650596
20
-2359.92485325756
30
0.0
11
7418.29138650596
21
-2359.92485325756
31
0.0
  0
LINE
 8
Layer0
10
7415.29138650598
20
-2464.92485325756
30
0.0
11
7418.29138650597
21
-2464.92485325756
31
0.0
  0
LINE
 8
Layer0
10
7418.29138650598
20
-2512.92485325756
30
0.0
11
7408.29138650598
21
-2512.92485325755
31
0.0
  0
LINE
 8
Layer0
10
7346.50458994154
20
-2379.13805669314
30
0.0
11
7351.27214861947
21
-2372.92485325755
31
0.0
  0
LINE
 8
Layer0
10
7317.52681515286
20
-2386.90262804622
30
0.0
11
7325.29138650594
21
-2387.92485325755
31
0.0
  0
LINE
 8
Layer0
10
7285.29138650594
20
-2272.92485325755
30
0.0
11
7285.29138650594
21
-2269.92485325755
31
0.0
  0
LINE
 8
Layer0
10
7225.29138650594
20
-2272.92485325755
30
0.0
11
7225.29138650594
21
-2269.92485325755
31
0.0
  0
LINE
 8
Layer0
10
7240.29138650594
20
-2269.92485325755
30
0.0
11
7240.29138650594
21
-2272.92485325755
31
0.0
  0
LINE
 8
Layer0
10
7405.29138650594
20
-2272.92485325755
30
0.0
11
7405.29138650595
21
-2269.92485325755
31
0.0
  0
LINE
 8
Layer0
10
7165.29138650596
20
-2464.92485325756
30
0.0
11
7165.29138650595
21
-2449.92485325756
31
0.0
  0
LINE
 8
Layer0
10
7162.29138650595
20
-2434.92485325756
30
0.0
11
7162.29138650595
21
-2449.92485325755
31
0.0
  0
LINE
 8
Layer0
10
7165.29138650594
20
-2284.92485325755
30
0.0
11
7165.29138650594
21
-2269.92485325756
31
0.0
  0
LINE
 8
Layer0
10
7165.29138650594
20
-2314.92485325755
30
0.0
11
7165.29138650594
21
-2299.92485325755
31
0.0
  0
LINE
 8
Layer0
10
7165.29138650595
20
-2389.92485325755
30
0.0
11
7162.29138650595
21
-2389.92485325755
31
0.0
  0
LINE
 8
Layer0
10
7165.29138650595
20
-2449.92485325756
30
0.0
11
7162.29138650595
21
-2449.92485325755
31
0.0
  0
LINE
 8
Layer0
10
7162.29138650595
20
-2434.92485325756
30
0.0
11
7165.29138650595
21
-2434.92485325755
31
0.0
  0
LINE
 8
Layer0
10
7162.29138650595
20
-2374.92485325755
30
0.0
11
7162.29138650595
21
-2389.92485325755
31
0.0
  0
LINE
 8
Layer0
10
7162.29138650594
20
-2314.92485325755
30
0.0
11
7162.29138650594
21
-2329.92485325755
31
0.0
  0
LINE
 8
Layer0
10
7162.29138650595
20
-2344.92485325756
30
0.0
11
7162.29138650595
21
-2359.92485325756
31
0.0
  0
LINE
 8
Layer0
10
7162.29138650596
20
-2464.92485325755
30
0.0
11
7162.29138650596
21
-2479.92485325755
31
0.0
  0
LINE
 8
Layer0
10
7165.29138650595
20
-2434.92485325755
30
0.0
11
7165.29138650595
21
-2419.92485325756
31
0.0
  0
LINE
 8
Layer0
10
7165.29138650595
20
-2404.92485325755
30
0.0
11
7165.29138650595
21
-2389.92485325755
31
0.0
  0
LINE
 8
Layer0
10
7165.29138650595
20
-2374.92485325756
30
0.0
11
7165.29138650594
21
-2359.92485325755
31
0.0
  0
LINE
 8
Layer0
10
7165.29138650595
20
-2344.92485325755
30
0.0
11
7165.29138650595
21
-2329.92485325755
31
0.0
  0
LINE
 8
Layer0
10
7165.29138650595
20
-2404.92485325755
30
0.0
11
7162.29138650595
21
-2404.92485325755
31
0.0
  0
LINE
 8
Layer0
10
7165.29138650594
20
-2359.92485325755
30
0.0
11
7162.29138650595
21
-2359.92485325756
31
0.0
  0
LINE
 8
Layer0
10
7165.29138650594
20
-2284.92485325755
30
0.0
11
7162.29138650593
21
-2284.92485325755
31
0.0
  0
LINE
 8
Layer0
10
7165.29138650594
20
-2299.92485325755
30
0.0
11
7162.29138650594
21
-2299.92485325755
31
0.0
  0
LINE
 8
Layer0
10
7162.29138650594
20
-2314.92485325755
30
0.0
11
7165.29138650594
21
-2314.92485325755
31
0.0
  0
LINE
 8
Layer0
10
7165.29138650595
20
-2344.92485325755
30
0.0
11
7162.29138650595
21
-2344.92485325756
31
0.0
  0
LINE
 8
Layer0
10
7165.29138650595
20
-2329.92485325755
30
0.0
11
7162.29138650594
21
-2329.92485325755
31
0.0
  0
LINE
 8
Layer0
10
7165.29138650596
20
-2464.92485325756
30
0.0
11
7162.29138650596
21
-2464.92485325755
31
0.0
  0
LINE
 8
Layer0
10
7165.29138650595
20
-2419.92485325756
30
0.0
11
7162.29138650595
21
-2419.92485325755
31
0.0
  0
LINE
 8
Layer0
10
7162.29138650593
20
-2284.92485325755
30
0.0
11
7162.29138650594
21
-2299.92485325755
31
0.0
  0
LINE
 8
Layer0
10
7162.29138650595
20
-2374.92485325755
30
0.0
11
7165.29138650595
21
-2374.92485325756
31
0.0
  0
LINE
 8
Layer0
10
7162.29138650595
20
-2404.92485325755
30
0.0
11
7162.29138650595
21
-2419.92485325755
31
0.0
  0
LINE
 8
Layer0
10
7345.29138650594
20
-2272.92485325755
30
0.0
11
7330.29138650594
21
-2272.92485325755
31
0.0
  0
LINE
 8
Layer0
10
7299.31062439241
20
-2372.92485325755
30
0.0
11
7304.07818307034
21
-2379.13805669314
31
0.0
  0
LINE
 8
Layer0
10
7333.05595785901
20
-2386.90262804622
30
0.0
11
7340.29138650594
21
-2383.90561537108
31
0.0
  0
LINE
 8
Layer0
10
7418.29138650597
20
-2479.92485325756
30
0.0
11
7415.29138650598
21
-2479.92485325756
31
0.0
  0
LINE
 8
Layer0
10
7165.29138650594
20
-2269.92485325756
30
0.0
11
7180.29138650594
21
-2269.92485325755
31
0.0
  0
LINE
 8
Layer0
10
7405.29138650595
20
-2269.92485325755
30
0.0
11
7415.29138650594
21
-2269.92485325756
31
0.0
  0
LINE
 8
Layer0
10
7285.29138650594
20
-2269.92485325755
30
0.0
11
7300.29138650594
21
-2269.92485325755
31
0.0
  0
LINE
 8
Layer0
10
7195.29138650594
20
-2269.92485325755
30
0.0
11
7210.29138650595
21
-2269.92485325755
31
0.0
  0
LINE
 8
Layer0
10
7225.29138650594
20
-2269.92485325755
30
0.0
11
7240.29138650594
21
-2269.92485325755
31
0.0
  0
LINE
 8
Layer0
10
7315.29138650593
20
-2269.92485325755
30
0.0
11
7330.29138650594
21
-2269.92485325755
31
0.0
  0
LINE
 8
Layer0
10
7375.29138650594
20
-2269.92485325755
30
0.0
11
7390.29138650594
21
-2269.92485325755
31
0.0
  0
LINE
 8
Layer0
10
7240.29138650594
20
-2272.92485325755
30
0.0
11
7255.29138650594
21
-2272.92485325755
31
0.0
  0
LINE
 8
Layer0
10
7270.29138650594
20
-2272.92485325755
30
0.0
11
7285.29138650594
21
-2272.92485325755
31
0.0
  0
LINE
 8
Layer0
10
7300.29138650594
20
-2269.92485325755
30
0.0
11
7300.29138650593
21
-2272.92485325755
31
0.0
  0
LINE
 8
Layer0
10
7210.29138650594
20
-2272.92485325756
30
0.0
11
7225.29138650594
21
-2272.92485325755
31
0.0
  0
LINE
 8
Layer0
10
7180.29138650594
20
-2272.92485325755
30
0.0
11
7195.29138650594
21
-2272.92485325755
31
0.0
  0
LINE
 8
Layer0
10
7300.29138650593
20
-2272.92485325755
30
0.0
11
7315.29138650594
21
-2272.92485325755
31
0.0
  0
LINE
 8
Layer0
10
7180.29138650594
20
-2269.92485325755
30
0.0
11
7180.29138650594
21
-2272.92485325755
31
0.0
  0
LINE
 8
Layer0
10
7270.29138650594
20
-2272.92485325755
30
0.0
11
7270.29138650594
21
-2269.92485325755
31
0.0
  0
LINE
 8
Layer0
10
7315.29138650594
20
-2272.92485325755
30
0.0
11
7315.29138650593
21
-2269.92485325755
31
0.0
  0
LINE
 8
Layer0
10
7390.29138650594
20
-2272.92485325755
30
0.0
11
7390.29138650594
21
-2269.92485325755
31
0.0
  0
LINE
 8
Layer0
10
7375.29138650594
20
-2272.92485325755
30
0.0
11
7375.29138650594
21
-2269.92485325755
31
0.0
  0
LINE
 8
Layer0
10
7360.29138650594
20
-2269.92485325755
30
0.0
11
7360.29138650594
21
-2272.92485325755
31
0.0
  0
LINE
 8
Layer0
10
7330.29138650594
20
-2272.92485325755
30
0.0
11
7330.29138650594
21
-2269.92485325755
31
0.0
  0
LINE
 8
Layer0
10
7345.29138650594
20
-2272.92485325755
30
0.0
11
7345.29138650594
21
-2269.92485325755
31
0.0
  0
LINE
 8
Layer0
10
7195.29138650594
20
-2272.92485325755
30
0.0
11
7195.29138650594
21
-2269.92485325755
31
0.0
  0
LINE
 8
Layer0
10
7210.29138650594
20
-2272.92485325756
30
0.0
11
7210.29138650595
21
-2269.92485325755
31
0.0
  0
LINE
 8
Layer0
10
7255.29138650594
20
-2272.92485325755
30
0.0
11
7255.29138650594
21
-2269.92485325755
31
0.0
  0
LINE
 8
Layer0
10
7345.29138650594
20
-2269.92485325755
30
0.0
11
7360.29138650594
21
-2269.92485325755
31
0.0
  0
LINE
 8
Layer0
10
7255.29138650594
20
-2269.92485325755
30
0.0
11
7270.29138650594
21
-2269.92485325755
31
0.0
  0
LINE
 8
Layer0
10
7351.27214861947
20
-2342.92485325755
30
0.0
11
7346.50458994154
21
-2336.71164982195
31
0.0
  0
LINE
 8
Layer0
10
7304.07818307034
20
-2379.13805669314
30
0.0
11
7310.29138650594
21
-2383.90561537108
31
0.0
  0
LINE
 8
Layer0
10
7165.29138650597
20
-2494.92485325756
30
0.0
11
7162.29138650596
21
-2494.92485325755
31
0.0
  0
LINE
 8
Layer0
10
7162.29138650596
20
-2494.92485325755
30
0.0
11
7162.29138650596
21
-2512.92485325756
31
0.0
  0
LINE
 8
Layer0
10
7299.31062439241
20
-2342.92485325755
30
0.0
11
7296.31361171727
21
-2350.16028190447
31
0.0
  0
LINE
 8
Layer0
10
7296.31361171727
20
-2350.16028190447
30
0.0
11
7295.29138650594
21
-2357.92485325755
31
0.0
  0
LINE
 8
Layer0
10
7325.29138650594
20
-2327.92485325755
30
0.0
11
7317.52681515286
21
-2328.94707846888
31
0.0
  0
LINE
 8
Layer0
10
7340.29138650594
20
-2331.94409114402
30
0.0
11
7333.05595785901
21
-2328.94707846888
31
0.0
  0
LINE
 8
Layer0
10
7333.05595785901
20
-2328.94707846888
30
0.0
11
7325.29138650594
21
-2327.92485325755
31
0.0
  0
LINE
 8
Layer0
10
7317.52681515286
20
-2328.94707846888
30
0.0
11
7310.29138650594
21
-2331.94409114402
31
0.0
  0
LINE
 8
Layer0
10
7304.07818307034
20
-2336.71164982195
30
0.0
11
7299.31062439241
21
-2342.92485325755
31
0.0
  0
LINE
 8
Layer0
10
7351.27214861947
20
-2372.92485325755
30
0.0
11
7354.26916129461
21
-2365.68942461062
31
0.0
  0
LINE
 8
Layer0
10
7165.29138650596
20
-2479.92485325756
30
0.0
11
7162.29138650596
21
-2479.92485325755
31
0.0
  0
LINE
 8
Layer0
10
7228.29138650598
20
-2512.92485325756
30
0.0
11
7228.29138650598
21
-2509.92485325756
31
0.0
  0
LINE
 8
Layer0
10
7243.29138650598
20
-2509.92485325756
30
0.0
11
7243.29138650598
21
-2512.92485325756
31
0.0
  0
LINE
 8
Layer0
10
7408.29138650598
20
-2512.92485325755
30
0.0
11
7408.29138650599
21
-2509.92485325755
31
0.0
  0
LINE
 8
Layer0
10
7405.29138650594
20
-2272.92485325755
30
0.0
11
7390.29138650594
21
-2272.92485325755
31
0.0
  0
LINE
 8
Layer0
10
7296.31361171727
20
-2365.68942461062
30
0.0
11
7299.31062439241
21
-2372.92485325755
31
0.0
  0
LINE
 8
Layer0
10
7354.26916129461
20
-2365.68942461062
30
0.0
11
7355.29138650594
21
-2357.92485325755
31
0.0
  0
LINE
 8
Layer0
10
7348.29138650598
20
-2512.92485325755
30
0.0
11
7348.29138650599
21
-2509.92485325755
31
0.0
  0
LINE
 8
Layer0
10
7198.29138650598
20
-2512.92485325756
30
0.0
11
7198.29138650598
21
-2509.92485325756
31
0.0
  0
LINE
 8
Layer0
10
7273.29138650598
20
-2512.92485325755
30
0.0
11
7273.29138650598
21
-2509.92485325755
31
0.0
  0
LINE
 8
Layer0
10
7378.29138650598
20
-2512.92485325755
30
0.0
11
7378.29138650599
21
-2509.92485325755
31
0.0
  0
LINE
 8
Layer0
10
7213.29138650598
20
-2512.92485325756
30
0.0
11
7213.29138650599
21
-2509.92485325756
31
0.0
  0
LINE
 8
Layer0
10
7258.29138650598
20
-2512.92485325756
30
0.0
11
7258.29138650598
21
-2509.92485325756
31
0.0
  0
LINE
 8
Layer0
10
7303.29138650598
20
-2509.92485325755
30
0.0
11
7303.29138650597
21
-2512.92485325756
31
0.0
  0
LINE
 8
Layer0
10
7183.29138650598
20
-2509.92485325756
30
0.0
11
7183.29138650598
21
-2512.92485325756
31
0.0
  0
LINE
 8
Layer0
10
7363.29138650598
20
-2509.92485325755
30
0.0
11
7363.29138650598
21
-2512.92485325755
31
0.0
  0
LINE
 8
Layer0
10
7333.29138650599
20
-2512.92485325755
30
0.0
11
7333.29138650598
21
-2509.92485325755
31
0.0
  0
LINE
 8
Layer0
10
7393.29138650599
20
-2512.92485325755
30
0.0
11
7393.29138650598
21
-2509.92485325755
31
0.0
  0
LINE
 8
Layer0
10
7378.29138650598
20
-2512.92485325755
30
0.0
11
7393.29138650599
21
-2512.92485325755
31
0.0
  0
LINE
 8
Layer0
10
7288.29138650598
20
-2512.92485325756
30
0.0
11
7288.29138650598
21
-2509.92485325756
31
0.0
  0
LINE
 8
Layer0
10
7318.29138650598
20
-2512.92485325755
30
0.0
11
7318.29138650598
21
-2509.92485325756
31
0.0
  0
LINE
 8
Layer0
10
7243.29138650598
20
-2509.92485325756
30
0.0
11
7258.29138650598
21
-2509.92485325756
31
0.0
  0
LINE
 8
Layer0
10
7183.29138650598
20
-2509.92485325756
30
0.0
11
7198.29138650598
21
-2509.92485325756
31
0.0
  0
LINE
 8
Layer0
10
7393.29138650598
20
-2509.92485325755
30
0.0
11
7408.29138650599
21
-2509.92485325755
31
0.0
  0
LINE
 8
Layer0
10
7303.29138650598
20
-2509.92485325755
30
0.0
11
7318.29138650598
21
-2509.92485325756
31
0.0
  0
LINE
 8
Layer0
10
7228.29138650598
20
-2512.92485325756
30
0.0
11
7243.29138650598
21
-2512.92485325756
31
0.0
  0
LINE
 8
Layer0
10
7348.29138650598
20
-2512.92485325755
30
0.0
11
7363.29138650598
21
-2512.92485325755
31
0.0
  0
LINE
 8
Layer0
10
7333.29138650598
20
-2509.92485325755
30
0.0
11
7348.29138650599
21
-2509.92485325755
31
0.0
  0
LINE
 8
Layer0
10
7213.29138650599
20
-2509.92485325756
30
0.0
11
7228.29138650598
21
-2509.92485325756
31
0.0
  0
LINE
 8
Layer0
10
7418.29138650598
20
-2509.92485325756
30
0.0
11
7418.29138650598
21
-2512.92485325756
31
0.0
  0
LINE
 8
Layer0
10
7258.29138650598
20
-2512.92485325756
30
0.0
11
7273.29138650598
21
-2512.92485325755
31
0.0
  0
LINE
 8
Layer0
10
7325.29138650594
20
-2387.92485325755
30
0.0
11
7333.05595785901
21
-2386.90262804622
31
0.0
  0
LINE
 8
Layer0
10
7354.26916129461
20
-2350.16028190447
30
0.0
11
7351.27214861947
21
-2342.92485325755
31
0.0
  0
LINE
 8
Layer0
10
7340.29138650594
20
-2383.90561537108
30
0.0
11
7346.50458994154
21
-2379.13805669314
31
0.0
  0
LINE
 8
Layer0
10
7363.29138650598
20
-2509.92485325755
30
0.0
11
7378.29138650599
21
-2509.92485325755
31
0.0
  0
LINE
 8
Layer0
10
7162.29138650596
20
-2512.92485325756
30
0.0
11
7183.29138650598
21
-2512.92485325756
31
0.0
  0
LINE
 8
Layer0
10
7318.29138650598
20
-2512.92485325755
30
0.0
11
7333.29138650599
21
-2512.92485325755
31
0.0
  0
LINE
 8
Layer0
10
7288.29138650598
20
-2512.92485325756
30
0.0
11
7303.29138650597
21
-2512.92485325756
31
0.0
  0
LINE
 8
Layer0
10
7415.29138650598
20
-2494.92485325756
30
0.0
11
7418.29138650598
21
-2494.92485325756
31
0.0
  0
LINE
 8
Layer0
10
7415.29138650598
20
-2479.92485325756
30
0.0
11
7415.29138650598
21
-2494.92485325756
31
0.0
  0
LINE
 8
Layer0
10
7418.29138650598
20
-2494.92485325756
30
0.0
11
7418.29138650598
21
-2509.92485325756
31
0.0
  0
LINE
 8
Layer0
10
7198.29138650598
20
-2512.92485325756
30
0.0
11
7213.29138650598
21
-2512.92485325756
31
0.0
  0
LINE
 8
Layer0
10
7346.50458994154
20
-2336.71164982195
30
0.0
11
7340.29138650594
21
-2331.94409114402
31
0.0
  0
LINE
 8
Layer0
10
7310.29138650594
20
-2331.94409114402
30
0.0
11
7304.07818307034
21
-2336.71164982195
31
0.0
  0
LINE
 8
Layer0
10
7165.29138650597
20
-2494.92485325756
30
0.0
11
7165.29138650596
21
-2479.92485325756
31
0.0
  0
LINE
 8
Layer0
10
7375.29138650594
20
-2272.92485325755
30
0.0
11
7360.29138650594
21
-2272.92485325755
31
0.0
  0
LINE
 8
Layer0
10
7310.29138650594
20
-2383.90561537108
30
0.0
11
7317.52681515286
21
-2386.90262804622
31
0.0
 0
ENDSEC
 0
EOF
