 0
SECTION
 2
ENTITIES
  0
LINE
 8
Layer0
10
7031.5871000533
20
-2252.70274392303
30
0.0
11
7031.5871000533
21
-2249.70274392302
31
0.0
  0
LINE
 8
Layer0
10
6971.5871000533
20
-2252.70274392303
30
0.0
11
6971.5871000533
21
-2249.70274392303
31
0.0
  0
LINE
 8
Layer0
10
6986.5871000533
20
-2249.70274392302
30
0.0
11
6986.5871000533
21
-2252.70274392302
31
0.0
  0
LINE
 8
Layer0
10
7046.58710005331
20
-2249.70274392302
30
0.0
11
7031.5871000533
21
-2249.70274392302
31
0.0
  0
LINE
 8
Layer0
10
7106.58710005331
20
-2249.70274392302
30
0.0
11
7091.58710005331
21
-2249.70274392302
31
0.0
  0
LINE
 8
Layer0
10
7076.5871000533
20
-2249.70274392302
30
0.0
11
7061.5871000533
21
-2249.70274392302
31
0.0
  0
LINE
 8
Layer0
10
7106.58710005331
20
-1999.702743923
30
0.0
11
7121.58710005331
21
-1999.70274392301
31
0.0
  0
LINE
 8
Layer0
10
7046.58710005331
20
-1999.70274392296
30
0.0
11
7046.58710005331
21
-1996.70274392297
31
0.0
  0
LINE
 8
Layer0
10
6986.5871000533
20
-2252.70274392302
30
0.0
11
7001.5871000533
21
-2252.70274392302
31
0.0
  0
LINE
 8
Layer0
10
7016.5871000533
20
-2252.70274392302
30
0.0
11
7031.5871000533
21
-2252.70274392303
31
0.0
  0
LINE
 8
Layer0
10
7151.58710005331
20
-2059.70274392303
30
0.0
11
7151.58710005331
21
-2074.70274392303
31
0.0
  0
LINE
 8
Layer0
10
7046.58710005329
20
-2252.70274392303
30
0.0
11
7061.58710005331
21
-2252.70274392302
31
0.0
  0
LINE
 8
Layer0
10
7076.58710005331
20
-2252.70274392302
30
0.0
11
7091.5871000533
21
-2252.70274392302
31
0.0
  0
LINE
 8
Layer0
10
7016.5871000533
20
-2252.70274392302
30
0.0
11
7016.5871000533
21
-2249.70274392302
31
0.0
  0
LINE
 8
Layer0
10
7061.58710005331
20
-2252.70274392302
30
0.0
11
7061.5871000533
21
-2249.70274392302
31
0.0
  0
LINE
 8
Layer0
10
7136.58710005331
20
-2252.70274392302
30
0.0
11
7136.58710005331
21
-2249.70274392302
31
0.0
  0
LINE
 8
Layer0
10
7121.58710005331
20
-2252.70274392302
30
0.0
11
7121.58710005331
21
-2249.70274392302
31
0.0
  0
LINE
 8
Layer0
10
7106.58710005331
20
-2249.70274392302
30
0.0
11
7106.5871000533
21
-2252.70274392302
31
0.0
  0
LINE
 8
Layer0
10
7148.58710005332
20
-2134.70274392303
30
0.0
11
7148.58710005332
21
-2149.70274392303
31
0.0
  0
LINE
 8
Layer0
10
7151.58710005332
20
-2029.70274392303
30
0.0
11
7151.58710005331
21
-2044.70274392303
31
0.0
  0
LINE
 8
Layer0
10
7151.58710005332
20
-2089.70274392303
30
0.0
11
7151.58710005332
21
-2104.70274392303
31
0.0
  0
LINE
 8
Layer0
10
7151.58710005332
20
-2149.70274392304
30
0.0
11
7151.58710005332
21
-2164.70274392303
31
0.0
  0
LINE
 8
Layer0
10
7151.58710005331
20
-2239.70274392304
30
0.0
11
7151.5871000533
21
-2252.70274392302
31
0.0
  0
LINE
 8
Layer0
10
7151.58710005331
20
-2209.70274392303
30
0.0
11
7151.58710005331
21
-2224.70274392303
31
0.0
  0
LINE
 8
Layer0
10
7148.58710005331
20
-2029.70274392303
30
0.0
11
7151.58710005332
21
-2029.70274392303
31
0.0
  0
LINE
 8
Layer0
10
7148.58710005332
20
-2089.70274392303
30
0.0
11
7151.58710005332
21
-2089.70274392303
31
0.0
  0
LINE
 8
Layer0
10
7151.58710005331
20
-2074.70274392303
30
0.0
11
7148.58710005332
21
-2074.70274392303
31
0.0
  0
LINE
 8
Layer0
10
7151.58710005331
20
-1999.70274392302
30
0.0
11
7151.58710005331
21
-2014.70274392303
31
0.0
  0
LINE
 8
Layer0
10
7151.58710005331
20
-2119.70274392303
30
0.0
11
7151.58710005331
21
-2134.70274392303
31
0.0
  0
LINE
 8
Layer0
10
7151.58710005332
20
-2179.70274392303
30
0.0
11
7151.58710005331
21
-2194.70274392303
31
0.0
  0
LINE
 8
Layer0
10
7148.58710005331
20
-2059.70274392303
30
0.0
11
7151.58710005331
21
-2059.70274392303
31
0.0
  0
LINE
 8
Layer0
10
7148.58710005332
20
-2074.70274392303
30
0.0
11
7148.58710005332
21
-2089.70274392303
31
0.0
  0
LINE
 8
Layer0
10
7148.58710005331
20
-2014.70274392303
30
0.0
11
7148.58710005331
21
-2029.70274392303
31
0.0
  0
LINE
 8
Layer0
10
7148.58710005332
20
-2044.70274392303
30
0.0
11
7148.58710005331
21
-2059.70274392303
31
0.0
  0
LINE
 8
Layer0
10
7151.58710005331
20
-2014.70274392303
30
0.0
11
7148.58710005331
21
-2014.70274392303
31
0.0
  0
LINE
 8
Layer0
10
7148.58710005332
20
-2044.70274392303
30
0.0
11
7151.58710005331
21
-2044.70274392303
31
0.0
  0
LINE
 8
Layer0
10
7148.58710005331
20
-2209.70274392303
30
0.0
11
7151.58710005331
21
-2209.70274392303
31
0.0
  0
LINE
 8
Layer0
10
7148.58710005332
20
-2119.70274392304
30
0.0
11
7151.58710005331
21
-2119.70274392303
31
0.0
  0
LINE
 8
Layer0
10
7148.58710005331
20
-2224.70274392303
30
0.0
11
7148.58710005332
21
-2239.70274392303
31
0.0
  0
LINE
 8
Layer0
10
7148.58710005331
20
-2104.70274392303
30
0.0
11
7148.58710005332
21
-2119.70274392304
31
0.0
  0
LINE
 8
Layer0
10
7148.58710005331
20
-2164.70274392303
30
0.0
11
7148.58710005331
21
-2179.70274392303
31
0.0
  0
LINE
 8
Layer0
10
7148.58710005331
20
-2194.70274392303
30
0.0
11
7148.58710005331
21
-2209.70274392303
31
0.0
  0
LINE
 8
Layer0
10
7148.58710005332
20
-2134.70274392303
30
0.0
11
7151.58710005331
21
-2134.70274392303
31
0.0
  0
LINE
 8
Layer0
10
7148.58710005332
20
-2149.70274392303
30
0.0
11
7151.58710005332
21
-2149.70274392304
31
0.0
  0
LINE
 8
Layer0
10
7151.58710005332
20
-2164.70274392303
30
0.0
11
7148.58710005331
21
-2164.70274392303
31
0.0
  0
LINE
 8
Layer0
10
7148.58710005331
20
-2179.70274392303
30
0.0
11
7151.58710005332
21
-2179.70274392303
31
0.0
  0
LINE
 8
Layer0
10
7151.58710005332
20
-2104.70274392303
30
0.0
11
7148.58710005331
21
-2104.70274392303
31
0.0
  0
LINE
 8
Layer0
10
7148.58710005332
20
-2239.70274392303
30
0.0
11
7151.58710005331
21
-2239.70274392304
31
0.0
  0
LINE
 8
Layer0
10
7151.58710005331
20
-2224.70274392303
30
0.0
11
7148.58710005331
21
-2224.70274392303
31
0.0
  0
LINE
 8
Layer0
10
7148.58710005331
20
-2194.70274392303
30
0.0
11
7151.58710005331
21
-2194.70274392303
31
0.0
  0
LINE
 8
Layer0
10
7076.58710005332
20
-1996.70274392298
30
0.0
11
7076.58710005331
21
-1999.70274392299
31
0.0
  0
LINE
 8
Layer0
10
7091.58710005331
20
-1999.702743923
30
0.0
11
7091.58710005331
21
-1996.70274392299
31
0.0
  0
LINE
 8
Layer0
10
7016.58710005331
20
-1996.70274392295
30
0.0
11
7016.58710005331
21
-1999.70274392296
31
0.0
  0
LINE
 8
Layer0
10
7136.58710005331
20
-1996.70274392301
30
0.0
11
7136.58710005331
21
-1999.70274392302
31
0.0
  0
LINE
 8
Layer0
10
7106.58710005331
20
-1999.702743923
30
0.0
11
7106.58710005331
21
-1996.702743923
31
0.0
  0
LINE
 8
Layer0
10
6956.58710005332
20
-1999.70274392293
30
0.0
11
6971.58710005331
21
-1999.70274392294
31
0.0
  0
LINE
 8
Layer0
10
6986.58710005331
20
-1996.70274392294
30
0.0
11
6971.58710005331
21
-1996.70274392294
31
0.0
  0
LINE
 8
Layer0
10
7046.58710005331
20
-1999.70274392296
30
0.0
11
7061.58710005331
21
-1999.70274392298
31
0.0
  0
LINE
 8
Layer0
10
7001.58710005331
20
-1999.70274392294
30
0.0
11
7001.58710005332
21
-1996.70274392295
31
0.0
  0
LINE
 8
Layer0
10
7106.58710005331
20
-1996.702743923
30
0.0
11
7091.58710005331
21
-1996.70274392299
31
0.0
  0
LINE
 8
Layer0
10
7076.58710005332
20
-1996.70274392298
30
0.0
11
7061.58710005332
21
-1996.70274392298
31
0.0
  0
LINE
 8
Layer0
10
7016.58710005331
20
-1996.70274392295
30
0.0
11
7001.58710005332
21
-1996.70274392295
31
0.0
  0
LINE
 8
Layer0
10
7046.58710005331
20
-1996.70274392297
30
0.0
11
7031.58710005331
21
-1996.70274392297
31
0.0
  0
LINE
 8
Layer0
10
6956.58710005331
20
-2249.70274392302
30
0.0
11
6938.58710005331
21
-2249.70274392302
31
0.0
  0
LINE
 8
Layer0
10
7076.58710005331
20
-2252.70274392302
30
0.0
11
7076.5871000533
21
-2249.70274392302
31
0.0
  0
LINE
 8
Layer0
10
7091.5871000533
20
-2252.70274392302
30
0.0
11
7091.58710005331
21
-2249.70274392302
31
0.0
  0
LINE
 8
Layer0
10
6956.5871000533
20
-2252.70274392303
30
0.0
11
6956.58710005331
21
-2249.70274392302
31
0.0
  0
LINE
 8
Layer0
10
7001.5871000533
20
-2252.70274392302
30
0.0
11
7001.5871000533
21
-2249.70274392302
31
0.0
  0
LINE
 8
Layer0
10
7136.58710005331
20
-2249.70274392302
30
0.0
11
7121.58710005331
21
-2249.70274392302
31
0.0
  0
LINE
 8
Layer0
10
6908.58710005333
20
-2239.70274392292
30
0.0
11
6908.58710005333
21
-2224.70274392291
31
0.0
  0
LINE
 8
Layer0
10
7046.58710005331
20
-2249.70274392302
30
0.0
11
7046.58710005329
21
-2252.70274392303
31
0.0
  0
LINE
 8
Layer0
10
6956.5871000533
20
-2252.70274392303
30
0.0
11
6971.5871000533
21
-2252.70274392303
31
0.0
  0
LINE
 8
Layer0
10
6986.5871000533
20
-2249.70274392302
30
0.0
11
6971.5871000533
21
-2249.70274392303
31
0.0
  0
LINE
 8
Layer0
10
7031.58710005332
20
-1999.70274392296
30
0.0
11
7031.58710005331
21
-1996.70274392297
31
0.0
  0
LINE
 8
Layer0
10
7136.58710005331
20
-1999.70274392302
30
0.0
11
7151.58710005331
21
-1999.70274392302
31
0.0
  0
LINE
 8
Layer0
10
7016.58710005331
20
-1999.70274392296
30
0.0
11
7031.58710005332
21
-1999.70274392296
31
0.0
  0
LINE
 8
Layer0
10
7076.58710005331
20
-1999.70274392299
30
0.0
11
7091.58710005331
21
-1999.702743923
31
0.0
  0
LINE
 8
Layer0
10
6986.58710005331
20
-1996.70274392294
30
0.0
11
6986.58710005331
21
-1999.70274392293
31
0.0
  0
LINE
 8
Layer0
10
6971.58710005331
20
-1999.70274392294
30
0.0
11
6971.58710005331
21
-1996.70274392294
31
0.0
  0
LINE
 8
Layer0
10
6986.58710005331
20
-1999.70274392293
30
0.0
11
7001.58710005331
21
-1999.70274392294
31
0.0
  0
LINE
 8
Layer0
10
7061.58710005331
20
-1999.70274392298
30
0.0
11
7061.58710005332
21
-1996.70274392298
31
0.0
  0
LINE
 8
Layer0
10
6956.58710005332
20
-1999.70274392293
30
0.0
11
6956.58710005331
21
-1996.70274392293
31
0.0
  0
LINE
 8
Layer0
10
7121.58710005331
20
-1999.70274392301
30
0.0
11
7121.58710005331
21
-1996.70274392301
31
0.0
  0
LINE
 8
Layer0
10
6908.58710005333
20
-2134.70274392291
30
0.0
11
6905.58710005333
21
-2134.70274392292
31
0.0
  0
LINE
 8
Layer0
10
7136.58710005331
20
-2252.70274392302
30
0.0
11
7151.5871000533
21
-2252.70274392302
31
0.0
  0
LINE
 8
Layer0
10
7106.5871000533
20
-2252.70274392302
30
0.0
11
7121.58710005331
21
-2252.70274392302
31
0.0
  0
LINE
 8
Layer0
10
6956.58710005331
20
-1996.70274392293
30
0.0
11
6938.58710005332
21
-1996.70274392292
31
0.0
  0
LINE
 8
Layer0
10
7136.58710005331
20
-1996.70274392301
30
0.0
11
7121.58710005331
21
-1996.70274392301
31
0.0
  0
LINE
 8
Layer0
10
7016.5871000533
20
-2249.70274392302
30
0.0
11
7001.5871000533
21
-2249.70274392302
31
0.0
  0
LINE
 8
Layer0
10
6908.58710005332
20
-2149.70274392292
30
0.0
11
6908.58710005333
21
-2134.70274392291
31
0.0
  0
LINE
 8
Layer0
10
6938.58710005331
20
-2252.70274392302
30
0.0
11
6938.58710005331
21
-2249.70274392302
31
0.0
  0
LINE
 8
Layer0
10
6923.58710005332
20
-1999.70274392292
30
0.0
11
6923.58710005332
21
-1996.70274392293
31
0.0
  0
LINE
 8
Layer0
10
6908.58710005333
20
-2059.70274392291
30
0.0
11
6908.58710005333
21
-2044.70274392292
31
0.0
  0
LINE
 8
Layer0
10
6923.58710005332
20
-1996.70274392293
30
0.0
11
6905.58710005333
21
-1996.70274392291
31
0.0
  0
LINE
 8
Layer0
10
6908.58710005332
20
-2119.70274392292
30
0.0
11
6905.58710005333
21
-2119.70274392292
31
0.0
  0
LINE
 8
Layer0
10
6908.58710005333
20
-2104.70274392292
30
0.0
11
6905.58710005333
21
-2104.70274392291
31
0.0
  0
LINE
 8
Layer0
10
6905.58710005333
20
-2089.70274392292
30
0.0
11
6908.58710005333
21
-2089.70274392292
31
0.0
  0
LINE
 8
Layer0
10
6905.58710005333
20
-2029.70274392292
30
0.0
11
6908.58710005333
21
-2029.70274392292
31
0.0
  0
LINE
 8
Layer0
10
6908.58710005333
20
-2059.70274392291
30
0.0
11
6905.58710005333
21
-2059.70274392291
31
0.0
  0
LINE
 8
Layer0
10
6905.58710005333
20
-2014.70274392291
30
0.0
11
6905.58710005333
21
-1999.70274392291
31
0.0
  0
LINE
 8
Layer0
10
6923.58710005331
20
-2252.70274392302
30
0.0
11
6938.58710005331
21
-2252.70274392302
31
0.0
  0
LINE
 8
Layer0
10
6938.58710005332
20
-1999.70274392293
30
0.0
11
6938.58710005332
21
-1996.70274392292
31
0.0
  0
LINE
 8
Layer0
10
6905.58710005332
20
-2249.70274392301
30
0.0
11
6905.58710005333
21
-2239.70274392292
31
0.0
  0
LINE
 8
Layer0
10
6908.58710005333
20
-2029.70274392292
30
0.0
11
6908.58710005333
21
-2014.70274392291
31
0.0
  0
LINE
 8
Layer0
10
6905.58710005333
20
-2074.70274392292
30
0.0
11
6905.58710005333
21
-2059.70274392291
31
0.0
  0
LINE
 8
Layer0
10
6905.58710005333
20
-2104.70274392291
30
0.0
11
6905.58710005333
21
-2089.70274392292
31
0.0
  0
LINE
 8
Layer0
10
6905.58710005332
20
-2164.70274392292
30
0.0
11
6905.58710005332
21
-2149.70274392292
31
0.0
  0
LINE
 8
Layer0
10
6905.58710005333
20
-1996.70274392291
30
0.0
11
6905.58710005333
21
-1999.70274392291
31
0.0
  0
LINE
 8
Layer0
10
6908.58710005333
20
-2074.70274392291
30
0.0
11
6905.58710005333
21
-2074.70274392292
31
0.0
  0
LINE
 8
Layer0
10
6905.58710005332
20
-2149.70274392292
30
0.0
11
6908.58710005332
21
-2149.70274392292
31
0.0
  0
LINE
 8
Layer0
10
6908.58710005333
20
-2014.70274392291
30
0.0
11
6905.58710005333
21
-2014.70274392291
31
0.0
  0
LINE
 8
Layer0
10
6908.58710005333
20
-2089.70274392292
30
0.0
11
6908.58710005333
21
-2074.70274392291
31
0.0
  0
LINE
 8
Layer0
10
6905.58710005333
20
-2044.70274392291
30
0.0
11
6905.58710005333
21
-2029.70274392292
31
0.0
  0
LINE
 8
Layer0
10
6923.58710005332
20
-2249.70274392302
30
0.0
11
6905.58710005332
21
-2249.70274392301
31
0.0
  0
LINE
 8
Layer0
10
6905.58710005332
20
-2179.70274392292
30
0.0
11
6908.58710005332
21
-2179.70274392292
31
0.0
  0
LINE
 8
Layer0
10
6908.58710005333
20
-2209.70274392292
30
0.0
11
6905.58710005333
21
-2209.70274392292
31
0.0
  0
LINE
 8
Layer0
10
6908.58710005333
20
-2044.70274392292
30
0.0
11
6905.58710005333
21
-2044.70274392291
31
0.0
  0
LINE
 8
Layer0
10
6905.58710005333
20
-2194.70274392292
30
0.0
11
6905.58710005332
21
-2179.70274392292
31
0.0
  0
LINE
 8
Layer0
10
6905.58710005333
20
-2239.70274392292
30
0.0
11
6908.58710005333
21
-2239.70274392292
31
0.0
  0
LINE
 8
Layer0
10
6908.58710005333
20
-2224.70274392291
30
0.0
11
6905.58710005333
21
-2224.70274392291
31
0.0
  0
LINE
 8
Layer0
10
6908.58710005332
20
-2164.70274392292
30
0.0
11
6905.58710005332
21
-2164.70274392292
31
0.0
  0
LINE
 8
Layer0
10
6908.58710005333
20
-2209.70274392292
30
0.0
11
6908.58710005333
21
-2194.70274392292
31
0.0
  0
LINE
 8
Layer0
10
6908.58710005333
20
-2194.70274392292
30
0.0
11
6905.58710005333
21
-2194.70274392292
31
0.0
  0
LINE
 8
Layer0
10
6908.58710005332
20
-2179.70274392292
30
0.0
11
6908.58710005332
21
-2164.70274392292
31
0.0
  0
LINE
 8
Layer0
10
6905.58710005333
20
-2224.70274392291
30
0.0
11
6905.58710005333
21
-2209.70274392292
31
0.0
  0
LINE
 8
Layer0
10
6905.58710005333
20
-2134.70274392292
30
0.0
11
6905.58710005333
21
-2119.70274392292
31
0.0
  0
LINE
 8
Layer0
10
6908.58710005332
20
-2119.70274392292
30
0.0
11
6908.58710005333
21
-2104.70274392292
31
0.0
  0
LINE
 8
Layer0
10
6923.58710005331
20
-2252.70274392302
30
0.0
11
6923.58710005332
21
-2249.70274392302
31
0.0
  0
LINE
 8
Layer0
10
6923.58710005332
20
-1999.70274392292
30
0.0
11
6938.58710005332
21
-1999.70274392293
31
0.0
 0
ENDSEC
 0
EOF
