 0
SECTION
 2
ENTITIES
  0
LINE
 8
Layer0
10
7283.50547017181
20
-1738.56249458869
30
0.0
11
7283.50547017182
21
-1735.56249458869
31
0.0
  0
LINE
 8
Layer0
10
7416.50547017181
20
-1846.56249458868
30
0.0
11
7416.50547017181
21
-1831.56249458868
31
0.0
  0
LINE
 8
Layer0
10
7416.5054701718
20
-1876.56249458868
30
0.0
11
7416.5054701718
21
-1861.56249458868
31
0.0
  0
LINE
 8
Layer0
10
7315.43861978435
20
-1791.56249458869
30
0.0
11
7319.2526667267
21
-1796.53305733716
31
0.0
  0
LINE
 8
Layer0
10
7416.5054701718
20
-1936.56249458868
30
0.0
11
7416.5054701718
21
-1921.56249458868
31
0.0
  0
LINE
 8
Layer0
10
7166.5054701718
20
-1786.56249458868
30
0.0
11
7166.50547017181
21
-1768.56249458868
31
0.0
  0
LINE
 8
Layer0
10
7166.50547017181
20
-1816.56249458868
30
0.0
11
7166.5054701718
21
-1801.56249458868
31
0.0
  0
LINE
 8
Layer0
10
7193.50547017181
20
-1735.56249458868
30
0.0
11
7208.50547017181
21
-1735.56249458869
31
0.0
  0
LINE
 8
Layer0
10
7238.50547017181
20
-1738.56249458869
30
0.0
11
7253.50547017181
21
-1738.56249458869
31
0.0
  0
LINE
 8
Layer0
10
7358.50547017182
20
-1735.56249458869
30
0.0
11
7358.50547017182
21
-1738.56249458869
31
0.0
  0
LINE
 8
Layer0
10
7328.50547017181
20
-1735.56249458869
30
0.0
11
7328.50547017181
21
-1738.56249458869
31
0.0
  0
LINE
 8
Layer0
10
7328.50547017181
20
-1738.56249458869
30
0.0
11
7343.50547017181
21
-1738.56249458869
31
0.0
  0
LINE
 8
Layer0
10
7166.50547017181
20
-1735.56249458869
30
0.0
11
7178.50547017181
21
-1735.56249458869
31
0.0
  0
LINE
 8
Layer0
10
7336.22322947518
20
-1755.56249458869
30
0.0
11
7330.01157239272
21
-1756.38027475775
31
0.0
  0
LINE
 8
Layer0
10
7416.50547017181
20
-1816.56249458868
30
0.0
11
7416.50547017181
21
-1801.56249458868
31
0.0
  0
LINE
 8
Layer0
10
7342.43488655764
20
-1756.38027475775
30
0.0
11
7336.22322947518
21
-1755.56249458869
31
0.0
  0
LINE
 8
Layer0
10
7416.5054701718
20
-1966.56249458868
30
0.0
11
7416.5054701718
21
-1951.56249458868
31
0.0
  0
LINE
 8
Layer0
10
7253.50547017181
20
-1735.56249458869
30
0.0
11
7268.50547017181
21
-1735.56249458869
31
0.0
  0
LINE
 8
Layer0
10
7163.50547017181
20
-1876.56249458868
30
0.0
11
7163.50547017181
21
-1891.56249458867
31
0.0
  0
LINE
 8
Layer0
10
7163.50547017181
20
-1831.56249458867
30
0.0
11
7166.50547017181
21
-1831.56249458868
31
0.0
  0
LINE
 8
Layer0
10
7166.50547017181
20
-1816.56249458868
30
0.0
11
7163.50547017181
21
-1816.56249458868
31
0.0
  0
LINE
 8
Layer0
10
7163.5054701718
20
-1801.56249458867
30
0.0
11
7166.5054701718
21
-1801.56249458868
31
0.0
  0
LINE
 8
Layer0
10
7163.50547017181
20
-1816.56249458868
30
0.0
11
7163.50547017181
21
-1831.56249458867
31
0.0
  0
LINE
 8
Layer0
10
7163.50547017181
20
-1786.56249458868
30
0.0
11
7163.5054701718
21
-1801.56249458867
31
0.0
  0
LINE
 8
Layer0
10
7163.50547017181
20
-1786.56249458868
30
0.0
11
7166.5054701718
21
-1786.56249458868
31
0.0
  0
LINE
 8
Layer0
10
7163.5054701718
20
-1951.56249458867
30
0.0
11
7166.50547017181
21
-1951.56249458867
31
0.0
  0
LINE
 8
Layer0
10
7163.50547017181
20
-1861.56249458868
30
0.0
11
7166.5054701718
21
-1861.56249458868
31
0.0
  0
LINE
 8
Layer0
10
7163.5054701718
20
-1966.56249458868
30
0.0
11
7163.50547017181
21
-1981.56249458868
31
0.0
  0
LINE
 8
Layer0
10
7163.50547017181
20
-1846.56249458868
30
0.0
11
7163.50547017181
21
-1861.56249458868
31
0.0
  0
LINE
 8
Layer0
10
7163.5054701718
20
-1906.56249458868
30
0.0
11
7163.5054701718
21
-1921.56249458868
31
0.0
  0
LINE
 8
Layer0
10
7163.5054701718
20
-1936.56249458868
30
0.0
11
7163.5054701718
21
-1951.56249458867
31
0.0
  0
LINE
 8
Layer0
10
7163.50547017181
20
-1876.56249458868
30
0.0
11
7166.50547017181
21
-1876.56249458867
31
0.0
  0
LINE
 8
Layer0
10
7163.50547017181
20
-1891.56249458867
30
0.0
11
7166.50547017181
21
-1891.56249458868
31
0.0
  0
LINE
 8
Layer0
10
7166.50547017181
20
-1906.56249458868
30
0.0
11
7163.5054701718
21
-1906.56249458868
31
0.0
  0
LINE
 8
Layer0
10
7163.5054701718
20
-1921.56249458868
30
0.0
11
7166.50547017181
21
-1921.56249458868
31
0.0
  0
LINE
 8
Layer0
10
7166.50547017181
20
-1846.56249458867
30
0.0
11
7163.50547017181
21
-1846.56249458868
31
0.0
  0
LINE
 8
Layer0
10
7166.50547017181
20
-1966.56249458867
30
0.0
11
7163.5054701718
21
-1966.56249458868
31
0.0
  0
LINE
 8
Layer0
10
7163.5054701718
20
-1936.56249458868
30
0.0
11
7166.5054701718
21
-1936.56249458868
31
0.0
  0
LINE
 8
Layer0
10
7348.22322947518
20
-1758.77788489786
30
0.0
11
7342.43488655764
21
-1756.38027475775
31
0.0
  0
LINE
 8
Layer0
10
7416.50547017181
20
-1786.56249458868
30
0.0
11
7416.5054701718
21
-1768.56249458868
31
0.0
  0
LINE
 8
Layer0
10
7223.50547017181
20
-1738.56249458869
30
0.0
11
7223.50547017181
21
-1735.56249458869
31
0.0
  0
LINE
 8
Layer0
10
7419.50547017181
20
-1768.56249458868
30
0.0
11
7419.50547017181
21
-1753.56249458869
31
0.0
  0
LINE
 8
Layer0
10
7328.50547017181
20
-1981.56249458868
30
0.0
11
7313.50547017181
21
-1981.56249458868
31
0.0
  0
LINE
 8
Layer0
10
7268.50547017181
20
-1981.56249458868
30
0.0
11
7253.50547017181
21
-1981.56249458868
31
0.0
  0
LINE
 8
Layer0
10
7358.50547017181
20
-1981.56249458868
30
0.0
11
7343.50547017181
21
-1981.56249458868
31
0.0
  0
LINE
 8
Layer0
10
7193.50547017181
20
-1978.56249458868
30
0.0
11
7178.50547017181
21
-1978.56249458868
31
0.0
  0
LINE
 8
Layer0
10
7223.50547017181
20
-1978.56249458868
30
0.0
11
7208.50547017181
21
-1978.56249458868
31
0.0
  0
LINE
 8
Layer0
10
7343.50547017181
20
-1978.56249458868
30
0.0
11
7328.50547017181
21
-1978.56249458868
31
0.0
  0
LINE
 8
Layer0
10
7313.50547017181
20
-1978.56249458868
30
0.0
11
7298.50547017181
21
-1978.56249458868
31
0.0
  0
LINE
 8
Layer0
10
7358.50547017181
20
-1978.56249458868
30
0.0
11
7358.50547017181
21
-1981.56249458868
31
0.0
  0
LINE
 8
Layer0
10
7373.50547017181
20
-1978.56249458868
30
0.0
11
7358.50547017181
21
-1978.56249458868
31
0.0
  0
LINE
 8
Layer0
10
7403.50547017181
20
-1978.56249458868
30
0.0
11
7388.50547017181
21
-1978.56249458868
31
0.0
  0
LINE
 8
Layer0
10
7283.50547017181
20
-1978.56249458868
30
0.0
11
7268.50547017181
21
-1978.56249458868
31
0.0
  0
LINE
 8
Layer0
10
7253.50547017181
20
-1978.56249458868
30
0.0
11
7238.50547017181
21
-1978.56249458868
31
0.0
  0
LINE
 8
Layer0
10
7403.50547017181
20
-1981.56249458868
30
0.0
11
7403.50547017181
21
-1978.56249458868
31
0.0
  0
LINE
 8
Layer0
10
7313.50547017181
20
-1978.56249458868
30
0.0
11
7313.50547017181
21
-1981.56249458868
31
0.0
  0
LINE
 8
Layer0
10
7298.50547017181
20
-1978.56249458868
30
0.0
11
7298.50547017181
21
-1981.56249458868
31
0.0
  0
LINE
 8
Layer0
10
7283.50547017181
20
-1981.56249458868
30
0.0
11
7283.50547017181
21
-1978.56249458868
31
0.0
  0
LINE
 8
Layer0
10
7268.50547017181
20
-1978.56249458868
30
0.0
11
7268.50547017181
21
-1981.56249458868
31
0.0
  0
LINE
 8
Layer0
10
7343.50547017181
20
-1981.56249458868
30
0.0
11
7343.50547017181
21
-1978.56249458868
31
0.0
  0
LINE
 8
Layer0
10
7178.50547017181
20
-1978.56249458868
30
0.0
11
7178.50547017181
21
-1981.56249458868
31
0.0
  0
LINE
 8
Layer0
10
7193.50547017181
20
-1978.56249458868
30
0.0
11
7193.50547017181
21
-1981.56249458868
31
0.0
  0
LINE
 8
Layer0
10
7208.50547017181
20
-1978.56249458868
30
0.0
11
7208.50547017181
21
-1981.56249458868
31
0.0
  0
LINE
 8
Layer0
10
7178.50547017181
20
-1981.56249458868
30
0.0
11
7163.50547017181
21
-1981.56249458868
31
0.0
  0
LINE
 8
Layer0
10
7208.50547017181
20
-1981.56249458868
30
0.0
11
7193.50547017181
21
-1981.56249458868
31
0.0
  0
LINE
 8
Layer0
10
7238.50547017181
20
-1981.56249458868
30
0.0
11
7223.50547017181
21
-1981.56249458868
31
0.0
  0
LINE
 8
Layer0
10
7403.50547017181
20
-1981.56249458868
30
0.0
11
7419.50547017181
21
-1981.56249458868
31
0.0
  0
LINE
 8
Layer0
10
7223.50547017181
20
-1981.56249458868
30
0.0
11
7223.50547017181
21
-1978.56249458868
31
0.0
  0
LINE
 8
Layer0
10
7253.50547017181
20
-1978.56249458868
30
0.0
11
7253.50547017181
21
-1981.56249458868
31
0.0
  0
LINE
 8
Layer0
10
7238.50547017181
20
-1978.56249458868
30
0.0
11
7238.50547017181
21
-1981.56249458868
31
0.0
  0
LINE
 8
Layer0
10
7388.50547017181
20
-1978.56249458868
30
0.0
11
7388.50547017181
21
-1981.56249458868
31
0.0
  0
LINE
 8
Layer0
10
7373.50547017181
20
-1978.56249458868
30
0.0
11
7373.50547017181
21
-1981.56249458868
31
0.0
  0
LINE
 8
Layer0
10
7328.50547017181
20
-1978.56249458868
30
0.0
11
7328.50547017181
21
-1981.56249458868
31
0.0
  0
LINE
 8
Layer0
10
7388.50547017181
20
-1981.56249458868
30
0.0
11
7373.50547017181
21
-1981.56249458868
31
0.0
  0
LINE
 8
Layer0
10
7166.5054701718
20
-1936.56249458868
30
0.0
11
7166.50547017181
21
-1921.56249458868
31
0.0
  0
LINE
 8
Layer0
10
7166.50547017181
20
-1966.56249458867
30
0.0
11
7166.50547017181
21
-1951.56249458867
31
0.0
  0
LINE
 8
Layer0
10
7166.50547017181
20
-1906.56249458868
30
0.0
11
7166.50547017181
21
-1891.56249458868
31
0.0
  0
LINE
 8
Layer0
10
7315.43861978435
20
-1767.56249458869
30
0.0
11
7313.04100964424
21
-1773.35083750623
31
0.0
  0
LINE
 8
Layer0
10
7166.50547017181
20
-1846.56249458867
30
0.0
11
7166.50547017181
21
-1831.56249458868
31
0.0
  0
LINE
 8
Layer0
10
7166.50547017181
20
-1876.56249458867
30
0.0
11
7166.5054701718
21
-1861.56249458868
31
0.0
  0
LINE
 8
Layer0
10
7416.50547017181
20
-1735.56249458869
30
0.0
11
7403.50547017181
21
-1735.56249458869
31
0.0
  0
LINE
 8
Layer0
10
7416.5054701718
20
-1906.56249458868
30
0.0
11
7416.5054701718
21
-1891.56249458868
31
0.0
  0
LINE
 8
Layer0
10
7319.2526667267
20
-1796.53305733716
30
0.0
11
7324.22322947518
21
-1800.34710427951
31
0.0
  0
LINE
 8
Layer0
10
7283.50547017182
20
-1735.56249458869
30
0.0
11
7298.50547017182
21
-1735.56249458868
31
0.0
  0
LINE
 8
Layer0
10
7353.19379222365
20
-1762.59193184021
30
0.0
11
7348.22322947518
21
-1758.77788489786
31
0.0
  0
LINE
 8
Layer0
10
7348.22322947518
20
-1800.34710427951
30
0.0
11
7353.19379222365
21
-1796.53305733716
31
0.0
  0
LINE
 8
Layer0
10
7298.50547017181
20
-1981.56249458868
30
0.0
11
7283.50547017181
21
-1981.56249458868
31
0.0
  0
LINE
 8
Layer0
10
7419.5054701718
20
-1861.56249458868
30
0.0
11
7419.5054701718
21
-1846.56249458868
31
0.0
  0
LINE
 8
Layer0
10
7253.50547017181
20
-1735.56249458869
30
0.0
11
7253.50547017181
21
-1738.56249458869
31
0.0
  0
LINE
 8
Layer0
10
7419.5054701718
20
-1936.56249458868
30
0.0
11
7416.5054701718
21
-1936.56249458868
31
0.0
  0
LINE
 8
Layer0
10
7419.5054701718
20
-1921.56249458868
30
0.0
11
7419.5054701718
21
-1906.56249458868
31
0.0
  0
LINE
 8
Layer0
10
7419.50547017181
20
-1981.56249458868
30
0.0
11
7419.5054701718
21
-1966.56249458868
31
0.0
  0
LINE
 8
Layer0
10
7419.5054701718
20
-1951.56249458868
30
0.0
11
7419.5054701718
21
-1936.56249458868
31
0.0
  0
LINE
 8
Layer0
10
7419.5054701718
20
-1966.56249458868
30
0.0
11
7416.5054701718
21
-1966.56249458868
31
0.0
  0
LINE
 8
Layer0
10
7419.5054701718
20
-1906.56249458868
30
0.0
11
7416.5054701718
21
-1906.56249458868
31
0.0
  0
LINE
 8
Layer0
10
7416.5054701718
20
-1921.56249458868
30
0.0
11
7419.5054701718
21
-1921.56249458868
31
0.0
  0
LINE
 8
Layer0
10
7419.5054701718
20
-1951.56249458868
30
0.0
11
7416.5054701718
21
-1951.56249458868
31
0.0
  0
LINE
 8
Layer0
10
7419.50547017181
20
-1786.56249458868
30
0.0
11
7416.50547017181
21
-1786.56249458868
31
0.0
  0
LINE
 8
Layer0
10
7419.5054701718
20
-1876.56249458868
30
0.0
11
7416.5054701718
21
-1876.56249458868
31
0.0
  0
LINE
 8
Layer0
10
7419.5054701718
20
-1891.56249458868
30
0.0
11
7419.5054701718
21
-1876.56249458868
31
0.0
  0
LINE
 8
Layer0
10
7419.50547017181
20
-1831.56249458868
30
0.0
11
7419.5054701718
21
-1816.56249458868
31
0.0
  0
LINE
 8
Layer0
10
7419.50547017181
20
-1801.56249458868
30
0.0
11
7419.50547017181
21
-1786.56249458868
31
0.0
  0
LINE
 8
Layer0
10
7419.5054701718
20
-1861.56249458868
30
0.0
11
7416.5054701718
21
-1861.56249458868
31
0.0
  0
LINE
 8
Layer0
10
7419.5054701718
20
-1846.56249458868
30
0.0
11
7416.50547017181
21
-1846.56249458868
31
0.0
  0
LINE
 8
Layer0
10
7416.50547017181
20
-1831.56249458868
30
0.0
11
7419.50547017181
21
-1831.56249458868
31
0.0
  0
LINE
 8
Layer0
10
7419.5054701718
20
-1816.56249458868
30
0.0
11
7416.50547017181
21
-1816.56249458868
31
0.0
  0
LINE
 8
Layer0
10
7416.5054701718
20
-1891.56249458868
30
0.0
11
7419.5054701718
21
-1891.56249458868
31
0.0
  0
LINE
 8
Layer0
10
7419.50547017181
20
-1801.56249458868
30
0.0
11
7416.50547017181
21
-1801.56249458868
31
0.0
  0
LINE
 8
Layer0
10
7359.40544930611
20
-1773.35083750623
30
0.0
11
7357.007839166
21
-1767.56249458869
31
0.0
  0
LINE
 8
Layer0
10
7358.50547017182
20
-1738.56249458869
30
0.0
11
7373.50547017181
21
-1738.56249458869
31
0.0
  0
LINE
 8
Layer0
10
7388.50547017181
20
-1738.56249458869
30
0.0
11
7403.50547017181
21
-1738.56249458869
31
0.0
  0
LINE
 8
Layer0
10
7357.007839166
20
-1791.56249458869
30
0.0
11
7359.40544930611
21
-1785.77415167115
31
0.0
  0
LINE
 8
Layer0
10
7360.22322947518
20
-1779.56249458869
30
0.0
11
7359.40544930611
21
-1773.35083750623
31
0.0
  0
LINE
 8
Layer0
10
7373.50547017181
20
-1735.56249458869
30
0.0
11
7373.50547017181
21
-1738.56249458869
31
0.0
  0
LINE
 8
Layer0
10
7359.40544930611
20
-1785.77415167115
30
0.0
11
7360.22322947518
21
-1779.56249458869
31
0.0
  0
LINE
 8
Layer0
10
7208.50547017181
20
-1735.56249458869
30
0.0
11
7208.50547017181
21
-1738.56249458869
31
0.0
  0
LINE
 8
Layer0
10
7163.50547017181
20
-1753.56249458868
30
0.0
11
7166.50547017181
21
-1753.56249458868
31
0.0
  0
LINE
 8
Layer0
10
7416.50547017181
20
-1753.56249458868
30
0.0
11
7416.50547017181
21
-1735.56249458869
31
0.0
  0
LINE
 8
Layer0
10
7330.01157239272
20
-1756.38027475775
30
0.0
11
7324.22322947518
21
-1758.77788489786
31
0.0
  0
LINE
 8
Layer0
10
7319.2526667267
20
-1762.59193184021
30
0.0
11
7315.43861978435
21
-1767.56249458869
31
0.0
  0
LINE
 8
Layer0
10
7330.01157239272
20
-1802.74471441962
30
0.0
11
7336.22322947518
21
-1803.56249458869
31
0.0
  0
LINE
 8
Layer0
10
7178.50547017181
20
-1735.56249458869
30
0.0
11
7178.50547017181
21
-1738.56249458869
31
0.0
  0
LINE
 8
Layer0
10
7193.50547017181
20
-1735.56249458868
30
0.0
11
7193.50547017181
21
-1738.56249458869
31
0.0
  0
LINE
 8
Layer0
10
7313.04100964424
20
-1773.35083750623
30
0.0
11
7312.22322947518
21
-1779.56249458869
31
0.0
  0
LINE
 8
Layer0
10
7357.007839166
20
-1767.56249458869
30
0.0
11
7353.19379222365
21
-1762.59193184021
31
0.0
  0
LINE
 8
Layer0
10
7419.50547017181
20
-1768.56249458868
30
0.0
11
7416.5054701718
21
-1768.56249458868
31
0.0
  0
LINE
 8
Layer0
10
7403.50547017181
20
-1738.56249458869
30
0.0
11
7403.50547017181
21
-1735.56249458869
31
0.0
  0
LINE
 8
Layer0
10
7223.50547017181
20
-1735.56249458869
30
0.0
11
7238.50547017181
21
-1735.56249458869
31
0.0
  0
LINE
 8
Layer0
10
7313.50547017181
20
-1735.56249458869
30
0.0
11
7313.50547017181
21
-1738.56249458869
31
0.0
  0
LINE
 8
Layer0
10
7343.50547017181
20
-1735.56249458869
30
0.0
11
7358.50547017182
21
-1735.56249458869
31
0.0
  0
LINE
 8
Layer0
10
7166.50547017181
20
-1753.56249458868
30
0.0
11
7166.50547017181
21
-1735.56249458869
31
0.0
  0
LINE
 8
Layer0
10
7353.19379222365
20
-1796.53305733716
30
0.0
11
7357.007839166
21
-1791.56249458869
31
0.0
  0
LINE
 8
Layer0
10
7163.50547017181
20
-1753.56249458868
30
0.0
11
7163.50547017181
21
-1768.56249458868
31
0.0
  0
LINE
 8
Layer0
10
7208.50547017181
20
-1738.56249458869
30
0.0
11
7223.50547017181
21
-1738.56249458869
31
0.0
  0
LINE
 8
Layer0
10
7336.22322947518
20
-1803.56249458869
30
0.0
11
7342.43488655764
21
-1802.74471441962
31
0.0
  0
LINE
 8
Layer0
10
7313.50547017181
20
-1735.56249458869
30
0.0
11
7328.50547017181
21
-1735.56249458869
31
0.0
  0
LINE
 8
Layer0
10
7298.50547017182
20
-1738.56249458868
30
0.0
11
7313.50547017181
21
-1738.56249458869
31
0.0
  0
LINE
 8
Layer0
10
7373.50547017181
20
-1735.56249458869
30
0.0
11
7388.50547017181
21
-1735.56249458869
31
0.0
  0
LINE
 8
Layer0
10
7313.04100964424
20
-1785.77415167115
30
0.0
11
7315.43861978435
21
-1791.56249458869
31
0.0
  0
LINE
 8
Layer0
10
7324.22322947518
20
-1800.34710427951
30
0.0
11
7330.01157239272
21
-1802.74471441962
31
0.0
  0
LINE
 8
Layer0
10
7238.50547017181
20
-1735.56249458869
30
0.0
11
7238.50547017181
21
-1738.56249458869
31
0.0
  0
LINE
 8
Layer0
10
7163.50547017181
20
-1768.56249458868
30
0.0
11
7166.50547017181
21
-1768.56249458868
31
0.0
  0
LINE
 8
Layer0
10
7298.50547017182
20
-1735.56249458868
30
0.0
11
7298.50547017182
21
-1738.56249458868
31
0.0
  0
LINE
 8
Layer0
10
7324.22322947518
20
-1758.77788489786
30
0.0
11
7319.2526667267
21
-1762.59193184021
31
0.0
  0
LINE
 8
Layer0
10
7268.50547017181
20
-1735.56249458869
30
0.0
11
7268.50547017181
21
-1738.56249458869
31
0.0
  0
LINE
 8
Layer0
10
7343.50547017181
20
-1738.56249458869
30
0.0
11
7343.50547017181
21
-1735.56249458869
31
0.0
  0
LINE
 8
Layer0
10
7388.50547017181
20
-1735.56249458869
30
0.0
11
7388.50547017181
21
-1738.56249458869
31
0.0
  0
LINE
 8
Layer0
10
7268.50547017181
20
-1738.56249458869
30
0.0
11
7283.50547017181
21
-1738.56249458869
31
0.0
  0
LINE
 8
Layer0
10
7178.50547017181
20
-1738.56249458869
30
0.0
11
7193.50547017181
21
-1738.56249458869
31
0.0
  0
LINE
 8
Layer0
10
7312.22322947518
20
-1779.56249458869
30
0.0
11
7313.04100964424
21
-1785.77415167115
31
0.0
  0
LINE
 8
Layer0
10
7419.50547017181
20
-1753.56249458869
30
0.0
11
7416.50547017181
21
-1753.56249458868
31
0.0
  0
LINE
 8
Layer0
10
7342.43488655764
20
-1802.74471441962
30
0.0
11
7348.22322947518
21
-1800.34710427951
31
0.0
 0
ENDSEC
 0
EOF
