 0
SECTION
 2
ENTITIES
  0
LINE
 8
Layer0
10
7299.80686538263
20
-2000.13877959563
30
5.86553028369963e-013
11
7284.80686538263
21
-2000.13877959564
31
5.86553028369963e-013
  0
LINE
 8
Layer0
10
7167.80686538263
20
-2250.13877959563
30
5.86553028369963e-013
11
7182.80686538263
21
-2250.13877959563
31
5.86553028369963e-013
  0
LINE
 8
Layer0
10
7167.80686538263
20
-2060.13877959565
30
5.86553028369963e-013
11
7167.80686538263
21
-2075.13877959565
31
5.86553028369963e-013
  0
LINE
 8
Layer0
10
7167.80686538264
20
-2030.13877959565
30
5.86553028369963e-013
11
7167.80686538263
21
-2045.13877959565
31
5.86553028369963e-013
  0
LINE
 8
Layer0
10
7417.80686538263
20
-2015.13877959563
30
5.86553028369963e-013
11
7417.80686538263
21
-2000.13877959563
31
5.86553028369963e-013
  0
LINE
 8
Layer0
10
7359.80686538263
20
-2000.13877959564
30
5.86553028369963e-013
11
7344.80686538263
21
-2000.13877959564
31
5.86553028369963e-013
  0
LINE
 8
Layer0
10
7407.80686538264
20
-2250.13877959562
30
5.86553028369963e-013
11
7417.80686538263
21
-2250.13877959563
31
5.86553028369963e-013
  0
LINE
 8
Layer0
10
7167.80686538264
20
-2090.13877959565
30
5.86553028369963e-013
11
7167.80686538264
21
-2105.13877959564
31
5.86553028369963e-013
  0
LINE
 8
Layer0
10
7287.80686538263
20
-2250.13877959563
30
5.86553028369963e-013
11
7302.80686538263
21
-2250.13877959563
31
5.86553028369963e-013
  0
LINE
 8
Layer0
10
7194.80686538263
20
-1997.13877959563
30
5.86553028369963e-013
11
7179.80686538263
21
-1997.13877959564
31
5.86553028369963e-013
  0
LINE
 8
Layer0
10
7224.80686538263
20
-1997.13877959564
30
5.86553028369963e-013
11
7209.80686538263
21
-1997.13877959564
31
5.86553028369963e-013
  0
LINE
 8
Layer0
10
7344.80686538263
20
-1997.13877959564
30
5.86553028369963e-013
11
7329.80686538263
21
-1997.13877959564
31
5.86553028369963e-013
  0
LINE
 8
Layer0
10
7314.80686538263
20
-1997.13877959564
30
5.86553028369963e-013
11
7299.80686538263
21
-1997.13877959563
31
5.86553028369963e-013
  0
LINE
 8
Layer0
10
7374.80686538263
20
-1997.13877959564
30
5.86553028369963e-013
11
7359.80686538263
21
-1997.13877959564
31
5.86553028369963e-013
  0
LINE
 8
Layer0
10
7404.80686538263
20
-1997.13877959564
30
5.86553028369963e-013
11
7389.80686538263
21
-1997.13877959564
31
5.86553028369963e-013
  0
LINE
 8
Layer0
10
7284.80686538263
20
-1997.13877959564
30
5.86553028369963e-013
11
7269.80686538263
21
-1997.13877959564
31
5.86553028369963e-013
  0
LINE
 8
Layer0
10
7254.80686538263
20
-1997.13877959564
30
5.86553028369963e-013
11
7239.80686538263
21
-1997.13877959564
31
5.86553028369963e-013
  0
LINE
 8
Layer0
10
7404.80686538263
20
-2000.13877959564
30
5.86553028369963e-013
11
7404.80686538263
21
-1997.13877959564
31
5.86553028369963e-013
  0
LINE
 8
Layer0
10
7314.80686538263
20
-1997.13877959564
30
5.86553028369963e-013
11
7314.80686538263
21
-2000.13877959564
31
5.86553028369963e-013
  0
LINE
 8
Layer0
10
7299.80686538263
20
-1997.13877959563
30
5.86553028369963e-013
11
7299.80686538263
21
-2000.13877959563
31
5.86553028369963e-013
  0
LINE
 8
Layer0
10
7284.80686538263
20
-2000.13877959564
30
5.86553028369963e-013
11
7284.80686538263
21
-1997.13877959564
31
5.86553028369963e-013
  0
LINE
 8
Layer0
10
7269.80686538263
20
-1997.13877959564
30
5.86553028369963e-013
11
7269.80686538263
21
-2000.13877959564
31
5.86553028369963e-013
  0
LINE
 8
Layer0
10
7167.80686538264
20
-2150.13877959565
30
5.86553028369963e-013
11
7167.80686538263
21
-2165.13877959565
31
5.86553028369963e-013
  0
LINE
 8
Layer0
10
7167.80686538263
20
-2240.13877959565
30
5.86553028369963e-013
11
7167.80686538263
21
-2250.13877959563
31
5.86553028369963e-013
  0
LINE
 8
Layer0
10
7359.80686538263
20
-1997.13877959564
30
5.86553028369963e-013
11
7359.80686538263
21
-2000.13877959564
31
5.86553028369963e-013
  0
LINE
 8
Layer0
10
7344.80686538263
20
-2000.13877959564
30
5.86553028369963e-013
11
7344.80686538263
21
-1997.13877959564
31
5.86553028369963e-013
  0
LINE
 8
Layer0
10
7179.80686538263
20
-1997.13877959564
30
5.86553028369963e-013
11
7179.80686538263
21
-2000.13877959564
31
5.86553028369963e-013
  0
LINE
 8
Layer0
10
7194.80686538263
20
-1997.13877959563
30
5.86553028369963e-013
11
7194.80686538263
21
-2000.13877959564
31
5.86553028369963e-013
  0
LINE
 8
Layer0
10
7209.80686538263
20
-1997.13877959564
30
5.86553028369963e-013
11
7209.80686538263
21
-2000.13877959564
31
5.86553028369963e-013
  0
LINE
 8
Layer0
10
7167.80686538263
20
-2210.13877959565
30
5.86553028369963e-013
11
7167.80686538263
21
-2225.13877959564
31
5.86553028369963e-013
  0
LINE
 8
Layer0
10
7179.80686538263
20
-2000.13877959564
30
5.86553028369963e-013
11
7167.80686538263
21
-2000.13877959564
31
5.86553028369963e-013
  0
LINE
 8
Layer0
10
7209.80686538263
20
-2000.13877959564
30
5.86553028369963e-013
11
7194.80686538263
21
-2000.13877959564
31
5.86553028369963e-013
  0
LINE
 8
Layer0
10
7329.80686538263
20
-2000.13877959564
30
5.86553028369963e-013
11
7314.80686538263
21
-2000.13877959564
31
5.86553028369963e-013
  0
LINE
 8
Layer0
10
7269.80686538263
20
-2000.13877959564
30
5.86553028369963e-013
11
7254.80686538263
21
-2000.13877959564
31
5.86553028369963e-013
  0
LINE
 8
Layer0
10
7197.80686538263
20
-2250.13877959563
30
5.86553028369963e-013
11
7212.80686538264
21
-2250.13877959563
31
5.86553028369963e-013
  0
LINE
 8
Layer0
10
7239.80686538263
20
-2000.13877959564
30
5.86553028369963e-013
11
7224.80686538263
21
-2000.13877959564
31
5.86553028369963e-013
  0
LINE
 8
Layer0
10
7404.80686538263
20
-2000.13877959564
30
5.86553028369963e-013
11
7417.80686538263
21
-2000.13877959563
31
5.86553028369963e-013
  0
LINE
 8
Layer0
10
7417.80686538262
20
-2165.13877959563
30
5.86553028369963e-013
11
7417.80686538262
21
-2150.13877959564
31
5.86553028369963e-013
  0
LINE
 8
Layer0
10
7227.80686538263
20
-2250.13877959563
30
5.86553028369963e-013
11
7242.80686538263
21
-2250.13877959563
31
5.86553028369963e-013
  0
LINE
 8
Layer0
10
7167.80686538263
20
-2000.13877959564
30
5.86553028369963e-013
11
7167.80686538263
21
-2015.13877959565
31
5.86553028369963e-013
  0
LINE
 8
Layer0
10
7224.80686538263
20
-2000.13877959564
30
5.86553028369963e-013
11
7224.80686538263
21
-1997.13877959564
31
5.86553028369963e-013
  0
LINE
 8
Layer0
10
7167.80686538263
20
-2120.13877959565
30
5.86553028369963e-013
11
7167.80686538263
21
-2135.13877959565
31
5.86553028369963e-013
  0
LINE
 8
Layer0
10
7167.80686538264
20
-2180.13877959565
30
5.86553028369963e-013
11
7167.80686538263
21
-2195.13877959565
31
5.86553028369963e-013
  0
LINE
 8
Layer0
10
7317.80686538262
20
-2250.13877959563
30
5.86553028369963e-013
11
7332.80686538263
21
-2250.13877959563
31
5.86553028369963e-013
  0
LINE
 8
Layer0
10
7254.80686538263
20
-1997.13877959564
30
5.86553028369963e-013
11
7254.80686538263
21
-2000.13877959564
31
5.86553028369963e-013
  0
LINE
 8
Layer0
10
7239.80686538263
20
-1997.13877959564
30
5.86553028369963e-013
11
7239.80686538263
21
-2000.13877959564
31
5.86553028369963e-013
  0
LINE
 8
Layer0
10
7389.80686538263
20
-1997.13877959564
30
5.86553028369963e-013
11
7389.80686538263
21
-2000.13877959564
31
5.86553028369963e-013
  0
LINE
 8
Layer0
10
7374.80686538263
20
-1997.13877959564
30
5.86553028369963e-013
11
7374.80686538263
21
-2000.13877959564
31
5.86553028369963e-013
  0
LINE
 8
Layer0
10
7329.80686538263
20
-1997.13877959564
30
5.86553028369963e-013
11
7329.80686538263
21
-2000.13877959564
31
5.86553028369963e-013
  0
LINE
 8
Layer0
10
7377.80686538263
20
-2250.13877959562
30
5.86553028369963e-013
11
7392.80686538263
21
-2250.13877959562
31
5.86553028369963e-013
  0
LINE
 8
Layer0
10
7417.80686538263
20
-2250.13877959563
30
5.86553028369963e-013
11
7417.80686538263
21
-2240.13877959564
31
5.86553028369963e-013
  0
LINE
 8
Layer0
10
7417.80686538263
20
-2075.13877959564
30
5.86553028369963e-013
11
7417.80686538263
21
-2060.13877959563
31
5.86553028369963e-013
  0
LINE
 8
Layer0
10
7417.80686538263
20
-2045.13877959563
30
5.86553028369963e-013
11
7417.80686538263
21
-2030.13877959564
31
5.86553028369963e-013
  0
LINE
 8
Layer0
10
7417.80686538263
20
-2105.13877959563
30
5.86553028369963e-013
11
7417.80686538263
21
-2090.13877959564
31
5.86553028369963e-013
  0
LINE
 8
Layer0
10
7417.80686538263
20
-2195.13877959564
30
5.86553028369963e-013
11
7417.80686538262
21
-2180.13877959564
31
5.86553028369963e-013
  0
LINE
 8
Layer0
10
7417.80686538263
20
-2225.13877959563
30
5.86553028369963e-013
11
7417.80686538263
21
-2210.13877959564
31
5.86553028369963e-013
  0
LINE
 8
Layer0
10
7417.80686538263
20
-2135.13877959564
30
5.86553028369963e-013
11
7417.80686538263
21
-2120.13877959564
31
5.86553028369963e-013
  0
LINE
 8
Layer0
10
7420.80686538262
20
-2120.13877959564
30
5.86553028369963e-013
11
7420.80686538263
21
-2105.13877959564
31
5.86553028369963e-013
  0
LINE
 8
Layer0
10
7420.80686538263
20
-2195.13877959564
30
5.86553028369963e-013
11
7417.80686538263
21
-2195.13877959564
31
5.86553028369963e-013
  0
LINE
 8
Layer0
10
7420.80686538262
20
-2180.13877959564
30
5.86553028369963e-013
11
7420.80686538262
21
-2165.13877959564
31
5.86553028369963e-013
  0
LINE
 8
Layer0
10
7420.80686538263
20
-2240.13877959564
30
5.86553028369963e-013
11
7420.80686538263
21
-2225.13877959563
31
5.86553028369963e-013
  0
LINE
 8
Layer0
10
7420.80686538263
20
-2210.13877959564
30
5.86553028369963e-013
11
7420.80686538263
21
-2195.13877959564
31
5.86553028369963e-013
  0
LINE
 8
Layer0
10
7417.80686538263
20
-2240.13877959564
30
5.86553028369963e-013
11
7420.80686538263
21
-2240.13877959564
31
5.86553028369963e-013
  0
LINE
 8
Layer0
10
7420.80686538263
20
-2225.13877959563
30
5.86553028369963e-013
11
7417.80686538263
21
-2225.13877959563
31
5.86553028369963e-013
  0
LINE
 8
Layer0
10
7420.80686538262
20
-2165.13877959564
30
5.86553028369963e-013
11
7417.80686538262
21
-2165.13877959563
31
5.86553028369963e-013
  0
LINE
 8
Layer0
10
7417.80686538262
20
-2180.13877959564
30
5.86553028369963e-013
11
7420.80686538262
21
-2180.13877959564
31
5.86553028369963e-013
  0
LINE
 8
Layer0
10
7420.80686538263
20
-2210.13877959564
30
5.86553028369963e-013
11
7417.80686538263
21
-2210.13877959564
31
5.86553028369963e-013
  0
LINE
 8
Layer0
10
7420.80686538263
20
-2045.13877959564
30
5.86553028369963e-013
11
7417.80686538263
21
-2045.13877959563
31
5.86553028369963e-013
  0
LINE
 8
Layer0
10
7420.80686538263
20
-2135.13877959563
30
5.86553028369963e-013
11
7417.80686538263
21
-2135.13877959564
31
5.86553028369963e-013
  0
LINE
 8
Layer0
10
7420.80686538263
20
-2030.13877959564
30
5.86553028369963e-013
11
7420.80686538263
21
-2015.13877959563
31
5.86553028369963e-013
  0
LINE
 8
Layer0
10
7420.80686538263
20
-2150.13877959564
30
5.86553028369963e-013
11
7420.80686538263
21
-2135.13877959563
31
5.86553028369963e-013
  0
LINE
 8
Layer0
10
7420.80686538263
20
-2090.13877959564
30
5.86553028369963e-013
11
7420.80686538263
21
-2075.13877959563
31
5.86553028369963e-013
  0
LINE
 8
Layer0
10
7420.80686538263
20
-2060.13877959563
30
5.86553028369963e-013
11
7420.80686538263
21
-2045.13877959564
31
5.86553028369963e-013
  0
LINE
 8
Layer0
10
7420.80686538262
20
-2120.13877959564
30
5.86553028369963e-013
11
7417.80686538263
21
-2120.13877959564
31
5.86553028369963e-013
  0
LINE
 8
Layer0
10
7420.80686538263
20
-2105.13877959564
30
5.86553028369963e-013
11
7417.80686538263
21
-2105.13877959563
31
5.86553028369963e-013
  0
LINE
 8
Layer0
10
7417.80686538263
20
-2090.13877959564
30
5.86553028369963e-013
11
7420.80686538263
21
-2090.13877959564
31
5.86553028369963e-013
  0
LINE
 8
Layer0
10
7420.80686538263
20
-2075.13877959563
30
5.86553028369963e-013
11
7417.80686538263
21
-2075.13877959564
31
5.86553028369963e-013
  0
LINE
 8
Layer0
10
7417.80686538262
20
-2150.13877959564
30
5.86553028369963e-013
11
7420.80686538263
21
-2150.13877959564
31
5.86553028369963e-013
  0
LINE
 8
Layer0
10
7420.80686538263
20
-2015.13877959563
30
5.86553028369963e-013
11
7417.80686538263
21
-2015.13877959563
31
5.86553028369963e-013
  0
LINE
 8
Layer0
10
7417.80686538263
20
-2030.13877959564
30
5.86553028369963e-013
11
7420.80686538263
21
-2030.13877959564
31
5.86553028369963e-013
  0
LINE
 8
Layer0
10
7420.80686538263
20
-2060.13877959563
30
5.86553028369963e-013
11
7417.80686538263
21
-2060.13877959563
31
5.86553028369963e-013
  0
LINE
 8
Layer0
10
7392.80686538263
20
-2253.13877959563
30
5.86553028369963e-013
11
7407.80686538263
21
-2253.13877959563
31
5.86553028369963e-013
  0
LINE
 8
Layer0
10
7362.80686538263
20
-2253.13877959562
30
5.86553028369963e-013
11
7377.80686538263
21
-2253.13877959562
31
5.86553028369963e-013
  0
LINE
 8
Layer0
10
7242.80686538263
20
-2253.13877959563
30
5.86553028369963e-013
11
7257.80686538263
21
-2253.13877959563
31
5.86553028369963e-013
  0
LINE
 8
Layer0
10
7272.80686538263
20
-2253.13877959562
30
5.86553028369963e-013
11
7287.80686538263
21
-2253.13877959563
31
5.86553028369963e-013
  0
LINE
 8
Layer0
10
7302.80686538263
20
-2250.13877959563
30
5.86553028369963e-013
11
7302.80686538262
21
-2253.13877959563
31
5.86553028369963e-013
  0
LINE
 8
Layer0
10
7212.80686538263
20
-2253.13877959563
30
5.86553028369963e-013
11
7227.80686538263
21
-2253.13877959563
31
5.86553028369963e-013
  0
LINE
 8
Layer0
10
7182.80686538263
20
-2253.13877959563
30
5.86553028369963e-013
11
7197.80686538263
21
-2253.13877959563
31
5.86553028369963e-013
  0
LINE
 8
Layer0
10
7302.80686538262
20
-2253.13877959563
30
5.86553028369963e-013
11
7317.80686538263
21
-2253.13877959562
31
5.86553028369963e-013
  0
LINE
 8
Layer0
10
7332.80686538263
20
-2253.13877959563
30
5.86553028369963e-013
11
7347.80686538263
21
-2253.13877959562
31
5.86553028369963e-013
  0
LINE
 8
Layer0
10
7182.80686538263
20
-2250.13877959563
30
5.86553028369963e-013
11
7182.80686538263
21
-2253.13877959563
31
5.86553028369963e-013
  0
LINE
 8
Layer0
10
7272.80686538263
20
-2253.13877959562
30
5.86553028369963e-013
11
7272.80686538263
21
-2250.13877959563
31
5.86553028369963e-013
  0
LINE
 8
Layer0
10
7287.80686538263
20
-2253.13877959563
30
5.86553028369963e-013
11
7287.80686538263
21
-2250.13877959563
31
5.86553028369963e-013
  0
LINE
 8
Layer0
10
7317.80686538263
20
-2253.13877959562
30
5.86553028369963e-013
11
7317.80686538262
21
-2250.13877959563
31
5.86553028369963e-013
  0
LINE
 8
Layer0
10
7227.80686538263
20
-2253.13877959563
30
5.86553028369963e-013
11
7227.80686538263
21
-2250.13877959563
31
5.86553028369963e-013
  0
LINE
 8
Layer0
10
7242.80686538263
20
-2250.13877959563
30
5.86553028369963e-013
11
7242.80686538263
21
-2253.13877959563
31
5.86553028369963e-013
  0
LINE
 8
Layer0
10
7407.80686538263
20
-2253.13877959563
30
5.86553028369963e-013
11
7407.80686538264
21
-2250.13877959562
31
5.86553028369963e-013
  0
LINE
 8
Layer0
10
7392.80686538263
20
-2253.13877959563
30
5.86553028369963e-013
11
7392.80686538263
21
-2250.13877959562
31
5.86553028369963e-013
  0
LINE
 8
Layer0
10
7377.80686538263
20
-2253.13877959562
30
5.86553028369963e-013
11
7377.80686538263
21
-2250.13877959562
31
5.86553028369963e-013
  0
LINE
 8
Layer0
10
7362.80686538263
20
-2250.13877959562
30
5.86553028369963e-013
11
7362.80686538263
21
-2253.13877959562
31
5.86553028369963e-013
  0
LINE
 8
Layer0
10
7332.80686538263
20
-2253.13877959563
30
5.86553028369963e-013
11
7332.80686538263
21
-2250.13877959563
31
5.86553028369963e-013
  0
LINE
 8
Layer0
10
7347.80686538263
20
-2253.13877959562
30
5.86553028369963e-013
11
7347.80686538263
21
-2250.13877959563
31
5.86553028369963e-013
  0
LINE
 8
Layer0
10
7197.80686538263
20
-2253.13877959563
30
5.86553028369963e-013
11
7197.80686538263
21
-2250.13877959563
31
5.86553028369963e-013
  0
LINE
 8
Layer0
10
7212.80686538263
20
-2253.13877959563
30
5.86553028369963e-013
11
7212.80686538264
21
-2250.13877959563
31
5.86553028369963e-013
  0
LINE
 8
Layer0
10
7257.80686538263
20
-2253.13877959563
30
5.86553028369963e-013
11
7257.80686538263
21
-2250.13877959563
31
5.86553028369963e-013
  0
LINE
 8
Layer0
10
7389.80686538263
20
-2000.13877959564
30
5.86553028369963e-013
11
7374.80686538263
21
-2000.13877959564
31
5.86553028369963e-013
  0
LINE
 8
Layer0
10
7347.80686538263
20
-2250.13877959563
30
5.86553028369963e-013
11
7362.80686538263
21
-2250.13877959562
31
5.86553028369963e-013
  0
LINE
 8
Layer0
10
7164.80686538263
20
-2060.13877959564
30
5.86553028369963e-013
11
7167.80686538263
21
-2060.13877959565
31
5.86553028369963e-013
  0
LINE
 8
Layer0
10
7164.80686538264
20
-2075.13877959565
30
5.86553028369963e-013
11
7164.80686538264
21
-2090.13877959565
31
5.86553028369963e-013
  0
LINE
 8
Layer0
10
7164.80686538263
20
-2015.13877959564
30
5.86553028369963e-013
11
7164.80686538263
21
-2030.13877959564
31
5.86553028369963e-013
  0
LINE
 8
Layer0
10
7164.80686538263
20
-2045.13877959565
30
5.86553028369963e-013
11
7164.80686538263
21
-2060.13877959564
31
5.86553028369963e-013
  0
LINE
 8
Layer0
10
7167.80686538263
20
-2015.13877959565
30
5.86553028369963e-013
11
7164.80686538263
21
-2015.13877959564
31
5.86553028369963e-013
  0
LINE
 8
Layer0
10
7164.80686538263
20
-2030.13877959564
30
5.86553028369963e-013
11
7167.80686538264
21
-2030.13877959565
31
5.86553028369963e-013
  0
LINE
 8
Layer0
10
7164.80686538264
20
-2090.13877959565
30
5.86553028369963e-013
11
7167.80686538264
21
-2090.13877959565
31
5.86553028369963e-013
  0
LINE
 8
Layer0
10
7167.80686538263
20
-2075.13877959565
30
5.86553028369963e-013
11
7164.80686538264
21
-2075.13877959565
31
5.86553028369963e-013
  0
LINE
 8
Layer0
10
7164.80686538263
20
-2045.13877959565
30
5.86553028369963e-013
11
7167.80686538263
21
-2045.13877959565
31
5.86553028369963e-013
  0
LINE
 8
Layer0
10
7164.80686538263
20
-2210.13877959564
30
5.86553028369963e-013
11
7167.80686538263
21
-2210.13877959565
31
5.86553028369963e-013
  0
LINE
 8
Layer0
10
7164.80686538263
20
-2120.13877959565
30
5.86553028369963e-013
11
7167.80686538263
21
-2120.13877959565
31
5.86553028369963e-013
  0
LINE
 8
Layer0
10
7164.80686538263
20
-2225.13877959565
30
5.86553028369963e-013
11
7164.80686538264
21
-2240.13877959565
31
5.86553028369963e-013
  0
LINE
 8
Layer0
10
7164.80686538263
20
-2105.13877959565
30
5.86553028369963e-013
11
7164.80686538263
21
-2120.13877959565
31
5.86553028369963e-013
  0
LINE
 8
Layer0
10
7164.80686538264
20
-2135.13877959565
30
5.86553028369963e-013
11
7164.80686538263
21
-2150.13877959564
31
5.86553028369963e-013
  0
LINE
 8
Layer0
10
7164.80686538263
20
-2165.13877959565
30
5.86553028369963e-013
11
7164.80686538263
21
-2180.13877959565
31
5.86553028369963e-013
  0
LINE
 8
Layer0
10
7164.80686538263
20
-2195.13877959565
30
5.86553028369963e-013
11
7164.80686538263
21
-2210.13877959564
31
5.86553028369963e-013
  0
LINE
 8
Layer0
10
7164.80686538264
20
-2135.13877959565
30
5.86553028369963e-013
11
7167.80686538263
21
-2135.13877959565
31
5.86553028369963e-013
  0
LINE
 8
Layer0
10
7164.80686538263
20
-2150.13877959564
30
5.86553028369963e-013
11
7167.80686538264
21
-2150.13877959565
31
5.86553028369963e-013
  0
LINE
 8
Layer0
10
7167.80686538263
20
-2165.13877959565
30
5.86553028369963e-013
11
7164.80686538263
21
-2165.13877959565
31
5.86553028369963e-013
  0
LINE
 8
Layer0
10
7164.80686538263
20
-2180.13877959565
30
5.86553028369963e-013
11
7167.80686538264
21
-2180.13877959565
31
5.86553028369963e-013
  0
LINE
 8
Layer0
10
7167.80686538264
20
-2105.13877959564
30
5.86553028369963e-013
11
7164.80686538263
21
-2105.13877959565
31
5.86553028369963e-013
  0
LINE
 8
Layer0
10
7164.80686538264
20
-2240.13877959565
30
5.86553028369963e-013
11
7167.80686538263
21
-2240.13877959565
31
5.86553028369963e-013
  0
LINE
 8
Layer0
10
7167.80686538263
20
-2225.13877959564
30
5.86553028369963e-013
11
7164.80686538263
21
-2225.13877959565
31
5.86553028369963e-013
  0
LINE
 8
Layer0
10
7164.80686538263
20
-2195.13877959565
30
5.86553028369963e-013
11
7167.80686538263
21
-2195.13877959565
31
5.86553028369963e-013
  0
LINE
 8
Layer0
10
7257.80686538263
20
-2250.13877959563
30
5.86553028369963e-013
11
7272.80686538263
21
-2250.13877959563
31
5.86553028369963e-013
 0
ENDSEC
 0
EOF
