 0
SECTION
 2
ENTITIES
  0
LINE
 8
Layer0
10
6428.0982947803
20
-2255.16362584135
30
0.0
11
6443.09829478031
21
-2255.16362584135
31
0.0
  0
LINE
 8
Layer0
10
6488.0982947803
20
-2258.16362584135
30
0.0
11
6488.0982947803
21
-2255.16362584135
31
0.0
  0
LINE
 8
Layer0
10
6578.0982947803
20
-2255.16362584135
30
0.0
11
6593.0982947803
21
-2255.16362584135
31
0.0
  0
LINE
 8
Layer0
10
6410.0982947803
20
-2255.16362584136
30
0.0
11
6413.0982947803
21
-2255.16362584136
31
0.0
  0
LINE
 8
Layer0
10
6645.0982947803
20
-2020.16362584136
30
0.0
11
6645.0982947803
21
-2005.16362584136
31
0.0
  0
LINE
 8
Layer0
10
6587.09829478031
20
-2005.16362584136
30
0.0
11
6572.0982947803
21
-2005.16362584136
31
0.0
  0
LINE
 8
Layer0
10
6395.09829478031
20
-2095.16362584138
30
0.0
11
6395.09829478031
21
-2110.16362584137
31
0.0
  0
LINE
 8
Layer0
10
6422.0982947803
20
-2002.16362584136
30
0.0
11
6407.0982947803
21
-2002.16362584136
31
0.0
  0
LINE
 8
Layer0
10
6452.0982947803
20
-2002.16362584136
30
0.0
11
6437.0982947803
21
-2002.16362584136
31
0.0
  0
LINE
 8
Layer0
10
6572.0982947803
20
-2002.16362584136
30
0.0
11
6557.0982947803
21
-2002.16362584136
31
0.0
  0
LINE
 8
Layer0
10
6542.0982947803
20
-2002.16362584136
30
0.0
11
6527.0982947803
21
-2002.16362584136
31
0.0
  0
LINE
 8
Layer0
10
6437.0982947803
20
-2002.16362584136
30
0.0
11
6437.0982947803
21
-2005.16362584136
31
0.0
  0
LINE
 8
Layer0
10
6602.0982947803
20
-2002.16362584136
30
0.0
11
6587.09829478031
21
-2002.16362584136
31
0.0
  0
LINE
 8
Layer0
10
6632.0982947803
20
-2002.16362584136
30
0.0
11
6617.0982947803
21
-2002.16362584136
31
0.0
  0
LINE
 8
Layer0
10
6512.09829478031
20
-2002.16362584136
30
0.0
11
6497.0982947803
21
-2002.16362584136
31
0.0
  0
LINE
 8
Layer0
10
6482.0982947803
20
-2002.16362584136
30
0.0
11
6467.0982947803
21
-2002.16362584136
31
0.0
  0
LINE
 8
Layer0
10
6557.0982947803
20
-2002.16362584136
30
0.0
11
6557.0982947803
21
-2005.16362584136
31
0.0
  0
LINE
 8
Layer0
10
6645.0982947803
20
-2080.16362584136
30
0.0
11
6645.0982947803
21
-2065.16362584136
31
0.0
  0
LINE
 8
Layer0
10
6645.0982947803
20
-2050.16362584136
30
0.0
11
6645.0982947803
21
-2035.16362584136
31
0.0
  0
LINE
 8
Layer0
10
6542.0982947803
20
-2002.16362584136
30
0.0
11
6542.0982947803
21
-2005.16362584136
31
0.0
  0
LINE
 8
Layer0
10
6527.0982947803
20
-2002.16362584136
30
0.0
11
6527.0982947803
21
-2005.16362584136
31
0.0
  0
LINE
 8
Layer0
10
6512.0982947803
20
-2005.16362584136
30
0.0
11
6512.09829478031
21
-2002.16362584136
31
0.0
  0
LINE
 8
Layer0
10
6497.0982947803
20
-2002.16362584136
30
0.0
11
6497.0982947803
21
-2005.16362584136
31
0.0
  0
LINE
 8
Layer0
10
6395.09829478031
20
-2155.16362584138
30
0.0
11
6395.09829478031
21
-2170.16362584138
31
0.0
  0
LINE
 8
Layer0
10
6395.0982947803
20
-2245.16362584138
30
0.0
11
6395.0982947803
21
-2255.16362584136
31
0.0
  0
LINE
 8
Layer0
10
6587.09829478031
20
-2002.16362584136
30
0.0
11
6587.09829478031
21
-2005.16362584136
31
0.0
  0
LINE
 8
Layer0
10
6572.0982947803
20
-2005.16362584136
30
0.0
11
6572.0982947803
21
-2002.16362584136
31
0.0
  0
LINE
 8
Layer0
10
6407.0982947803
20
-2002.16362584136
30
0.0
11
6407.0982947803
21
-2005.16362584136
31
0.0
  0
LINE
 8
Layer0
10
6422.0982947803
20
-2002.16362584136
30
0.0
11
6422.0982947803
21
-2005.16362584136
31
0.0
  0
LINE
 8
Layer0
10
6645.0982947803
20
-2255.16362584136
30
0.0
11
6645.0982947803
21
-2245.16362584136
31
0.0
  0
LINE
 8
Layer0
10
6395.0982947803
20
-2215.16362584137
30
0.0
11
6395.0982947803
21
-2230.16362584137
31
0.0
  0
LINE
 8
Layer0
10
6407.0982947803
20
-2005.16362584136
30
0.0
11
6395.0982947803
21
-2005.16362584136
31
0.0
  0
LINE
 8
Layer0
10
6563.09829478031
20
-2258.16362584135
30
0.0
11
6563.0982947803
21
-2255.16362584135
31
0.0
  0
LINE
 8
Layer0
10
6578.0982947803
20
-2258.16362584135
30
0.0
11
6578.0982947803
21
-2255.16362584135
31
0.0
  0
LINE
 8
Layer0
10
6473.0982947803
20
-2255.16362584135
30
0.0
11
6473.0982947803
21
-2258.16362584135
31
0.0
  0
LINE
 8
Layer0
10
6638.0982947803
20
-2258.16362584135
30
0.0
11
6638.09829478031
21
-2255.16362584135
31
0.0
  0
LINE
 8
Layer0
10
6608.09829478031
20
-2255.16362584135
30
0.0
11
6623.0982947803
21
-2255.16362584135
31
0.0
  0
LINE
 8
Layer0
10
6593.0982947803
20
-2255.16362584135
30
0.0
11
6593.0982947803
21
-2258.16362584135
31
0.0
  0
LINE
 8
Layer0
10
6533.0982947803
20
-2255.16362584135
30
0.0
11
6533.09829478029
21
-2258.16362584136
31
0.0
  0
LINE
 8
Layer0
10
6593.0982947803
20
-2258.16362584135
30
0.0
11
6608.0982947803
21
-2258.16362584135
31
0.0
  0
LINE
 8
Layer0
10
6437.0982947803
20
-2005.16362584136
30
0.0
11
6422.0982947803
21
-2005.16362584136
31
0.0
  0
LINE
 8
Layer0
10
6557.0982947803
20
-2005.16362584136
30
0.0
11
6542.0982947803
21
-2005.16362584136
31
0.0
  0
LINE
 8
Layer0
10
6497.0982947803
20
-2005.16362584136
30
0.0
11
6482.0982947803
21
-2005.16362584136
31
0.0
  0
LINE
 8
Layer0
10
6467.0982947803
20
-2005.16362584136
30
0.0
11
6452.0982947803
21
-2005.16362584136
31
0.0
  0
LINE
 8
Layer0
10
6632.0982947803
20
-2005.16362584136
30
0.0
11
6645.0982947803
21
-2005.16362584136
31
0.0
  0
LINE
 8
Layer0
10
6645.09829478029
20
-2170.16362584136
30
0.0
11
6645.0982947803
21
-2155.16362584136
31
0.0
  0
LINE
 8
Layer0
10
6395.0982947803
20
-2005.16362584136
30
0.0
11
6395.0982947803
21
-2020.16362584137
31
0.0
  0
LINE
 8
Layer0
10
6452.0982947803
20
-2005.16362584136
30
0.0
11
6452.0982947803
21
-2002.16362584136
31
0.0
  0
LINE
 8
Layer0
10
6395.0982947803
20
-2125.16362584137
30
0.0
11
6395.0982947803
21
-2140.16362584137
31
0.0
  0
LINE
 8
Layer0
10
6395.09829478031
20
-2185.16362584137
30
0.0
11
6395.0982947803
21
-2200.16362584137
31
0.0
  0
LINE
 8
Layer0
10
6482.0982947803
20
-2002.16362584136
30
0.0
11
6482.0982947803
21
-2005.16362584136
31
0.0
  0
LINE
 8
Layer0
10
6467.0982947803
20
-2002.16362584136
30
0.0
11
6467.0982947803
21
-2005.16362584136
31
0.0
  0
LINE
 8
Layer0
10
6617.0982947803
20
-2002.16362584136
30
0.0
11
6617.0982947803
21
-2005.16362584136
31
0.0
  0
LINE
 8
Layer0
10
6602.0982947803
20
-2002.16362584136
30
0.0
11
6602.0982947803
21
-2005.16362584136
31
0.0
  0
LINE
 8
Layer0
10
6645.0982947803
20
-2110.16362584136
30
0.0
11
6645.0982947803
21
-2095.16362584136
31
0.0
  0
LINE
 8
Layer0
10
6645.0982947803
20
-2200.16362584136
30
0.0
11
6645.09829478029
21
-2185.16362584136
31
0.0
  0
LINE
 8
Layer0
10
6645.0982947803
20
-2230.16362584136
30
0.0
11
6645.0982947803
21
-2215.16362584136
31
0.0
  0
LINE
 8
Layer0
10
6645.0982947803
20
-2140.16362584136
30
0.0
11
6645.0982947803
21
-2125.16362584136
31
0.0
  0
LINE
 8
Layer0
10
6648.0982947803
20
-2125.16362584136
30
0.0
11
6648.0982947803
21
-2110.16362584136
31
0.0
  0
LINE
 8
Layer0
10
6648.0982947803
20
-2200.16362584136
30
0.0
11
6645.0982947803
21
-2200.16362584136
31
0.0
  0
LINE
 8
Layer0
10
6648.09829478029
20
-2185.16362584136
30
0.0
11
6648.0982947803
21
-2170.16362584136
31
0.0
  0
LINE
 8
Layer0
10
6648.0982947803
20
-2245.16362584136
30
0.0
11
6648.0982947803
21
-2230.16362584136
31
0.0
  0
LINE
 8
Layer0
10
6648.0982947803
20
-2215.16362584136
30
0.0
11
6648.0982947803
21
-2200.16362584136
31
0.0
  0
LINE
 8
Layer0
10
6645.0982947803
20
-2245.16362584136
30
0.0
11
6648.0982947803
21
-2245.16362584136
31
0.0
  0
LINE
 8
Layer0
10
6648.0982947803
20
-2230.16362584136
30
0.0
11
6645.0982947803
21
-2230.16362584136
31
0.0
  0
LINE
 8
Layer0
10
6648.0982947803
20
-2170.16362584136
30
0.0
11
6645.09829478029
21
-2170.16362584136
31
0.0
  0
LINE
 8
Layer0
10
6645.09829478029
20
-2185.16362584136
30
0.0
11
6648.09829478029
21
-2185.16362584136
31
0.0
  0
LINE
 8
Layer0
10
6648.0982947803
20
-2215.16362584136
30
0.0
11
6645.0982947803
21
-2215.16362584136
31
0.0
  0
LINE
 8
Layer0
10
6648.0982947803
20
-2050.16362584136
30
0.0
11
6645.0982947803
21
-2050.16362584136
31
0.0
  0
LINE
 8
Layer0
10
6648.0982947803
20
-2140.16362584136
30
0.0
11
6645.0982947803
21
-2140.16362584136
31
0.0
  0
LINE
 8
Layer0
10
6648.0982947803
20
-2035.16362584136
30
0.0
11
6648.0982947803
21
-2020.16362584136
31
0.0
  0
LINE
 8
Layer0
10
6648.0982947803
20
-2155.16362584136
30
0.0
11
6648.0982947803
21
-2140.16362584136
31
0.0
  0
LINE
 8
Layer0
10
6648.0982947803
20
-2095.16362584136
30
0.0
11
6648.0982947803
21
-2080.16362584136
31
0.0
  0
LINE
 8
Layer0
10
6648.0982947803
20
-2065.16362584136
30
0.0
11
6648.0982947803
21
-2050.16362584136
31
0.0
  0
LINE
 8
Layer0
10
6648.0982947803
20
-2125.16362584136
30
0.0
11
6645.0982947803
21
-2125.16362584136
31
0.0
  0
LINE
 8
Layer0
10
6648.0982947803
20
-2110.16362584136
30
0.0
11
6645.0982947803
21
-2110.16362584136
31
0.0
  0
LINE
 8
Layer0
10
6645.0982947803
20
-2095.16362584136
30
0.0
11
6648.0982947803
21
-2095.16362584136
31
0.0
  0
LINE
 8
Layer0
10
6648.0982947803
20
-2080.16362584136
30
0.0
11
6645.0982947803
21
-2080.16362584136
31
0.0
  0
LINE
 8
Layer0
10
6645.0982947803
20
-2155.16362584136
30
0.0
11
6648.0982947803
21
-2155.16362584136
31
0.0
  0
LINE
 8
Layer0
10
6648.0982947803
20
-2020.16362584136
30
0.0
11
6645.0982947803
21
-2020.16362584136
31
0.0
  0
LINE
 8
Layer0
10
6645.0982947803
20
-2035.16362584136
30
0.0
11
6648.0982947803
21
-2035.16362584136
31
0.0
  0
LINE
 8
Layer0
10
6648.0982947803
20
-2065.16362584136
30
0.0
11
6645.0982947803
21
-2065.16362584136
31
0.0
  0
LINE
 8
Layer0
10
6392.0982947803
20
-2230.16362584137
30
0.0
11
6392.09829478031
21
-2245.16362584137
31
0.0
  0
LINE
 8
Layer0
10
6392.0982947803
20
-2110.16362584138
30
0.0
11
6392.09829478031
21
-2125.16362584138
31
0.0
  0
LINE
 8
Layer0
10
6392.09829478031
20
-2140.16362584137
30
0.0
11
6392.09829478031
21
-2155.16362584137
31
0.0
  0
LINE
 8
Layer0
10
6392.0982947803
20
-2170.16362584137
30
0.0
11
6392.0982947803
21
-2185.16362584137
31
0.0
  0
LINE
 8
Layer0
10
6392.0982947803
20
-2200.16362584137
30
0.0
11
6392.0982947803
21
-2215.16362584137
31
0.0
  0
LINE
 8
Layer0
10
6488.0982947803
20
-2255.16362584135
30
0.0
11
6503.0982947803
21
-2255.16362584135
31
0.0
  0
LINE
 8
Layer0
10
6617.0982947803
20
-2005.16362584136
30
0.0
11
6602.0982947803
21
-2005.16362584136
31
0.0
  0
LINE
 8
Layer0
10
6392.0982947803
20
-2065.16362584137
30
0.0
11
6395.0982947803
21
-2065.16362584137
31
0.0
  0
LINE
 8
Layer0
10
6392.09829478031
20
-2080.16362584138
30
0.0
11
6392.09829478031
21
-2095.16362584137
31
0.0
  0
LINE
 8
Layer0
10
6392.0982947803
20
-2020.16362584137
30
0.0
11
6392.0982947803
21
-2035.16362584137
31
0.0
  0
LINE
 8
Layer0
10
6392.09829478031
20
-2050.16362584138
30
0.0
11
6392.0982947803
21
-2065.16362584137
31
0.0
  0
LINE
 8
Layer0
10
6395.0982947803
20
-2020.16362584137
30
0.0
11
6392.0982947803
21
-2020.16362584137
31
0.0
  0
LINE
 8
Layer0
10
6392.0982947803
20
-2035.16362584137
30
0.0
11
6395.09829478031
21
-2035.16362584137
31
0.0
  0
LINE
 8
Layer0
10
6392.09829478031
20
-2095.16362584137
30
0.0
11
6395.09829478031
21
-2095.16362584138
31
0.0
  0
LINE
 8
Layer0
10
6395.0982947803
20
-2080.16362584137
30
0.0
11
6392.09829478031
21
-2080.16362584138
31
0.0
  0
LINE
 8
Layer0
10
6392.09829478031
20
-2050.16362584138
30
0.0
11
6395.0982947803
21
-2050.16362584137
31
0.0
  0
LINE
 8
Layer0
10
6392.0982947803
20
-2215.16362584137
30
0.0
11
6395.0982947803
21
-2215.16362584137
31
0.0
  0
LINE
 8
Layer0
10
6392.09829478031
20
-2125.16362584138
30
0.0
11
6395.0982947803
21
-2125.16362584137
31
0.0
  0
LINE
 8
Layer0
10
6392.09829478031
20
-2140.16362584137
30
0.0
11
6395.0982947803
21
-2140.16362584137
31
0.0
  0
LINE
 8
Layer0
10
6392.09829478031
20
-2155.16362584137
30
0.0
11
6395.09829478031
21
-2155.16362584138
31
0.0
  0
LINE
 8
Layer0
10
6395.09829478031
20
-2170.16362584138
30
0.0
11
6392.0982947803
21
-2170.16362584137
31
0.0
  0
LINE
 8
Layer0
10
6392.0982947803
20
-2185.16362584137
30
0.0
11
6395.09829478031
21
-2185.16362584137
31
0.0
  0
LINE
 8
Layer0
10
6395.09829478031
20
-2110.16362584137
30
0.0
11
6392.0982947803
21
-2110.16362584138
31
0.0
  0
LINE
 8
Layer0
10
6392.09829478031
20
-2245.16362584137
30
0.0
11
6395.0982947803
21
-2245.16362584138
31
0.0
  0
LINE
 8
Layer0
10
6395.0982947803
20
-2230.16362584137
30
0.0
11
6392.0982947803
21
-2230.16362584137
31
0.0
  0
LINE
 8
Layer0
10
6392.0982947803
20
-2200.16362584137
30
0.0
11
6395.0982947803
21
-2200.16362584137
31
0.0
  0
LINE
 8
Layer0
10
6623.0982947803
20
-2258.16362584135
30
0.0
11
6638.0982947803
21
-2258.16362584135
31
0.0
  0
LINE
 8
Layer0
10
6458.0982947803
20
-2255.16362584136
30
0.0
11
6473.0982947803
21
-2255.16362584135
31
0.0
  0
LINE
 8
Layer0
10
6518.0982947803
20
-2255.16362584135
30
0.0
11
6533.0982947803
21
-2255.16362584135
31
0.0
  0
LINE
 8
Layer0
10
6638.09829478031
20
-2255.16362584135
30
0.0
11
6645.0982947803
21
-2255.16362584136
31
0.0
  0
LINE
 8
Layer0
10
6623.0982947803
20
-2258.16362584135
30
0.0
11
6623.0982947803
21
-2255.16362584135
31
0.0
  0
LINE
 8
Layer0
10
6608.0982947803
20
-2258.16362584135
30
0.0
11
6608.09829478031
21
-2255.16362584135
31
0.0
  0
LINE
 8
Layer0
10
6632.0982947803
20
-2005.16362584136
30
0.0
11
6632.0982947803
21
-2002.16362584136
31
0.0
  0
LINE
 8
Layer0
10
6527.0982947803
20
-2005.16362584136
30
0.0
11
6512.0982947803
21
-2005.16362584136
31
0.0
  0
LINE
 8
Layer0
10
6395.0982947803
20
-2255.16362584136
30
0.0
11
6410.0982947803
21
-2255.16362584136
31
0.0
  0
LINE
 8
Layer0
10
6395.0982947803
20
-2065.16362584137
30
0.0
11
6395.0982947803
21
-2080.16362584137
31
0.0
  0
LINE
 8
Layer0
10
6395.09829478031
20
-2035.16362584137
30
0.0
11
6395.0982947803
21
-2050.16362584137
31
0.0
  0
LINE
 8
Layer0
10
6548.0982947803
20
-2255.16362584135
30
0.0
11
6563.0982947803
21
-2255.16362584135
31
0.0
  0
LINE
 8
Layer0
10
6413.0982947803
20
-2258.16362584135
30
0.0
11
6428.0982947803
21
-2258.16362584135
31
0.0
  0
LINE
 8
Layer0
10
6503.0982947803
20
-2258.16362584135
30
0.0
11
6518.0982947803
21
-2258.16362584136
31
0.0
  0
LINE
 8
Layer0
10
6473.0982947803
20
-2258.16362584135
30
0.0
11
6488.0982947803
21
-2258.16362584135
31
0.0
  0
LINE
 8
Layer0
10
6533.09829478029
20
-2258.16362584136
30
0.0
11
6548.0982947803
21
-2258.16362584135
31
0.0
  0
LINE
 8
Layer0
10
6563.09829478031
20
-2258.16362584135
30
0.0
11
6578.0982947803
21
-2258.16362584135
31
0.0
  0
LINE
 8
Layer0
10
6503.0982947803
20
-2258.16362584135
30
0.0
11
6503.0982947803
21
-2255.16362584135
31
0.0
  0
LINE
 8
Layer0
10
6518.0982947803
20
-2258.16362584136
30
0.0
11
6518.0982947803
21
-2255.16362584135
31
0.0
  0
LINE
 8
Layer0
10
6548.0982947803
20
-2258.16362584135
30
0.0
11
6548.0982947803
21
-2255.16362584135
31
0.0
  0
LINE
 8
Layer0
10
6458.0982947803
20
-2258.16362584136
30
0.0
11
6458.0982947803
21
-2255.16362584136
31
0.0
  0
LINE
 8
Layer0
10
6428.0982947803
20
-2258.16362584135
30
0.0
11
6428.0982947803
21
-2255.16362584135
31
0.0
  0
LINE
 8
Layer0
10
6443.0982947803
20
-2258.16362584136
30
0.0
11
6443.09829478031
21
-2255.16362584135
31
0.0
  0
LINE
 8
Layer0
10
6413.0982947803
20
-2255.16362584136
30
0.0
11
6413.0982947803
21
-2258.16362584135
31
0.0
  0
LINE
 8
Layer0
10
6443.0982947803
20
-2258.16362584136
30
0.0
11
6458.0982947803
21
-2258.16362584136
31
0.0
 0
ENDSEC
 0
EOF
