999
dxfrw 0.5.10
0
SECTION
2
HEADER
9
$ACADVER
1
AC1021
9
$HANDSEED
5
20000
9
$DWGCODEPAGE
3
ANSI_1252
9
$INSBASE
10
0
20
0
30
0
9
$EXTMIN
10
28.762250767
20
12.4720956889
30
0
9
$EXTMAX
10
773.762250573
20
532.472095689
30
0
9
$LIMMIN
10
0
20
0
9
$LIMMAX
10
420
20
297
9
$ORTHOMODE
70
0
9
$LTSCALE
40
1
9
$TEXTSTYLE
7
STANDARD
9
$CLAYER
8
Groupe#64
9
$DIMASZ
40
2.5
9
$DIMLFAC
40
1
9
$DIMSCALE
40
1
9
$DIMEXO
40
0.625
9
$DIMEXE
40
1.25
9
$DIMTXT
40
2.5
9
$DIMTSZ
40
0
9
$DIMAUNIT
70
0
9
$DIMADEC
70
0
9
$DIMLUNIT
70
2
9
$DIMSTYLE
2
Standard
9
$DIMGAP
40
0.625
9
$DIMTIH
70
0
9
$LUNITS
70
2
9
$LUPREC
70
4
9
$AUNITS
70
0
9
$AUPREC
70
2
9
$SPLINESEGS
70
8
9
$SNAPSTYLE
70
0
9
$PINSBASE
10
0
20
0
30
0
9
$PLIMMIN
10
0
20
0
9
$PLIMMAX
10
210
20
297
9
$INSUNITS
70
0
9
$PSVPSCALE
40
1
0
ENDSEC
0
SECTION
2
CLASSES
0
ENDSEC
0
SECTION
2
TABLES
0
TABLE
2
VPORT
5
8
330
0
100
AcDbSymbolTable
70
1
0
VPORT
5
31
330
2
100
AcDbSymbolTableRecord
100
AcDbViewportTableRecord
2
*ACTIVE
70
0
10
0
20
0
11
1
21
1
12
777.654349804
22
391.155481339
13
0
23
0
14
10
24
10
15
10
25
10
16
0
26
0
36
1
17
0
27
0
37
0
40
1031.43975139
41
2.30022573363
42
50
43
0
44
0
50
0
51
0
71
0
72
100
73
1
74
3
75
0
76
1
77
0
78
0
281
0
65
1
110
0
120
0
130
0
111
1
121
0
131
0
112
0
122
1
132
0
79
0
146
0
348
10020
60
7
61
5
292
1
282
1
141
0
142
0
63
250
421
3358443
0
ENDTAB
0
TABLE
2
LTYPE
5
5
330
0
100
AcDbSymbolTable
70
4
0
LTYPE
5
14
330
5
100
AcDbSymbolTableRecord
100
AcDbLinetypeTableRecord
2
ByBlock
70
0
3

72
65
73
0
40
0
0
LTYPE
5
15
330
5
100
AcDbSymbolTableRecord
100
AcDbLinetypeTableRecord
2
ByLayer
70
0
3

72
65
73
0
40
0
0
LTYPE
5
16
330
5
100
AcDbSymbolTableRecord
100
AcDbLinetypeTableRecord
2
Continuous
70
0
3
Solid line
72
65
73
0
40
0
0
LTYPE
5
32
330
5
100
AcDbSymbolTableRecord
100
AcDbLinetypeTableRecord
2
DOT
70
0
3
Dot . . . . . . . . . . . . . . . . . . . . . .
72
65
73
2
40
6.35
49
0
74
0
49
-6.35
74
0
0
LTYPE
5
33
330
5
100
AcDbSymbolTableRecord
100
AcDbLinetypeTableRecord
2
DOT2
70
0
3
Dot (.5x) .....................................
72
65
73
2
40
3.175
49
0
74
0
49
-3.175
74
0
0
LTYPE
5
34
330
5
100
AcDbSymbolTableRecord
100
AcDbLinetypeTableRecord
2
DOTX2
70
0
3
Dot (2x) .  .  .  .  .  .  .  .  .  .  .  .  .
72
65
73
2
40
12.7
49
0
74
0
49
-12.7
74
0
0
LTYPE
5
35
330
5
100
AcDbSymbolTableRecord
100
AcDbLinetypeTableRecord
2
DASHED
70
0
3
Dot . . . . . . . . . . . . . . . . . . . . . .
72
65
73
2
40
19.05
49
12.7
74
0
49
-6.35
74
0
0
LTYPE
5
36
330
5
100
AcDbSymbolTableRecord
100
AcDbLinetypeTableRecord
2
DASHED2
70
0
3
Dashed (.5x) _ _ _ _ _ _ _ _ _ _ _ _ _ _ _ _ _
72
65
73
2
40
9.525
49
6.35
74
0
49
-3.175
74
0
0
LTYPE
5
37
330
5
100
AcDbSymbolTableRecord
100
AcDbLinetypeTableRecord
2
DASHEDX2
70
0
3
Dashed (2x) ____  ____  ____  ____  ____  ___
72
65
73
2
40
38.1
49
25.4
74
0
49
-12.7
74
0
0
LTYPE
5
38
330
5
100
AcDbSymbolTableRecord
100
AcDbLinetypeTableRecord
2
DASHDOT
70
0
3
Dash dot __ . __ . __ . __ . __ . __ . __ . __
72
65
73
4
40
25.4
49
12.7
74
0
49
-6.35
74
0
49
0
74
0
49
-6.35
74
0
0
LTYPE
5
39
330
5
100
AcDbSymbolTableRecord
100
AcDbLinetypeTableRecord
2
DASHDOT2
70
0
3
Dash dot (.5x) _._._._._._._._._._._._._._._.
72
65
73
4
40
12.7
49
6.35
74
0
49
-3.175
74
0
49
0
74
0
49
-3.175
74
0
0
LTYPE
5
3A
330
5
100
AcDbSymbolTableRecord
100
AcDbLinetypeTableRecord
2
DASHDOTX2
70
0
3
Dash dot (2x) ____  .  ____  .  ____  .  ___
72
65
73
4
40
50.8
49
25.4
74
0
49
-12.7
74
0
49
0
74
0
49
-12.7
74
0
0
LTYPE
5
3B
330
5
100
AcDbSymbolTableRecord
100
AcDbLinetypeTableRecord
2
DIVIDE
70
0
3
Divide ____ . . ____ . . ____ . . ____ . . ____
72
65
73
6
40
31.75
49
12.7
74
0
49
-6.35
74
0
49
0
74
0
49
-6.35
74
0
49
0
74
0
49
-6.35
74
0
0
LTYPE
5
3C
330
5
100
AcDbSymbolTableRecord
100
AcDbLinetypeTableRecord
2
DIVIDE2
70
0
3
Divide (.5x) __..__..__..__..__..__..__..__.._
72
65
73
6
40
15.875
49
6.35
74
0
49
-3.175
74
0
49
0
74
0
49
-3.175
74
0
49
0
74
0
49
-3.175
74
0
0
LTYPE
5
3D
330
5
100
AcDbSymbolTableRecord
100
AcDbLinetypeTableRecord
2
DIVIDEX2
70
0
3
Divide (2x) ________  .  .  ________  .  .  _
72
65
73
6
40
63.5
49
25.4
74
0
49
-12.7
74
0
49
0
74
0
49
-12.7
74
0
49
0
74
0
49
-12.7
74
0
0
LTYPE
5
3E
330
5
100
AcDbSymbolTableRecord
100
AcDbLinetypeTableRecord
2
BORDER
70
0
3
Border __ __ . __ __ . __ __ . __ __ . __ __ .
72
65
73
6
40
44.45
49
12.7
74
0
49
-6.35
74
0
49
12.7
74
0
49
-6.35
74
0
49
0
74
0
49
-6.35
74
0
0
LTYPE
5
3F
330
5
100
AcDbSymbolTableRecord
100
AcDbLinetypeTableRecord
2
BORDER2
70
0
3
Border (.5x) __.__.__.__.__.__.__.__.__.__.__.
72
65
73
6
40
22.225
49
6.35
74
0
49
-3.175
74
0
49
6.35
74
0
49
-3.175
74
0
49
0
74
0
49
-3.175
74
0
0
LTYPE
5
40
330
5
100
AcDbSymbolTableRecord
100
AcDbLinetypeTableRecord
2
BORDERX2
70
0
3
Border (2x) ____  ____  .  ____  ____  .  ___
72
65
73
6
40
88.9
49
25.4
74
0
49
-12.7
74
0
49
25.4
74
0
49
-12.7
74
0
49
0
74
0
49
-12.7
74
0
0
LTYPE
5
41
330
5
100
AcDbSymbolTableRecord
100
AcDbLinetypeTableRecord
2
CENTER
70
0
3
Center ____ _ ____ _ ____ _ ____ _ ____ _ ____
72
65
73
4
40
50.8
49
31.75
74
0
49
-6.35
74
0
49
6.35
74
0
49
-6.35
74
0
0
LTYPE
5
42
330
5
100
AcDbSymbolTableRecord
100
AcDbLinetypeTableRecord
2
CENTER2
70
0
3
Center (.5x) ___ _ ___ _ ___ _ ___ _ ___ _ ___
72
65
73
4
40
28.575
49
19.05
74
0
49
-3.175
74
0
49
3.175
74
0
49
-3.175
74
0
0
LTYPE
5
43
330
5
100
AcDbSymbolTableRecord
100
AcDbLinetypeTableRecord
2
CENTERX2
70
0
3
Center (2x) ________  __  ________  __  _____
72
65
73
4
40
101.6
49
63.5
74
0
49
-12.7
74
0
49
12.7
74
0
49
-12.7
74
0
0
ENDTAB
0
TABLE
2
LAYER
5
2
330
0
100
AcDbSymbolTable
70
1
0
LAYER
5
10
330
2
100
AcDbSymbolTableRecord
100
AcDbLayerTableRecord
2
0
70
0
62
7
6
CONTINUOUS
370
0
390
F
0
LAYER
5
44
330
2
100
AcDbSymbolTableRecord
100
AcDbLayerTableRecord
2
Groupe#59
70
0
62
1
6
CONTINUOUS
370
-3
390
F
0
LAYER
5
45
330
2
100
AcDbSymbolTableRecord
100
AcDbLayerTableRecord
2
Groupe#60
70
0
62
1
6
CONTINUOUS
370
-3
390
F
0
LAYER
5
46
330
2
100
AcDbSymbolTableRecord
100
AcDbLayerTableRecord
2
Groupe#61
70
0
62
1
6
CONTINUOUS
370
-3
390
F
0
LAYER
5
47
330
2
100
AcDbSymbolTableRecord
100
AcDbLayerTableRecord
2
Groupe#63
70
0
62
1
6
CONTINUOUS
370
-3
390
F
0
LAYER
5
48
330
2
100
AcDbSymbolTableRecord
100
AcDbLayerTableRecord
2
Groupe#64
70
0
62
1
6
CONTINUOUS
370
-3
390
F
0
LAYER
5
49
330
2
100
AcDbSymbolTableRecord
100
AcDbLayerTableRecord
2
Groupe#62
70
0
62
1
6
CONTINUOUS
370
-3
390
F
0
ENDTAB
0
TABLE
2
STYLE
5
3
330
0
100
AcDbSymbolTable
70
3
0
STYLE
5
4A
330
2
100
AcDbSymbolTableRecord
100
AcDbTextStyleTableRecord
2
Standard
70
0
40
0
41
1
50
0
71
0
42
1
3
txt
4

0
ENDTAB
0
TABLE
2
VIEW
5
6
330
0
100
AcDbSymbolTable
70
0
0
ENDTAB
0
TABLE
2
UCS
5
7
330
0
100
AcDbSymbolTable
70
0
0
ENDTAB
0
TABLE
2
APPID
5
9
330
0
100
AcDbSymbolTable
70
1
0
APPID
5
12
330
9
100
AcDbSymbolTableRecord
100
AcDbRegAppTableRecord
2
ACAD
70
0
0
ENDTAB
0
TABLE
2
DIMSTYLE
5
A
330
0
100
AcDbSymbolTable
70
1
100
AcDbDimStyleTable
71
1
0
DIMSTYLE
105
4B
330
A
100
AcDbSymbolTableRecord
100
AcDbDimStyleTableRecord
2
Standard
70
0
40
1
41
2.5
42
0.625
43
0.38
44
1.25
45
0
46
0
47
0
48
0
140
2.5
141
0.09
142
0
143
25.4
144
1
145
0
146
1
147
0.625
148
0
71
0
72
0
73
0
74
1
75
0
76
0
77
0
78
0
79
0
170
0
171
2
172
0
173
0
174
0
175
0
176
0
177
0
178
0
179
0
271
4
272
4
273
2
274
2
275
0
276
0
277
2
278
46
279
0
280
0
281
0
282
0
283
1
284
0
285
0
286
0
288
0
289
3
340
Standard
341

371
-2
372
-2
0
ENDTAB
0
TABLE
2
BLOCK_RECORD
5
1
330
0
100
AcDbSymbolTable
70
2
0
BLOCK_RECORD
5
1F
330
1
100
AcDbSymbolTableRecord
100
AcDbBlockTableRecord
2
*Model_Space
70
0
280
1
281
0
0
BLOCK_RECORD
5
1E
330
1
100
AcDbSymbolTableRecord
100
AcDbBlockTableRecord
2
*Paper_Space
70
0
280
1
281
0
0
ENDTAB
0
ENDSEC
0
SECTION
2
BLOCKS
0
BLOCK
5
20
330
1F
100
AcDbEntity
8
0
100
AcDbBlockBegin
2
*Model_Space
70
0
10
0
20
0
30
0
3
*Model_Space
1

0
ENDBLK
5
21
330
1F
100
AcDbEntity
8
0
100
AcDbBlockEnd
0
BLOCK
5
1C
330
1B
100
AcDbEntity
8
0
100
AcDbBlockBegin
2
*Paper_Space
70
0
10
0
20
0
30
0
3
*Paper_Space
1

0
ENDBLK
5
1D
330
1F
100
AcDbEntity
8
0
100
AcDbBlockEnd
0
ENDSEC
0
SECTION
2
ENTITIES
0
LINE
5
4C
100
AcDbEntity
8
Groupe#59
6
ByLayer
62
256
370
-1
100
AcDbLine
10
530.762250573
20
337.472095689
11
527.762250573
21
337.472095689
0
LINE
5
4D
100
AcDbEntity
8
Groupe#59
6
ByLayer
62
256
370
-1
100
AcDbLine
10
527.762250573
20
352.472095689
11
530.762250573
21
352.472095689
0
LINE
5
4E
100
AcDbEntity
8
Groupe#59
6
ByLayer
62
256
370
-1
100
AcDbLine
10
530.762250573
20
517.472095689
11
527.762250573
21
517.472095689
0
LINE
5
4F
100
AcDbEntity
8
Groupe#59
6
ByLayer
62
256
370
-1
100
AcDbLine
10
530.762250573
20
502.472095689
11
527.762250573
21
502.472095689
0
LINE
5
50
100
AcDbEntity
8
Groupe#59
6
ByLayer
62
256
370
-1
100
AcDbLine
10
277.762250573
20
279.472095689
11
287.762250573
21
279.472095689
0
LINE
5
51
100
AcDbEntity
8
Groupe#59
6
ByLayer
62
256
370
-1
100
AcDbLine
10
317.762250573
20
529.472095689
11
302.762250573
21
529.472095689
0
LINE
5
52
100
AcDbEntity
8
Groupe#59
6
ByLayer
62
256
370
-1
100
AcDbLine
10
527.762250573
20
487.472095689
11
527.762250573
21
502.472095689
0
LINE
5
53
100
AcDbEntity
8
Groupe#59
6
ByLayer
62
256
370
-1
100
AcDbLine
10
527.762250573
20
367.472095689
11
527.762250573
21
382.472095689
0
LINE
5
54
100
AcDbEntity
8
Groupe#59
6
ByLayer
62
256
370
-1
100
AcDbLine
10
527.762250573
20
427.472095689
11
527.762250573
21
442.472095689
0
LINE
5
55
100
AcDbEntity
8
Groupe#59
6
ByLayer
62
256
370
-1
100
AcDbLine
10
527.762250573
20
457.472095689
11
527.762250573
21
472.472095689
0
LINE
5
56
100
AcDbEntity
8
Groupe#59
6
ByLayer
62
256
370
-1
100
AcDbLine
10
527.762250573
20
292.472095689
11
527.762250573
21
279.472095689
0
LINE
5
57
100
AcDbEntity
8
Groupe#59
6
ByLayer
62
256
370
-1
100
AcDbLine
10
362.762250573
20
279.472095689
11
377.762250573
21
279.472095689
0
LINE
5
58
100
AcDbEntity
8
Groupe#59
6
ByLayer
62
256
370
-1
100
AcDbLine
10
527.762250573
20
529.472095689
11
512.762250573
21
529.472095689
0
LINE
5
59
100
AcDbEntity
8
Groupe#59
6
ByLayer
62
256
370
-1
100
AcDbLine
10
527.762250573
20
472.472095689
11
530.762250573
21
472.472095689
0
LINE
5
5A
100
AcDbEntity
8
Groupe#59
6
ByLayer
62
256
370
-1
100
AcDbLine
10
407.762250573
20
529.472095689
11
392.762250573
21
529.472095689
0
LINE
5
5B
100
AcDbEntity
8
Groupe#59
6
ByLayer
62
256
370
-1
100
AcDbLine
10
347.762250573
20
529.472095689
11
332.762250573
21
529.472095689
0
LINE
5
5C
100
AcDbEntity
8
Groupe#59
6
ByLayer
62
256
370
-1
100
AcDbLine
10
530.762250573
20
442.472095689
11
527.762250573
21
442.472095689
0
LINE
5
5D
100
AcDbEntity
8
Groupe#59
6
ByLayer
62
256
370
-1
100
AcDbLine
10
530.762250573
20
457.472095689
11
527.762250573
21
457.472095689
0
LINE
5
5E
100
AcDbEntity
8
Groupe#59
6
ByLayer
62
256
370
-1
100
AcDbLine
10
530.762250573
20
307.472095689
11
527.762250573
21
307.472095689
0
LINE
5
5F
100
AcDbEntity
8
Groupe#59
6
ByLayer
62
256
370
-1
100
AcDbLine
10
530.762250573
20
322.472095689
11
527.762250573
21
322.472095689
0
LINE
5
60
100
AcDbEntity
8
Groupe#59
6
ByLayer
62
256
370
-1
100
AcDbLine
10
422.762250573
20
279.472095689
11
437.762250573
21
279.472095689
0
LINE
5
61
100
AcDbEntity
8
Groupe#59
6
ByLayer
62
256
370
-1
100
AcDbLine
10
332.762250573
20
279.472095689
11
347.762250573
21
279.472095689
0
LINE
5
62
100
AcDbEntity
8
Groupe#59
6
ByLayer
62
256
370
-1
100
AcDbLine
10
302.762250573
20
279.472095689
11
317.762250573
21
279.472095689
0
LINE
5
63
100
AcDbEntity
8
Groupe#59
6
ByLayer
62
256
370
-1
100
AcDbLine
10
392.762250573
20
279.472095689
11
407.762250573
21
279.472095689
0
LINE
5
64
100
AcDbEntity
8
Groupe#59
6
ByLayer
62
256
370
-1
100
AcDbLine
10
407.762250573
20
276.472095689
11
422.762250573
21
276.472095689
0
LINE
5
65
100
AcDbEntity
8
Groupe#59
6
ByLayer
62
256
370
-1
100
AcDbLine
10
332.762250573
20
276.472095689
11
332.762250573
21
279.472095689
0
LINE
5
66
100
AcDbEntity
8
Groupe#59
6
ByLayer
62
256
370
-1
100
AcDbLine
10
347.762250573
20
276.472095689
11
362.762250573
21
276.472095689
0
LINE
5
67
100
AcDbEntity
8
Groupe#59
6
ByLayer
62
256
370
-1
100
AcDbLine
10
287.762250573
20
276.472095689
11
302.762250573
21
276.472095689
0
LINE
5
68
100
AcDbEntity
8
Groupe#59
6
ByLayer
62
256
370
-1
100
AcDbLine
10
317.762250573
20
276.472095689
11
332.762250573
21
276.472095689
0
LINE
5
69
100
AcDbEntity
8
Groupe#59
6
ByLayer
62
256
370
-1
100
AcDbLine
10
287.762250573
20
279.472095689
11
287.762250573
21
276.472095689
0
LINE
5
6A
100
AcDbEntity
8
Groupe#59
6
ByLayer
62
256
370
-1
100
AcDbLine
10
302.762250573
20
276.472095689
11
302.762250573
21
279.472095689
0
LINE
5
6B
100
AcDbEntity
8
Groupe#59
6
ByLayer
62
256
370
-1
100
AcDbLine
10
362.762250573
20
276.472095689
11
362.762250573
21
279.472095689
0
LINE
5
6C
100
AcDbEntity
8
Groupe#59
6
ByLayer
62
256
370
-1
100
AcDbLine
10
347.762250573
20
279.472095689
11
347.762250573
21
276.472095689
0
LINE
5
6D
100
AcDbEntity
8
Groupe#59
6
ByLayer
62
256
370
-1
100
AcDbLine
10
317.762250573
20
276.472095689
11
317.762250573
21
279.472095689
0
LINE
5
6E
100
AcDbEntity
8
Groupe#59
6
ByLayer
62
256
370
-1
100
AcDbLine
10
482.762250573
20
276.472095689
11
482.762250573
21
279.472095689
0
LINE
5
6F
100
AcDbEntity
8
Groupe#59
6
ByLayer
62
256
370
-1
100
AcDbLine
10
392.762250573
20
276.472095689
11
392.762250573
21
279.472095689
0
LINE
5
70
100
AcDbEntity
8
Groupe#59
6
ByLayer
62
256
370
-1
100
AcDbLine
10
497.762250573
20
276.472095689
11
512.762250573
21
276.472095689
0
LINE
5
71
100
AcDbEntity
8
Groupe#59
6
ByLayer
62
256
370
-1
100
AcDbLine
10
377.762250573
20
276.472095689
11
392.762250573
21
276.472095689
0
LINE
5
72
100
AcDbEntity
8
Groupe#59
6
ByLayer
62
256
370
-1
100
AcDbLine
10
437.762250573
20
276.472095689
11
452.762250573
21
276.472095689
0
LINE
5
73
100
AcDbEntity
8
Groupe#59
6
ByLayer
62
256
370
-1
100
AcDbLine
10
467.762250573
20
276.472095689
11
482.762250573
21
276.472095689
0
LINE
5
74
100
AcDbEntity
8
Groupe#59
6
ByLayer
62
256
370
-1
100
AcDbLine
10
407.762250573
20
276.472095689
11
407.762250573
21
279.472095689
0
LINE
5
75
100
AcDbEntity
8
Groupe#59
6
ByLayer
62
256
370
-1
100
AcDbLine
10
422.762250573
20
276.472095689
11
422.762250573
21
279.472095689
0
LINE
5
76
100
AcDbEntity
8
Groupe#59
6
ByLayer
62
256
370
-1
100
AcDbLine
10
437.762250573
20
279.472095689
11
437.762250573
21
276.472095689
0
LINE
5
77
100
AcDbEntity
8
Groupe#59
6
ByLayer
62
256
370
-1
100
AcDbLine
10
452.762250573
20
276.472095689
11
452.762250573
21
279.472095689
0
LINE
5
78
100
AcDbEntity
8
Groupe#59
6
ByLayer
62
256
370
-1
100
AcDbLine
10
377.762250573
20
279.472095689
11
377.762250573
21
276.472095689
0
LINE
5
79
100
AcDbEntity
8
Groupe#59
6
ByLayer
62
256
370
-1
100
AcDbLine
10
512.762250573
20
276.472095689
11
512.762250573
21
279.472095689
0
LINE
5
7A
100
AcDbEntity
8
Groupe#59
6
ByLayer
62
256
370
-1
100
AcDbLine
10
497.762250573
20
279.472095689
11
497.762250573
21
276.472095689
0
LINE
5
7B
100
AcDbEntity
8
Groupe#59
6
ByLayer
62
256
370
-1
100
AcDbLine
10
467.762250573
20
276.472095689
11
467.762250573
21
279.472095689
0
LINE
5
7C
100
AcDbEntity
8
Groupe#59
6
ByLayer
62
256
370
-1
100
AcDbLine
10
302.762250573
20
532.472095689
11
287.762250573
21
532.472095689
0
LINE
5
7D
100
AcDbEntity
8
Groupe#59
6
ByLayer
62
256
370
-1
100
AcDbLine
10
422.762250573
20
532.472095689
11
407.762250573
21
532.472095689
0
LINE
5
7E
100
AcDbEntity
8
Groupe#59
6
ByLayer
62
256
370
-1
100
AcDbLine
10
392.762250573
20
532.472095689
11
377.762250573
21
532.472095689
0
LINE
5
7F
100
AcDbEntity
8
Groupe#59
6
ByLayer
62
256
370
-1
100
AcDbLine
10
362.762250573
20
532.472095689
11
347.762250573
21
532.472095689
0
LINE
5
80
100
AcDbEntity
8
Groupe#59
6
ByLayer
62
256
370
-1
100
AcDbLine
10
332.762250573
20
532.472095689
11
317.762250573
21
532.472095689
0
LINE
5
81
100
AcDbEntity
8
Groupe#59
6
ByLayer
62
256
370
-1
100
AcDbLine
10
527.762250573
20
307.472095689
11
527.762250573
21
322.472095689
0
LINE
5
82
100
AcDbEntity
8
Groupe#59
6
ByLayer
62
256
370
-1
100
AcDbLine
10
452.762250573
20
532.472095689
11
437.762250573
21
532.472095689
0
LINE
5
83
100
AcDbEntity
8
Groupe#59
6
ByLayer
62
256
370
-1
100
AcDbLine
10
512.762250573
20
532.472095689
11
497.762250573
21
532.472095689
0
LINE
5
84
100
AcDbEntity
8
Groupe#59
6
ByLayer
62
256
370
-1
100
AcDbLine
10
482.762250573
20
532.472095689
11
467.762250573
21
532.472095689
0
LINE
5
85
100
AcDbEntity
8
Groupe#59
6
ByLayer
62
256
370
-1
100
AcDbLine
10
277.762250573
20
529.472095689
11
277.762250573
21
514.472095689
0
LINE
5
86
100
AcDbEntity
8
Groupe#59
6
ByLayer
62
256
370
-1
100
AcDbLine
10
467.762250573
20
529.472095689
11
452.762250573
21
529.472095689
0
LINE
5
87
100
AcDbEntity
8
Groupe#59
6
ByLayer
62
256
370
-1
100
AcDbLine
10
512.762250573
20
279.472095689
11
527.762250573
21
279.472095689
0
LINE
5
88
100
AcDbEntity
8
Groupe#59
6
ByLayer
62
256
370
-1
100
AcDbLine
10
527.762250573
20
337.472095689
11
527.762250573
21
352.472095689
0
LINE
5
89
100
AcDbEntity
8
Groupe#59
6
ByLayer
62
256
370
-1
100
AcDbLine
10
437.762250573
20
529.472095689
11
422.762250573
21
529.472095689
0
LINE
5
8A
100
AcDbEntity
8
Groupe#59
6
ByLayer
62
256
370
-1
100
AcDbLine
10
530.762250573
20
502.472095689
11
530.762250573
21
517.472095689
0
LINE
5
8B
100
AcDbEntity
8
Groupe#59
6
ByLayer
62
256
370
-1
100
AcDbLine
10
530.762250573
20
472.472095689
11
530.762250573
21
487.472095689
0
LINE
5
8C
100
AcDbEntity
8
Groupe#59
6
ByLayer
62
256
370
-1
100
AcDbLine
10
530.762250573
20
352.472095689
11
530.762250573
21
367.472095689
0
LINE
5
8D
100
AcDbEntity
8
Groupe#59
6
ByLayer
62
256
370
-1
100
AcDbLine
10
530.762250573
20
382.472095689
11
530.762250573
21
397.472095689
0
LINE
5
8E
100
AcDbEntity
8
Groupe#59
6
ByLayer
62
256
370
-1
100
AcDbLine
10
530.762250573
20
487.472095689
11
527.762250573
21
487.472095689
0
LINE
5
8F
100
AcDbEntity
8
Groupe#59
6
ByLayer
62
256
370
-1
100
AcDbLine
10
530.762250573
20
322.472095689
11
530.762250573
21
337.472095689
0
LINE
5
90
100
AcDbEntity
8
Groupe#59
6
ByLayer
62
256
370
-1
100
AcDbLine
10
530.762250573
20
292.472095689
11
530.762250573
21
307.472095689
0
LINE
5
91
100
AcDbEntity
8
Groupe#59
6
ByLayer
62
256
370
-1
100
AcDbLine
10
530.762250573
20
412.472095689
11
530.762250573
21
427.472095689
0
LINE
5
92
100
AcDbEntity
8
Groupe#59
6
ByLayer
62
256
370
-1
100
AcDbLine
10
530.762250573
20
442.472095689
11
530.762250573
21
457.472095689
0
LINE
5
93
100
AcDbEntity
8
Groupe#59
6
ByLayer
62
256
370
-1
100
AcDbLine
10
530.762250573
20
367.472095689
11
527.762250573
21
367.472095689
0
LINE
5
94
100
AcDbEntity
8
Groupe#59
6
ByLayer
62
256
370
-1
100
AcDbLine
10
452.762250573
20
279.472095689
11
467.762250573
21
279.472095689
0
LINE
5
95
100
AcDbEntity
8
Groupe#59
6
ByLayer
62
256
370
-1
100
AcDbLine
10
482.762250573
20
279.472095689
11
497.762250573
21
279.472095689
0
LINE
5
96
100
AcDbEntity
8
Groupe#59
6
ByLayer
62
256
370
-1
100
AcDbLine
10
530.762250573
20
382.472095689
11
527.762250573
21
382.472095689
0
LINE
5
97
100
AcDbEntity
8
Groupe#59
6
ByLayer
62
256
370
-1
100
AcDbLine
10
530.762250573
20
397.472095689
11
527.762250573
21
397.472095689
0
LINE
5
98
100
AcDbEntity
8
Groupe#59
6
ByLayer
62
256
370
-1
100
AcDbLine
10
527.762250573
20
412.472095689
11
530.762250573
21
412.472095689
0
LINE
5
99
100
AcDbEntity
8
Groupe#59
6
ByLayer
62
256
370
-1
100
AcDbLine
10
530.762250573
20
427.472095689
11
527.762250573
21
427.472095689
0
LINE
5
9A
100
AcDbEntity
8
Groupe#59
6
ByLayer
62
256
370
-1
100
AcDbLine
10
377.762250573
20
529.472095689
11
362.762250573
21
529.472095689
0
LINE
5
9B
100
AcDbEntity
8
Groupe#59
6
ByLayer
62
256
370
-1
100
AcDbLine
10
287.762250573
20
529.472095689
11
277.762250573
21
529.472095689
0
LINE
5
9C
100
AcDbEntity
8
Groupe#59
6
ByLayer
62
256
370
-1
100
AcDbLine
10
497.762250573
20
529.472095689
11
482.762250573
21
529.472095689
0
LINE
5
9D
100
AcDbEntity
8
Groupe#59
6
ByLayer
62
256
370
-1
100
AcDbLine
10
527.762250573
20
397.472095689
11
527.762250573
21
412.472095689
0
LINE
5
9E
100
AcDbEntity
8
Groupe#59
6
ByLayer
62
256
370
-1
100
AcDbLine
10
527.762250573
20
292.472095689
11
530.762250573
21
292.472095689
0
LINE
5
9F
100
AcDbEntity
8
Groupe#59
6
ByLayer
62
256
370
-1
100
AcDbLine
10
527.762250573
20
517.472095689
11
527.762250573
21
529.472095689
0
LINE
5
A0
100
AcDbEntity
8
Groupe#59
6
ByLayer
62
256
370
-1
100
AcDbLine
10
467.762250573
20
532.472095689
11
467.762250573
21
529.472095689
0
LINE
5
A1
100
AcDbEntity
8
Groupe#59
6
ByLayer
62
256
370
-1
100
AcDbLine
10
512.762250573
20
529.472095689
11
512.762250573
21
532.472095689
0
LINE
5
A2
100
AcDbEntity
8
Groupe#59
6
ByLayer
62
256
370
-1
100
AcDbLine
10
497.762250573
20
532.472095689
11
497.762250573
21
529.472095689
0
LINE
5
A3
100
AcDbEntity
8
Groupe#59
6
ByLayer
62
256
370
-1
100
AcDbLine
10
437.762250573
20
532.472095689
11
437.762250573
21
529.472095689
0
LINE
5
A4
100
AcDbEntity
8
Groupe#59
6
ByLayer
62
256
370
-1
100
AcDbLine
10
452.762250573
20
529.472095689
11
452.762250573
21
532.472095689
0
LINE
5
A5
100
AcDbEntity
8
Groupe#59
6
ByLayer
62
256
370
-1
100
AcDbLine
10
482.762250573
20
532.472095689
11
482.762250573
21
529.472095689
0
LINE
5
A6
100
AcDbEntity
8
Groupe#59
6
ByLayer
62
256
370
-1
100
AcDbLine
10
317.762250573
20
532.472095689
11
317.762250573
21
529.472095689
0
LINE
5
A7
100
AcDbEntity
8
Groupe#59
6
ByLayer
62
256
370
-1
100
AcDbLine
10
407.762250573
20
532.472095689
11
407.762250573
21
529.472095689
0
LINE
5
A8
100
AcDbEntity
8
Groupe#59
6
ByLayer
62
256
370
-1
100
AcDbLine
10
392.762250573
20
532.472095689
11
392.762250573
21
529.472095689
0
LINE
5
A9
100
AcDbEntity
8
Groupe#59
6
ByLayer
62
256
370
-1
100
AcDbLine
10
377.762250573
20
532.472095689
11
377.762250573
21
529.472095689
0
LINE
5
AA
100
AcDbEntity
8
Groupe#59
6
ByLayer
62
256
370
-1
100
AcDbLine
10
362.762250573
20
529.472095689
11
362.762250573
21
532.472095689
0
LINE
5
AB
100
AcDbEntity
8
Groupe#59
6
ByLayer
62
256
370
-1
100
AcDbLine
10
347.762250573
20
532.472095689
11
347.762250573
21
529.472095689
0
LINE
5
AC
100
AcDbEntity
8
Groupe#59
6
ByLayer
62
256
370
-1
100
AcDbLine
10
422.762250573
20
529.472095689
11
422.762250573
21
532.472095689
0
LINE
5
AD
100
AcDbEntity
8
Groupe#59
6
ByLayer
62
256
370
-1
100
AcDbLine
10
287.762250573
20
532.472095689
11
287.762250573
21
529.472095689
0
LINE
5
AE
100
AcDbEntity
8
Groupe#59
6
ByLayer
62
256
370
-1
100
AcDbLine
10
302.762250573
20
529.472095689
11
302.762250573
21
532.472095689
0
LINE
5
AF
100
AcDbEntity
8
Groupe#59
6
ByLayer
62
256
370
-1
100
AcDbLine
10
332.762250573
20
532.472095689
11
332.762250573
21
529.472095689
0
LINE
5
B0
100
AcDbEntity
8
Groupe#59
6
ByLayer
62
256
370
-1
100
AcDbLine
10
277.762250573
20
496.472095689
11
277.762250573
21
481.472095689
0
LINE
5
B1
100
AcDbEntity
8
Groupe#59
6
ByLayer
62
256
370
-1
100
AcDbLine
10
274.762250573
20
436.472095689
11
277.762250573
21
436.472095689
0
LINE
5
B2
100
AcDbEntity
8
Groupe#59
6
ByLayer
62
256
370
-1
100
AcDbLine
10
277.762250573
20
346.472095689
11
277.762250573
21
331.472095689
0
LINE
5
B3
100
AcDbEntity
8
Groupe#59
6
ByLayer
62
256
370
-1
100
AcDbLine
10
274.762250573
20
361.472095689
11
277.762250573
21
361.472095689
0
LINE
5
B4
100
AcDbEntity
8
Groupe#59
6
ByLayer
62
256
370
-1
100
AcDbLine
10
274.762250573
20
346.472095689
11
277.762250573
21
346.472095689
0
LINE
5
B5
100
AcDbEntity
8
Groupe#59
6
ByLayer
62
256
370
-1
100
AcDbLine
10
277.762250573
20
451.472095689
11
274.762250573
21
451.472095689
0
LINE
5
B6
100
AcDbEntity
8
Groupe#59
6
ByLayer
62
256
370
-1
100
AcDbLine
10
274.762250573
20
286.472095689
11
277.762250573
21
286.472095689
0
LINE
5
B7
100
AcDbEntity
8
Groupe#59
6
ByLayer
62
256
370
-1
100
AcDbLine
10
277.762250573
20
316.472095689
11
277.762250573
21
301.472095689
0
LINE
5
B8
100
AcDbEntity
8
Groupe#59
6
ByLayer
62
256
370
-1
100
AcDbLine
10
277.762250573
20
331.472095689
11
274.762250573
21
331.472095689
0
LINE
5
B9
100
AcDbEntity
8
Groupe#59
6
ByLayer
62
256
370
-1
100
AcDbLine
10
277.762250573
20
391.472095689
11
274.762250573
21
391.472095689
0
LINE
5
BA
100
AcDbEntity
8
Groupe#59
6
ByLayer
62
256
370
-1
100
AcDbLine
10
274.762250573
20
331.472095689
11
274.762250573
21
316.472095689
0
LINE
5
BB
100
AcDbEntity
8
Groupe#59
6
ByLayer
62
256
370
-1
100
AcDbLine
10
277.762250573
20
436.472095689
11
277.762250573
21
421.472095689
0
LINE
5
BC
100
AcDbEntity
8
Groupe#59
6
ByLayer
62
256
370
-1
100
AcDbLine
10
274.762250573
20
301.472095689
11
274.762250573
21
286.472095689
0
LINE
5
BD
100
AcDbEntity
8
Groupe#59
6
ByLayer
62
256
370
-1
100
AcDbLine
10
277.762250573
20
466.472095689
11
277.762250573
21
451.472095689
0
LINE
5
BE
100
AcDbEntity
8
Groupe#59
6
ByLayer
62
256
370
-1
100
AcDbLine
10
277.762250573
20
406.472095689
11
277.762250573
21
391.472095689
0
LINE
5
BF
100
AcDbEntity
8
Groupe#59
6
ByLayer
62
256
370
-1
100
AcDbLine
10
274.762250573
20
301.472095689
11
277.762250573
21
301.472095689
0
LINE
5
C0
100
AcDbEntity
8
Groupe#59
6
ByLayer
62
256
370
-1
100
AcDbLine
10
274.762250573
20
316.472095689
11
277.762250573
21
316.472095689
0
LINE
5
C1
100
AcDbEntity
8
Groupe#59
6
ByLayer
62
256
370
-1
100
AcDbLine
10
277.762250573
20
376.472095689
11
277.762250573
21
361.472095689
0
LINE
5
C2
100
AcDbEntity
8
Groupe#59
6
ByLayer
62
256
370
-1
100
AcDbLine
10
274.762250573
20
511.472095689
11
274.762250573
21
496.472095689
0
LINE
5
C3
100
AcDbEntity
8
Groupe#59
6
ByLayer
62
256
370
-1
100
AcDbLine
10
274.762250573
20
421.472095689
11
274.762250573
21
406.472095689
0
LINE
5
C4
100
AcDbEntity
8
Groupe#59
6
ByLayer
62
256
370
-1
100
AcDbLine
10
274.762250573
20
451.472095689
11
274.762250573
21
436.472095689
0
LINE
5
C5
100
AcDbEntity
8
Groupe#59
6
ByLayer
62
256
370
-1
100
AcDbLine
10
274.762250573
20
391.472095689
11
274.762250573
21
376.472095689
0
LINE
5
C6
100
AcDbEntity
8
Groupe#59
6
ByLayer
62
256
370
-1
100
AcDbLine
10
274.762250573
20
361.472095689
11
274.762250573
21
346.472095689
0
LINE
5
C7
100
AcDbEntity
8
Groupe#59
6
ByLayer
62
256
370
-1
100
AcDbLine
10
274.762250573
20
421.472095689
11
277.762250573
21
421.472095689
0
LINE
5
C8
100
AcDbEntity
8
Groupe#59
6
ByLayer
62
256
370
-1
100
AcDbLine
10
274.762250573
20
406.472095689
11
277.762250573
21
406.472095689
0
LINE
5
C9
100
AcDbEntity
8
Groupe#59
6
ByLayer
62
256
370
-1
100
AcDbLine
10
274.762250573
20
376.472095689
11
277.762250573
21
376.472095689
0
LINE
5
CA
100
AcDbEntity
8
Groupe#59
6
ByLayer
62
256
370
-1
100
AcDbLine
10
274.762250573
20
466.472095689
11
277.762250573
21
466.472095689
0
LINE
5
CB
100
AcDbEntity
8
Groupe#59
6
ByLayer
62
256
370
-1
100
AcDbLine
10
274.762250573
20
496.472095689
11
277.762250573
21
496.472095689
0
LINE
5
CC
100
AcDbEntity
8
Groupe#59
6
ByLayer
62
256
370
-1
100
AcDbLine
10
274.762250573
20
481.472095689
11
277.762250573
21
481.472095689
0
LINE
5
CD
100
AcDbEntity
8
Groupe#59
6
ByLayer
62
256
370
-1
100
AcDbLine
10
277.762250573
20
511.472095689
11
274.762250573
21
511.472095689
0
LINE
5
CE
100
AcDbEntity
8
Groupe#59
6
ByLayer
62
256
370
-1
100
AcDbLine
10
274.762250573
20
481.472095689
11
274.762250573
21
466.472095689
0
LINE
5
CF
100
AcDbEntity
8
Groupe#59
6
ByLayer
62
256
370
-1
100
AcDbLine
10
277.762250573
20
514.472095689
11
277.762250573
21
511.472095689
0
LINE
5
D0
100
AcDbEntity
8
Groupe#59
6
ByLayer
62
256
370
-1
100
AcDbLine
10
277.762250573
20
286.472095689
11
277.762250573
21
279.472095689
0
LINE
5
D1
100
AcDbEntity
8
Groupe#60
6
ByLayer
62
256
370
-1
100
AcDbLine
10
527.762250573
20
367.472095689
11
527.762250573
21
382.472095689
0
LINE
5
D2
100
AcDbEntity
8
Groupe#60
6
ByLayer
62
256
370
-1
100
AcDbLine
10
527.762250573
20
427.472095689
11
527.762250573
21
442.472095689
0
LINE
5
D3
100
AcDbEntity
8
Groupe#60
6
ByLayer
62
256
370
-1
100
AcDbLine
10
527.762250573
20
337.472095689
11
527.762250573
21
352.472095689
0
LINE
5
D4
100
AcDbEntity
8
Groupe#60
6
ByLayer
62
256
370
-1
100
AcDbLine
10
530.762250573
20
502.472095689
11
530.762250573
21
517.472095689
0
LINE
5
D5
100
AcDbEntity
8
Groupe#60
6
ByLayer
62
256
370
-1
100
AcDbLine
10
530.762250573
20
472.472095689
11
530.762250573
21
487.472095689
0
LINE
5
D6
100
AcDbEntity
8
Groupe#60
6
ByLayer
62
256
370
-1
100
AcDbLine
10
530.762250573
20
352.472095689
11
530.762250573
21
367.472095689
0
LINE
5
D7
100
AcDbEntity
8
Groupe#60
6
ByLayer
62
256
370
-1
100
AcDbLine
10
530.762250573
20
382.472095689
11
530.762250573
21
397.472095689
0
LINE
5
D8
100
AcDbEntity
8
Groupe#60
6
ByLayer
62
256
370
-1
100
AcDbLine
10
530.762250573
20
337.472095689
11
527.762250573
21
337.472095689
0
LINE
5
D9
100
AcDbEntity
8
Groupe#60
6
ByLayer
62
256
370
-1
100
AcDbLine
10
530.762250573
20
322.472095689
11
530.762250573
21
337.472095689
0
LINE
5
DA
100
AcDbEntity
8
Groupe#60
6
ByLayer
62
256
370
-1
100
AcDbLine
10
530.762250573
20
292.472095689
11
530.762250573
21
307.472095689
0
LINE
5
DB
100
AcDbEntity
8
Groupe#60
6
ByLayer
62
256
370
-1
100
AcDbLine
10
530.762250573
20
412.472095689
11
530.762250573
21
427.472095689
0
LINE
5
DC
100
AcDbEntity
8
Groupe#60
6
ByLayer
62
256
370
-1
100
AcDbLine
10
530.762250573
20
442.472095689
11
530.762250573
21
457.472095689
0
LINE
5
DD
100
AcDbEntity
8
Groupe#60
6
ByLayer
62
256
370
-1
100
AcDbLine
10
527.762250573
20
292.472095689
11
530.762250573
21
292.472095689
0
LINE
5
DE
100
AcDbEntity
8
Groupe#60
6
ByLayer
62
256
370
-1
100
AcDbLine
10
530.762250573
20
382.472095689
11
527.762250573
21
382.472095689
0
LINE
5
DF
100
AcDbEntity
8
Groupe#60
6
ByLayer
62
256
370
-1
100
AcDbLine
10
530.762250573
20
397.472095689
11
527.762250573
21
397.472095689
0
LINE
5
E0
100
AcDbEntity
8
Groupe#60
6
ByLayer
62
256
370
-1
100
AcDbLine
10
527.762250573
20
412.472095689
11
530.762250573
21
412.472095689
0
LINE
5
E1
100
AcDbEntity
8
Groupe#60
6
ByLayer
62
256
370
-1
100
AcDbLine
10
530.762250573
20
427.472095689
11
527.762250573
21
427.472095689
0
LINE
5
E2
100
AcDbEntity
8
Groupe#60
6
ByLayer
62
256
370
-1
100
AcDbLine
10
527.762250573
20
352.472095689
11
530.762250573
21
352.472095689
0
LINE
5
E3
100
AcDbEntity
8
Groupe#60
6
ByLayer
62
256
370
-1
100
AcDbLine
10
530.762250573
20
517.472095689
11
527.762250573
21
517.472095689
0
LINE
5
E4
100
AcDbEntity
8
Groupe#60
6
ByLayer
62
256
370
-1
100
AcDbLine
10
530.762250573
20
502.472095689
11
527.762250573
21
502.472095689
0
LINE
5
E5
100
AcDbEntity
8
Groupe#60
6
ByLayer
62
256
370
-1
100
AcDbLine
10
530.762250573
20
487.472095689
11
527.762250573
21
487.472095689
0
LINE
5
E6
100
AcDbEntity
8
Groupe#60
6
ByLayer
62
256
370
-1
100
AcDbLine
10
527.762250573
20
517.472095689
11
527.762250573
21
532.472095689
0
LINE
5
E7
100
AcDbEntity
8
Groupe#60
6
ByLayer
62
256
370
-1
100
AcDbLine
10
527.762250573
20
487.472095689
11
527.762250573
21
502.472095689
0
LINE
5
E8
100
AcDbEntity
8
Groupe#60
6
ByLayer
62
256
370
-1
100
AcDbLine
10
527.762250573
20
457.472095689
11
527.762250573
21
472.472095689
0
LINE
5
E9
100
AcDbEntity
8
Groupe#60
6
ByLayer
62
256
370
-1
100
AcDbLine
10
527.762250573
20
292.472095689
11
527.762250573
21
276.472095689
0
LINE
5
EA
100
AcDbEntity
8
Groupe#60
6
ByLayer
62
256
370
-1
100
AcDbLine
10
527.762250573
20
472.472095689
11
530.762250573
21
472.472095689
0
LINE
5
EB
100
AcDbEntity
8
Groupe#60
6
ByLayer
62
256
370
-1
100
AcDbLine
10
530.762250573
20
442.472095689
11
527.762250573
21
442.472095689
0
LINE
5
EC
100
AcDbEntity
8
Groupe#60
6
ByLayer
62
256
370
-1
100
AcDbLine
10
530.762250573
20
457.472095689
11
527.762250573
21
457.472095689
0
LINE
5
ED
100
AcDbEntity
8
Groupe#60
6
ByLayer
62
256
370
-1
100
AcDbLine
10
530.762250573
20
307.472095689
11
527.762250573
21
307.472095689
0
LINE
5
EE
100
AcDbEntity
8
Groupe#60
6
ByLayer
62
256
370
-1
100
AcDbLine
10
530.762250573
20
322.472095689
11
527.762250573
21
322.472095689
0
LINE
5
EF
100
AcDbEntity
8
Groupe#60
6
ByLayer
62
256
370
-1
100
AcDbLine
10
530.762250573
20
367.472095689
11
527.762250573
21
367.472095689
0
LINE
5
F0
100
AcDbEntity
8
Groupe#60
6
ByLayer
62
256
370
-1
100
AcDbLine
10
527.762250573
20
307.472095689
11
527.762250573
21
322.472095689
0
LINE
5
F1
100
AcDbEntity
8
Groupe#60
6
ByLayer
62
256
370
-1
100
AcDbLine
10
527.762250573
20
397.472095689
11
527.762250573
21
412.472095689
0
LINE
5
F2
100
AcDbEntity
8
Groupe#60
6
ByLayer
62
256
370
-1
100
AcDbLine
10
572.762250573
20
276.472095689
11
572.762250573
21
279.472095689
0
LINE
5
F3
100
AcDbEntity
8
Groupe#60
6
ByLayer
62
256
370
-1
100
AcDbLine
10
587.762250573
20
276.472095689
11
602.762250573
21
276.472095689
0
LINE
5
F4
100
AcDbEntity
8
Groupe#60
6
ByLayer
62
256
370
-1
100
AcDbLine
10
527.762250573
20
276.472095689
11
542.762250573
21
276.472095689
0
LINE
5
F5
100
AcDbEntity
8
Groupe#60
6
ByLayer
62
256
370
-1
100
AcDbLine
10
557.762250573
20
276.472095689
11
572.762250573
21
276.472095689
0
LINE
5
F6
100
AcDbEntity
8
Groupe#60
6
ByLayer
62
256
370
-1
100
AcDbLine
10
542.762250573
20
276.472095689
11
542.762250573
21
279.472095689
0
LINE
5
F7
100
AcDbEntity
8
Groupe#60
6
ByLayer
62
256
370
-1
100
AcDbLine
10
602.762250573
20
276.472095689
11
602.762250573
21
279.472095689
0
LINE
5
F8
100
AcDbEntity
8
Groupe#60
6
ByLayer
62
256
370
-1
100
AcDbLine
10
587.762250573
20
279.472095689
11
587.762250573
21
276.472095689
0
LINE
5
F9
100
AcDbEntity
8
Groupe#60
6
ByLayer
62
256
370
-1
100
AcDbLine
10
557.762250573
20
276.472095689
11
557.762250573
21
279.472095689
0
LINE
5
FA
100
AcDbEntity
8
Groupe#60
6
ByLayer
62
256
370
-1
100
AcDbLine
10
722.762250573
20
276.472095689
11
722.762250573
21
279.472095689
0
LINE
5
FB
100
AcDbEntity
8
Groupe#60
6
ByLayer
62
256
370
-1
100
AcDbLine
10
632.762250573
20
276.472095689
11
632.762250573
21
279.472095689
0
LINE
5
FC
100
AcDbEntity
8
Groupe#60
6
ByLayer
62
256
370
-1
100
AcDbLine
10
617.762250573
20
276.472095689
11
632.762250573
21
276.472095689
0
LINE
5
FD
100
AcDbEntity
8
Groupe#60
6
ByLayer
62
256
370
-1
100
AcDbLine
10
677.762250573
20
276.472095689
11
692.762250573
21
276.472095689
0
LINE
5
FE
100
AcDbEntity
8
Groupe#60
6
ByLayer
62
256
370
-1
100
AcDbLine
10
707.762250573
20
276.472095689
11
722.762250573
21
276.472095689
0
LINE
5
FF
100
AcDbEntity
8
Groupe#60
6
ByLayer
62
256
370
-1
100
AcDbLine
10
647.762250573
20
276.472095689
11
647.762250573
21
279.472095689
0
LINE
5
100
100
AcDbEntity
8
Groupe#60
6
ByLayer
62
256
370
-1
100
AcDbLine
10
662.762250573
20
276.472095689
11
662.762250573
21
279.472095689
0
LINE
5
101
100
AcDbEntity
8
Groupe#60
6
ByLayer
62
256
370
-1
100
AcDbLine
10
677.762250573
20
279.472095689
11
677.762250573
21
276.472095689
0
LINE
5
102
100
AcDbEntity
8
Groupe#60
6
ByLayer
62
256
370
-1
100
AcDbLine
10
692.762250573
20
276.472095689
11
692.762250573
21
279.472095689
0
LINE
5
103
100
AcDbEntity
8
Groupe#60
6
ByLayer
62
256
370
-1
100
AcDbLine
10
617.762250573
20
279.472095689
11
617.762250573
21
276.472095689
0
LINE
5
104
100
AcDbEntity
8
Groupe#60
6
ByLayer
62
256
370
-1
100
AcDbLine
10
707.762250573
20
276.472095689
11
707.762250573
21
279.472095689
0
LINE
5
105
100
AcDbEntity
8
Groupe#60
6
ByLayer
62
256
370
-1
100
AcDbLine
10
542.762250573
20
279.472095689
11
557.762250573
21
279.472095689
0
LINE
5
106
100
AcDbEntity
8
Groupe#60
6
ByLayer
62
256
370
-1
100
AcDbLine
10
602.762250573
20
279.472095689
11
617.762250573
21
279.472095689
0
LINE
5
107
100
AcDbEntity
8
Groupe#60
6
ByLayer
62
256
370
-1
100
AcDbLine
10
572.762250573
20
279.472095689
11
587.762250573
21
279.472095689
0
LINE
5
108
100
AcDbEntity
8
Groupe#60
6
ByLayer
62
256
370
-1
100
AcDbLine
10
632.762250573
20
279.472095689
11
647.762250573
21
279.472095689
0
LINE
5
109
100
AcDbEntity
8
Groupe#60
6
ByLayer
62
256
370
-1
100
AcDbLine
10
722.762250573
20
279.472095689
11
740.762250573
21
279.472095689
0
LINE
5
10A
100
AcDbEntity
8
Groupe#60
6
ByLayer
62
256
370
-1
100
AcDbLine
10
662.762250573
20
279.472095689
11
677.762250573
21
279.472095689
0
LINE
5
10B
100
AcDbEntity
8
Groupe#60
6
ByLayer
62
256
370
-1
100
AcDbLine
10
692.762250573
20
279.472095689
11
707.762250573
21
279.472095689
0
LINE
5
10C
100
AcDbEntity
8
Groupe#60
6
ByLayer
62
256
370
-1
100
AcDbLine
10
647.762250573
20
276.472095689
11
662.762250573
21
276.472095689
0
LINE
5
10D
100
AcDbEntity
8
Groupe#60
6
ByLayer
62
256
370
-1
100
AcDbLine
10
632.762250573
20
532.472095689
11
617.762250573
21
532.472095689
0
LINE
5
10E
100
AcDbEntity
8
Groupe#60
6
ByLayer
62
256
370
-1
100
AcDbLine
10
677.762250573
20
532.472095689
11
677.762250573
21
529.472095689
0
LINE
5
10F
100
AcDbEntity
8
Groupe#60
6
ByLayer
62
256
370
-1
100
AcDbLine
10
692.762250573
20
529.472095689
11
692.762250573
21
532.472095689
0
LINE
5
110
100
AcDbEntity
8
Groupe#60
6
ByLayer
62
256
370
-1
100
AcDbLine
10
707.762250573
20
532.472095689
11
707.762250573
21
529.472095689
0
LINE
5
111
100
AcDbEntity
8
Groupe#60
6
ByLayer
62
256
370
-1
100
AcDbLine
10
692.762250573
20
532.472095689
11
677.762250573
21
532.472095689
0
LINE
5
112
100
AcDbEntity
8
Groupe#60
6
ByLayer
62
256
370
-1
100
AcDbLine
10
722.762250573
20
532.472095689
11
707.762250573
21
532.472095689
0
LINE
5
113
100
AcDbEntity
8
Groupe#60
6
ByLayer
62
256
370
-1
100
AcDbLine
10
722.762250573
20
532.472095689
11
722.762250573
21
529.472095689
0
LINE
5
114
100
AcDbEntity
8
Groupe#60
6
ByLayer
62
256
370
-1
100
AcDbLine
10
557.762250573
20
532.472095689
11
557.762250573
21
529.472095689
0
LINE
5
115
100
AcDbEntity
8
Groupe#60
6
ByLayer
62
256
370
-1
100
AcDbLine
10
647.762250573
20
532.472095689
11
647.762250573
21
529.472095689
0
LINE
5
116
100
AcDbEntity
8
Groupe#60
6
ByLayer
62
256
370
-1
100
AcDbLine
10
542.762250573
20
532.472095689
11
527.762250573
21
532.472095689
0
LINE
5
117
100
AcDbEntity
8
Groupe#60
6
ByLayer
62
256
370
-1
100
AcDbLine
10
662.762250573
20
532.472095689
11
647.762250573
21
532.472095689
0
LINE
5
118
100
AcDbEntity
8
Groupe#60
6
ByLayer
62
256
370
-1
100
AcDbLine
10
602.762250573
20
532.472095689
11
587.762250573
21
532.472095689
0
LINE
5
119
100
AcDbEntity
8
Groupe#60
6
ByLayer
62
256
370
-1
100
AcDbLine
10
572.762250573
20
532.472095689
11
557.762250573
21
532.472095689
0
LINE
5
11A
100
AcDbEntity
8
Groupe#60
6
ByLayer
62
256
370
-1
100
AcDbLine
10
632.762250573
20
532.472095689
11
632.762250573
21
529.472095689
0
LINE
5
11B
100
AcDbEntity
8
Groupe#60
6
ByLayer
62
256
370
-1
100
AcDbLine
10
617.762250573
20
532.472095689
11
617.762250573
21
529.472095689
0
LINE
5
11C
100
AcDbEntity
8
Groupe#60
6
ByLayer
62
256
370
-1
100
AcDbLine
10
602.762250573
20
529.472095689
11
602.762250573
21
532.472095689
0
LINE
5
11D
100
AcDbEntity
8
Groupe#60
6
ByLayer
62
256
370
-1
100
AcDbLine
10
587.762250573
20
532.472095689
11
587.762250573
21
529.472095689
0
LINE
5
11E
100
AcDbEntity
8
Groupe#60
6
ByLayer
62
256
370
-1
100
AcDbLine
10
662.762250573
20
529.472095689
11
662.762250573
21
532.472095689
0
LINE
5
11F
100
AcDbEntity
8
Groupe#60
6
ByLayer
62
256
370
-1
100
AcDbLine
10
542.762250573
20
529.472095689
11
542.762250573
21
532.472095689
0
LINE
5
120
100
AcDbEntity
8
Groupe#60
6
ByLayer
62
256
370
-1
100
AcDbLine
10
572.762250573
20
532.472095689
11
572.762250573
21
529.472095689
0
LINE
5
121
100
AcDbEntity
8
Groupe#60
6
ByLayer
62
256
370
-1
100
AcDbLine
10
572.762250573
20
529.472095689
11
587.762250573
21
529.472095689
0
LINE
5
122
100
AcDbEntity
8
Groupe#60
6
ByLayer
62
256
370
-1
100
AcDbLine
10
542.762250573
20
529.472095689
11
557.762250573
21
529.472095689
0
LINE
5
123
100
AcDbEntity
8
Groupe#60
6
ByLayer
62
256
370
-1
100
AcDbLine
10
602.762250573
20
529.472095689
11
617.762250573
21
529.472095689
0
LINE
5
124
100
AcDbEntity
8
Groupe#60
6
ByLayer
62
256
370
-1
100
AcDbLine
10
722.762250573
20
529.472095689
11
740.762250573
21
529.472095689
0
LINE
5
125
100
AcDbEntity
8
Groupe#60
6
ByLayer
62
256
370
-1
100
AcDbLine
10
692.762250573
20
529.472095689
11
707.762250573
21
529.472095689
0
LINE
5
126
100
AcDbEntity
8
Groupe#60
6
ByLayer
62
256
370
-1
100
AcDbLine
10
662.762250573
20
529.472095689
11
677.762250573
21
529.472095689
0
LINE
5
127
100
AcDbEntity
8
Groupe#60
6
ByLayer
62
256
370
-1
100
AcDbLine
10
632.762250573
20
529.472095689
11
647.762250573
21
529.472095689
0
LINE
5
128
100
AcDbEntity
8
Groupe#60
6
ByLayer
62
256
370
-1
100
AcDbLine
10
770.762250573
20
412.472095689
11
773.762250573
21
412.472095689
0
LINE
5
129
100
AcDbEntity
8
Groupe#60
6
ByLayer
62
256
370
-1
100
AcDbLine
10
773.762250573
20
502.472095689
11
773.762250573
21
487.472095689
0
LINE
5
12A
100
AcDbEntity
8
Groupe#60
6
ByLayer
62
256
370
-1
100
AcDbLine
10
770.762250573
20
457.472095689
11
770.762250573
21
442.472095689
0
LINE
5
12B
100
AcDbEntity
8
Groupe#60
6
ByLayer
62
256
370
-1
100
AcDbLine
10
773.762250573
20
337.472095689
11
770.762250573
21
337.472095689
0
LINE
5
12C
100
AcDbEntity
8
Groupe#60
6
ByLayer
62
256
370
-1
100
AcDbLine
10
773.762250573
20
367.472095689
11
770.762250573
21
367.472095689
0
LINE
5
12D
100
AcDbEntity
8
Groupe#60
6
ByLayer
62
256
370
-1
100
AcDbLine
10
770.762250573
20
367.472095689
11
770.762250573
21
352.472095689
0
LINE
5
12E
100
AcDbEntity
8
Groupe#60
6
ByLayer
62
256
370
-1
100
AcDbLine
10
773.762250573
20
529.472095689
11
773.762250573
21
517.472095689
0
LINE
5
12F
100
AcDbEntity
8
Groupe#60
6
ByLayer
62
256
370
-1
100
AcDbLine
10
773.762250573
20
442.472095689
11
773.762250573
21
427.472095689
0
LINE
5
130
100
AcDbEntity
8
Groupe#60
6
ByLayer
62
256
370
-1
100
AcDbLine
10
770.762250573
20
472.472095689
11
773.762250573
21
472.472095689
0
LINE
5
131
100
AcDbEntity
8
Groupe#60
6
ByLayer
62
256
370
-1
100
AcDbLine
10
773.762250573
20
279.472095689
11
773.762250573
21
292.472095689
0
LINE
5
132
100
AcDbEntity
8
Groupe#60
6
ByLayer
62
256
370
-1
100
AcDbLine
10
773.762250573
20
412.472095689
11
773.762250573
21
397.472095689
0
LINE
5
133
100
AcDbEntity
8
Groupe#60
6
ByLayer
62
256
370
-1
100
AcDbLine
10
773.762250573
20
442.472095689
11
770.762250573
21
442.472095689
0
LINE
5
134
100
AcDbEntity
8
Groupe#60
6
ByLayer
62
256
370
-1
100
AcDbLine
10
770.762250573
20
337.472095689
11
770.762250573
21
322.472095689
0
LINE
5
135
100
AcDbEntity
8
Groupe#60
6
ByLayer
62
256
370
-1
100
AcDbLine
10
770.762250573
20
307.472095689
11
770.762250573
21
292.472095689
0
LINE
5
136
100
AcDbEntity
8
Groupe#60
6
ByLayer
62
256
370
-1
100
AcDbLine
10
773.762250573
20
322.472095689
11
770.762250573
21
322.472095689
0
LINE
5
137
100
AcDbEntity
8
Groupe#60
6
ByLayer
62
256
370
-1
100
AcDbLine
10
773.762250573
20
487.472095689
11
770.762250573
21
487.472095689
0
LINE
5
138
100
AcDbEntity
8
Groupe#60
6
ByLayer
62
256
370
-1
100
AcDbLine
10
773.762250573
20
517.472095689
11
770.762250573
21
517.472095689
0
LINE
5
139
100
AcDbEntity
8
Groupe#60
6
ByLayer
62
256
370
-1
100
AcDbLine
10
773.762250573
20
502.472095689
11
770.762250573
21
502.472095689
0
LINE
5
13A
100
AcDbEntity
8
Groupe#60
6
ByLayer
62
256
370
-1
100
AcDbLine
10
770.762250573
20
292.472095689
11
773.762250573
21
292.472095689
0
LINE
5
13B
100
AcDbEntity
8
Groupe#60
6
ByLayer
62
256
370
-1
100
AcDbLine
10
773.762250573
20
472.472095689
11
773.762250573
21
457.472095689
0
LINE
5
13C
100
AcDbEntity
8
Groupe#60
6
ByLayer
62
256
370
-1
100
AcDbLine
10
773.762250573
20
382.472095689
11
770.762250573
21
382.472095689
0
LINE
5
13D
100
AcDbEntity
8
Groupe#60
6
ByLayer
62
256
370
-1
100
AcDbLine
10
773.762250573
20
352.472095689
11
773.762250573
21
337.472095689
0
LINE
5
13E
100
AcDbEntity
8
Groupe#60
6
ByLayer
62
256
370
-1
100
AcDbLine
10
770.762250573
20
487.472095689
11
770.762250573
21
472.472095689
0
LINE
5
13F
100
AcDbEntity
8
Groupe#60
6
ByLayer
62
256
370
-1
100
AcDbLine
10
773.762250573
20
382.472095689
11
773.762250573
21
367.472095689
0
LINE
5
140
100
AcDbEntity
8
Groupe#60
6
ByLayer
62
256
370
-1
100
AcDbLine
10
770.762250573
20
397.472095689
11
770.762250573
21
382.472095689
0
LINE
5
141
100
AcDbEntity
8
Groupe#60
6
ByLayer
62
256
370
-1
100
AcDbLine
10
773.762250573
20
322.472095689
11
773.762250573
21
307.472095689
0
LINE
5
142
100
AcDbEntity
8
Groupe#60
6
ByLayer
62
256
370
-1
100
AcDbLine
10
773.762250573
20
457.472095689
11
770.762250573
21
457.472095689
0
LINE
5
143
100
AcDbEntity
8
Groupe#60
6
ByLayer
62
256
370
-1
100
AcDbLine
10
773.762250573
20
397.472095689
11
770.762250573
21
397.472095689
0
LINE
5
144
100
AcDbEntity
8
Groupe#60
6
ByLayer
62
256
370
-1
100
AcDbLine
10
773.762250573
20
427.472095689
11
770.762250573
21
427.472095689
0
LINE
5
145
100
AcDbEntity
8
Groupe#60
6
ByLayer
62
256
370
-1
100
AcDbLine
10
770.762250573
20
352.472095689
11
773.762250573
21
352.472095689
0
LINE
5
146
100
AcDbEntity
8
Groupe#60
6
ByLayer
62
256
370
-1
100
AcDbLine
10
773.762250573
20
307.472095689
11
770.762250573
21
307.472095689
0
LINE
5
147
100
AcDbEntity
8
Groupe#60
6
ByLayer
62
256
370
-1
100
AcDbLine
10
770.762250573
20
427.472095689
11
770.762250573
21
412.472095689
0
LINE
5
148
100
AcDbEntity
8
Groupe#60
6
ByLayer
62
256
370
-1
100
AcDbLine
10
770.762250573
20
517.472095689
11
770.762250573
21
502.472095689
0
LINE
5
149
100
AcDbEntity
8
Groupe#60
6
ByLayer
62
256
370
-1
100
AcDbLine
10
740.762250573
20
276.472095689
11
755.762250573
21
276.472095689
0
LINE
5
14A
100
AcDbEntity
8
Groupe#60
6
ByLayer
62
256
370
-1
100
AcDbLine
10
755.762250573
20
532.472095689
11
755.762250573
21
529.472095689
0
LINE
5
14B
100
AcDbEntity
8
Groupe#60
6
ByLayer
62
256
370
-1
100
AcDbLine
10
755.762250573
20
279.472095689
11
773.762250573
21
279.472095689
0
LINE
5
14C
100
AcDbEntity
8
Groupe#60
6
ByLayer
62
256
370
-1
100
AcDbLine
10
740.762250573
20
276.472095689
11
740.762250573
21
279.472095689
0
LINE
5
14D
100
AcDbEntity
8
Groupe#60
6
ByLayer
62
256
370
-1
100
AcDbLine
10
755.762250573
20
529.472095689
11
773.762250573
21
529.472095689
0
LINE
5
14E
100
AcDbEntity
8
Groupe#60
6
ByLayer
62
256
370
-1
100
AcDbLine
10
755.762250573
20
532.472095689
11
740.762250573
21
532.472095689
0
LINE
5
14F
100
AcDbEntity
8
Groupe#60
6
ByLayer
62
256
370
-1
100
AcDbLine
10
740.762250573
20
532.472095689
11
740.762250573
21
529.472095689
0
LINE
5
150
100
AcDbEntity
8
Groupe#60
6
ByLayer
62
256
370
-1
100
AcDbLine
10
755.762250573
20
276.472095689
11
755.762250573
21
279.472095689
0
LINE
5
151
100
AcDbEntity
8
Groupe#60
6
ByLayer
62
256
370
-1
100
AcDbLine
10
752.944470404
20
353.542679303
11
753.762250573
21
359.754336385
0
LINE
5
152
100
AcDbEntity
8
Groupe#60
6
ByLayer
62
256
370
-1
100
AcDbLine
10
753.762250573
20
359.754336385
11
752.944470404
21
365.965993468
0
LINE
5
153
100
AcDbEntity
8
Groupe#60
6
ByLayer
62
256
370
-1
100
AcDbLine
10
752.944470404
20
365.965993468
11
750.546860264
21
371.754336385
0
LINE
5
154
100
AcDbEntity
8
Groupe#60
6
ByLayer
62
256
370
-1
100
AcDbLine
10
750.546860264
20
371.754336385
11
746.732813322
21
376.724899134
0
LINE
5
155
100
AcDbEntity
8
Groupe#60
6
ByLayer
62
256
370
-1
100
AcDbLine
10
746.732813322
20
376.724899134
11
741.762250573
21
380.538946076
0
LINE
5
156
100
AcDbEntity
8
Groupe#60
6
ByLayer
62
256
370
-1
100
AcDbLine
10
741.762250573
20
380.538946076
11
735.973907656
21
382.936556216
0
LINE
5
157
100
AcDbEntity
8
Groupe#60
6
ByLayer
62
256
370
-1
100
AcDbLine
10
735.973907656
20
382.936556216
11
729.762250573
21
383.754336385
0
LINE
5
158
100
AcDbEntity
8
Groupe#60
6
ByLayer
62
256
370
-1
100
AcDbLine
10
729.762250573
20
383.754336385
11
723.550593491
21
382.936556216
0
LINE
5
159
100
AcDbEntity
8
Groupe#60
6
ByLayer
62
256
370
-1
100
AcDbLine
10
723.550593491
20
382.936556216
11
717.762250573
21
380.538946076
0
LINE
5
15A
100
AcDbEntity
8
Groupe#60
6
ByLayer
62
256
370
-1
100
AcDbLine
10
717.762250573
20
380.538946076
11
712.791687825
21
376.724899134
0
LINE
5
15B
100
AcDbEntity
8
Groupe#60
6
ByLayer
62
256
370
-1
100
AcDbLine
10
712.791687825
20
376.724899134
11
708.977640882
21
371.754336385
0
LINE
5
15C
100
AcDbEntity
8
Groupe#60
6
ByLayer
62
256
370
-1
100
AcDbLine
10
708.977640882
20
371.754336385
11
706.580030742
21
365.965993468
0
LINE
5
15D
100
AcDbEntity
8
Groupe#60
6
ByLayer
62
256
370
-1
100
AcDbLine
10
706.580030742
20
365.965993468
11
705.762250573
21
359.754336385
0
LINE
5
15E
100
AcDbEntity
8
Groupe#60
6
ByLayer
62
256
370
-1
100
AcDbLine
10
705.762250573
20
359.754336385
11
706.580030742
21
353.542679303
0
LINE
5
15F
100
AcDbEntity
8
Groupe#60
6
ByLayer
62
256
370
-1
100
AcDbLine
10
706.580030742
20
353.542679303
11
708.977640882
21
347.754336385
0
LINE
5
160
100
AcDbEntity
8
Groupe#60
6
ByLayer
62
256
370
-1
100
AcDbLine
10
708.977640882
20
347.754336385
11
712.791687825
21
342.783773637
0
LINE
5
161
100
AcDbEntity
8
Groupe#60
6
ByLayer
62
256
370
-1
100
AcDbLine
10
712.791687825
20
342.783773637
11
717.762250573
21
338.969726695
0
LINE
5
162
100
AcDbEntity
8
Groupe#60
6
ByLayer
62
256
370
-1
100
AcDbLine
10
717.762250573
20
338.969726695
11
723.550593491
21
336.572116555
0
LINE
5
163
100
AcDbEntity
8
Groupe#60
6
ByLayer
62
256
370
-1
100
AcDbLine
10
723.550593491
20
336.572116555
11
729.762250573
21
335.754336385
0
LINE
5
164
100
AcDbEntity
8
Groupe#60
6
ByLayer
62
256
370
-1
100
AcDbLine
10
729.762250573
20
335.754336385
11
735.973907656
21
336.572116555
0
LINE
5
165
100
AcDbEntity
8
Groupe#60
6
ByLayer
62
256
370
-1
100
AcDbLine
10
735.973907656
20
336.572116555
11
741.762250573
21
338.969726695
0
LINE
5
166
100
AcDbEntity
8
Groupe#60
6
ByLayer
62
256
370
-1
100
AcDbLine
10
741.762250573
20
338.969726695
11
746.732813322
21
342.783773637
0
LINE
5
167
100
AcDbEntity
8
Groupe#60
6
ByLayer
62
256
370
-1
100
AcDbLine
10
746.732813322
20
342.783773637
11
750.546860264
21
347.754336385
0
LINE
5
168
100
AcDbEntity
8
Groupe#60
6
ByLayer
62
256
370
-1
100
AcDbLine
10
750.546860264
20
347.754336385
11
752.944470404
21
353.542679303
0
LINE
5
169
100
AcDbEntity
8
Groupe#61
6
ByLayer
62
256
370
-1
100
AcDbLine
10
277.762250573
20
526.472095689
11
277.762250573
21
511.472095689
0
LINE
5
16A
100
AcDbEntity
8
Groupe#61
6
ByLayer
62
256
370
-1
100
AcDbLine
10
277.762250573
20
286.472095689
11
277.762250573
21
276.472095689
0
LINE
5
16B
100
AcDbEntity
8
Groupe#61
6
ByLayer
62
256
370
-1
100
AcDbLine
10
277.762250573
20
406.472095689
11
277.762250573
21
391.472095689
0
LINE
5
16C
100
AcDbEntity
8
Groupe#61
6
ByLayer
62
256
370
-1
100
AcDbLine
10
277.762250573
20
496.472095689
11
277.762250573
21
481.472095689
0
LINE
5
16D
100
AcDbEntity
8
Groupe#61
6
ByLayer
62
256
370
-1
100
AcDbLine
10
277.762250573
20
466.472095689
11
277.762250573
21
451.472095689
0
LINE
5
16E
100
AcDbEntity
8
Groupe#61
6
ByLayer
62
256
370
-1
100
AcDbLine
10
277.762250573
20
376.472095689
11
277.762250573
21
361.472095689
0
LINE
5
16F
100
AcDbEntity
8
Groupe#61
6
ByLayer
62
256
370
-1
100
AcDbLine
10
277.762250573
20
316.472095689
11
277.762250573
21
301.472095689
0
LINE
5
170
100
AcDbEntity
8
Groupe#61
6
ByLayer
62
256
370
-1
100
AcDbLine
10
274.762250573
20
451.472095689
11
274.762250573
21
436.472095689
0
LINE
5
171
100
AcDbEntity
8
Groupe#61
6
ByLayer
62
256
370
-1
100
AcDbLine
10
274.762250573
20
421.472095689
11
274.762250573
21
406.472095689
0
LINE
5
172
100
AcDbEntity
8
Groupe#61
6
ByLayer
62
256
370
-1
100
AcDbLine
10
277.762250573
20
391.472095689
11
274.762250573
21
391.472095689
0
LINE
5
173
100
AcDbEntity
8
Groupe#61
6
ByLayer
62
256
370
-1
100
AcDbLine
10
274.762250573
20
481.472095689
11
274.762250573
21
466.472095689
0
LINE
5
174
100
AcDbEntity
8
Groupe#61
6
ByLayer
62
256
370
-1
100
AcDbLine
10
274.762250573
20
511.472095689
11
274.762250573
21
496.472095689
0
LINE
5
175
100
AcDbEntity
8
Groupe#61
6
ByLayer
62
256
370
-1
100
AcDbLine
10
274.762250573
20
391.472095689
11
274.762250573
21
376.472095689
0
LINE
5
176
100
AcDbEntity
8
Groupe#61
6
ByLayer
62
256
370
-1
100
AcDbLine
10
277.762250573
20
511.472095689
11
274.762250573
21
511.472095689
0
LINE
5
177
100
AcDbEntity
8
Groupe#61
6
ByLayer
62
256
370
-1
100
AcDbLine
10
274.762250573
20
421.472095689
11
277.762250573
21
421.472095689
0
LINE
5
178
100
AcDbEntity
8
Groupe#61
6
ByLayer
62
256
370
-1
100
AcDbLine
10
274.762250573
20
376.472095689
11
277.762250573
21
376.472095689
0
LINE
5
179
100
AcDbEntity
8
Groupe#61
6
ByLayer
62
256
370
-1
100
AcDbLine
10
274.762250573
20
301.472095689
11
277.762250573
21
301.472095689
0
LINE
5
17A
100
AcDbEntity
8
Groupe#61
6
ByLayer
62
256
370
-1
100
AcDbLine
10
274.762250573
20
316.472095689
11
277.762250573
21
316.472095689
0
LINE
5
17B
100
AcDbEntity
8
Groupe#61
6
ByLayer
62
256
370
-1
100
AcDbLine
10
277.762250573
20
331.472095689
11
274.762250573
21
331.472095689
0
LINE
5
17C
100
AcDbEntity
8
Groupe#61
6
ByLayer
62
256
370
-1
100
AcDbLine
10
274.762250573
20
361.472095689
11
277.762250573
21
361.472095689
0
LINE
5
17D
100
AcDbEntity
8
Groupe#61
6
ByLayer
62
256
370
-1
100
AcDbLine
10
274.762250573
20
346.472095689
11
277.762250573
21
346.472095689
0
LINE
5
17E
100
AcDbEntity
8
Groupe#61
6
ByLayer
62
256
370
-1
100
AcDbLine
10
274.762250573
20
496.472095689
11
277.762250573
21
496.472095689
0
LINE
5
17F
100
AcDbEntity
8
Groupe#61
6
ByLayer
62
256
370
-1
100
AcDbLine
10
274.762250573
20
481.472095689
11
277.762250573
21
481.472095689
0
LINE
5
180
100
AcDbEntity
8
Groupe#61
6
ByLayer
62
256
370
-1
100
AcDbLine
10
274.762250573
20
436.472095689
11
277.762250573
21
436.472095689
0
LINE
5
181
100
AcDbEntity
8
Groupe#61
6
ByLayer
62
256
370
-1
100
AcDbLine
10
277.762250573
20
346.472095689
11
277.762250573
21
331.472095689
0
LINE
5
182
100
AcDbEntity
8
Groupe#61
6
ByLayer
62
256
370
-1
100
AcDbLine
10
277.762250573
20
436.472095689
11
277.762250573
21
421.472095689
0
LINE
5
183
100
AcDbEntity
8
Groupe#61
6
ByLayer
62
256
370
-1
100
AcDbLine
10
97.7622505732
20
273.472095689
11
97.7622505732
21
276.472095689
0
LINE
5
184
100
AcDbEntity
8
Groupe#61
6
ByLayer
62
256
370
-1
100
AcDbLine
10
127.762250573
20
276.472095689
11
127.762250573
21
273.472095689
0
LINE
5
185
100
AcDbEntity
8
Groupe#61
6
ByLayer
62
256
370
-1
100
AcDbLine
10
112.762250573
20
276.472095689
11
112.762250573
21
273.472095689
0
LINE
5
186
100
AcDbEntity
8
Groupe#61
6
ByLayer
62
256
370
-1
100
AcDbLine
10
262.762250573
20
276.472095689
11
262.762250573
21
273.472095689
0
LINE
5
187
100
AcDbEntity
8
Groupe#61
6
ByLayer
62
256
370
-1
100
AcDbLine
10
247.762250573
20
276.472095689
11
247.762250573
21
273.472095689
0
LINE
5
188
100
AcDbEntity
8
Groupe#61
6
ByLayer
62
256
370
-1
100
AcDbLine
10
202.762250573
20
276.472095689
11
202.762250573
21
273.472095689
0
LINE
5
189
100
AcDbEntity
8
Groupe#61
6
ByLayer
62
256
370
-1
100
AcDbLine
10
82.7622505732
20
273.472095689
11
67.7622505732
21
273.472095689
0
LINE
5
18A
100
AcDbEntity
8
Groupe#61
6
ByLayer
62
256
370
-1
100
AcDbLine
10
202.762250573
20
273.472095689
11
187.762250573
21
273.472095689
0
LINE
5
18B
100
AcDbEntity
8
Groupe#61
6
ByLayer
62
256
370
-1
100
AcDbLine
10
262.762250573
20
273.472095689
11
247.762250573
21
273.472095689
0
LINE
5
18C
100
AcDbEntity
8
Groupe#61
6
ByLayer
62
256
370
-1
100
AcDbLine
10
232.762250573
20
273.472095689
11
217.762250573
21
273.472095689
0
LINE
5
18D
100
AcDbEntity
8
Groupe#61
6
ByLayer
62
256
370
-1
100
AcDbLine
10
172.762250573
20
273.472095689
11
157.762250573
21
273.472095689
0
LINE
5
18E
100
AcDbEntity
8
Groupe#61
6
ByLayer
62
256
370
-1
100
AcDbLine
10
142.762250573
20
273.472095689
11
127.762250573
21
273.472095689
0
LINE
5
18F
100
AcDbEntity
8
Groupe#61
6
ByLayer
62
256
370
-1
100
AcDbLine
10
157.762250573
20
273.472095689
11
157.762250573
21
276.472095689
0
LINE
5
190
100
AcDbEntity
8
Groupe#61
6
ByLayer
62
256
370
-1
100
AcDbLine
10
172.762250573
20
276.472095689
11
172.762250573
21
273.472095689
0
LINE
5
191
100
AcDbEntity
8
Groupe#61
6
ByLayer
62
256
370
-1
100
AcDbLine
10
142.762250573
20
276.472095689
11
142.762250573
21
273.472095689
0
LINE
5
192
100
AcDbEntity
8
Groupe#61
6
ByLayer
62
256
370
-1
100
AcDbLine
10
232.762250573
20
276.472095689
11
232.762250573
21
273.472095689
0
LINE
5
193
100
AcDbEntity
8
Groupe#61
6
ByLayer
62
256
370
-1
100
AcDbLine
10
217.762250573
20
273.472095689
11
217.762250573
21
276.472095689
0
LINE
5
194
100
AcDbEntity
8
Groupe#61
6
ByLayer
62
256
370
-1
100
AcDbLine
10
112.762250573
20
273.472095689
11
97.7622505732
21
273.472095689
0
LINE
5
195
100
AcDbEntity
8
Groupe#61
6
ByLayer
62
256
370
-1
100
AcDbLine
10
277.762250573
20
276.472095689
11
262.762250573
21
276.472095689
0
LINE
5
196
100
AcDbEntity
8
Groupe#61
6
ByLayer
62
256
370
-1
100
AcDbLine
10
97.7622505732
20
276.472095689
11
82.7622505732
21
276.472095689
0
LINE
5
197
100
AcDbEntity
8
Groupe#61
6
ByLayer
62
256
370
-1
100
AcDbLine
10
217.762250573
20
276.472095689
11
202.762250573
21
276.472095689
0
LINE
5
198
100
AcDbEntity
8
Groupe#61
6
ByLayer
62
256
370
-1
100
AcDbLine
10
187.762250573
20
276.472095689
11
172.762250573
21
276.472095689
0
LINE
5
199
100
AcDbEntity
8
Groupe#61
6
ByLayer
62
256
370
-1
100
AcDbLine
10
247.762250573
20
276.472095689
11
232.762250573
21
276.472095689
0
LINE
5
19A
100
AcDbEntity
8
Groupe#61
6
ByLayer
62
256
370
-1
100
AcDbLine
10
157.762250573
20
276.472095689
11
142.762250573
21
276.472095689
0
LINE
5
19B
100
AcDbEntity
8
Groupe#61
6
ByLayer
62
256
370
-1
100
AcDbLine
10
127.762250573
20
276.472095689
11
112.762250573
21
276.472095689
0
LINE
5
19C
100
AcDbEntity
8
Groupe#61
6
ByLayer
62
256
370
-1
100
AcDbLine
10
187.762250573
20
276.472095689
11
187.762250573
21
273.472095689
0
LINE
5
19D
100
AcDbEntity
8
Groupe#61
6
ByLayer
62
256
370
-1
100
AcDbLine
10
82.7622505732
20
276.472095689
11
82.7622505732
21
273.472095689
0
LINE
5
19E
100
AcDbEntity
8
Groupe#61
6
ByLayer
62
256
370
-1
100
AcDbLine
10
82.7622505732
20
526.472095689
11
97.7622505732
21
526.472095689
0
LINE
5
19F
100
AcDbEntity
8
Groupe#61
6
ByLayer
62
256
370
-1
100
AcDbLine
10
112.762250573
20
529.472095689
11
97.7622505732
21
529.472095689
0
LINE
5
1A0
100
AcDbEntity
8
Groupe#61
6
ByLayer
62
256
370
-1
100
AcDbLine
10
262.762250573
20
526.472095689
11
277.762250573
21
526.472095689
0
LINE
5
1A1
100
AcDbEntity
8
Groupe#61
6
ByLayer
62
256
370
-1
100
AcDbLine
10
232.762250573
20
526.472095689
11
247.762250573
21
526.472095689
0
LINE
5
1A2
100
AcDbEntity
8
Groupe#61
6
ByLayer
62
256
370
-1
100
AcDbLine
10
157.762250573
20
526.472095689
11
157.762250573
21
529.472095689
0
LINE
5
1A3
100
AcDbEntity
8
Groupe#61
6
ByLayer
62
256
370
-1
100
AcDbLine
10
97.7622505732
20
526.472095689
11
97.7622505732
21
529.472095689
0
LINE
5
1A4
100
AcDbEntity
8
Groupe#61
6
ByLayer
62
256
370
-1
100
AcDbLine
10
112.762250573
20
529.472095689
11
112.762250573
21
526.472095689
0
LINE
5
1A5
100
AcDbEntity
8
Groupe#61
6
ByLayer
62
256
370
-1
100
AcDbLine
10
172.762250573
20
529.472095689
11
157.762250573
21
529.472095689
0
LINE
5
1A6
100
AcDbEntity
8
Groupe#61
6
ByLayer
62
256
370
-1
100
AcDbLine
10
232.762250573
20
529.472095689
11
217.762250573
21
529.472095689
0
LINE
5
1A7
100
AcDbEntity
8
Groupe#61
6
ByLayer
62
256
370
-1
100
AcDbLine
10
202.762250573
20
529.472095689
11
187.762250573
21
529.472095689
0
LINE
5
1A8
100
AcDbEntity
8
Groupe#61
6
ByLayer
62
256
370
-1
100
AcDbLine
10
82.7622505733
20
529.472095689
11
67.7622505732
21
529.472095689
0
LINE
5
1A9
100
AcDbEntity
8
Groupe#61
6
ByLayer
62
256
370
-1
100
AcDbLine
10
112.762250573
20
526.472095689
11
127.762250573
21
526.472095689
0
LINE
5
1AA
100
AcDbEntity
8
Groupe#61
6
ByLayer
62
256
370
-1
100
AcDbLine
10
142.762250573
20
526.472095689
11
157.762250573
21
526.472095689
0
LINE
5
1AB
100
AcDbEntity
8
Groupe#61
6
ByLayer
62
256
370
-1
100
AcDbLine
10
172.762250573
20
526.472095689
11
187.762250573
21
526.472095689
0
LINE
5
1AC
100
AcDbEntity
8
Groupe#61
6
ByLayer
62
256
370
-1
100
AcDbLine
10
202.762250573
20
526.472095689
11
217.762250573
21
526.472095689
0
LINE
5
1AD
100
AcDbEntity
8
Groupe#61
6
ByLayer
62
256
370
-1
100
AcDbLine
10
142.762250573
20
526.472095689
11
142.762250573
21
529.472095689
0
LINE
5
1AE
100
AcDbEntity
8
Groupe#61
6
ByLayer
62
256
370
-1
100
AcDbLine
10
187.762250573
20
526.472095689
11
187.762250573
21
529.472095689
0
LINE
5
1AF
100
AcDbEntity
8
Groupe#61
6
ByLayer
62
256
370
-1
100
AcDbLine
10
262.762250573
20
526.472095689
11
262.762250573
21
529.472095689
0
LINE
5
1B0
100
AcDbEntity
8
Groupe#61
6
ByLayer
62
256
370
-1
100
AcDbLine
10
247.762250573
20
526.472095689
11
247.762250573
21
529.472095689
0
LINE
5
1B1
100
AcDbEntity
8
Groupe#61
6
ByLayer
62
256
370
-1
100
AcDbLine
10
232.762250573
20
529.472095689
11
232.762250573
21
526.472095689
0
LINE
5
1B2
100
AcDbEntity
8
Groupe#61
6
ByLayer
62
256
370
-1
100
AcDbLine
10
202.762250573
20
526.472095689
11
202.762250573
21
529.472095689
0
LINE
5
1B3
100
AcDbEntity
8
Groupe#61
6
ByLayer
62
256
370
-1
100
AcDbLine
10
217.762250573
20
526.472095689
11
217.762250573
21
529.472095689
0
LINE
5
1B4
100
AcDbEntity
8
Groupe#61
6
ByLayer
62
256
370
-1
100
AcDbLine
10
82.7622505732
20
526.472095689
11
82.7622505733
21
529.472095689
0
LINE
5
1B5
100
AcDbEntity
8
Groupe#61
6
ByLayer
62
256
370
-1
100
AcDbLine
10
127.762250573
20
526.472095689
11
127.762250573
21
529.472095689
0
LINE
5
1B6
100
AcDbEntity
8
Groupe#61
6
ByLayer
62
256
370
-1
100
AcDbLine
10
262.762250573
20
529.472095689
11
247.762250573
21
529.472095689
0
LINE
5
1B7
100
AcDbEntity
8
Groupe#61
6
ByLayer
62
256
370
-1
100
AcDbLine
10
172.762250573
20
529.472095689
11
172.762250573
21
526.472095689
0
LINE
5
1B8
100
AcDbEntity
8
Groupe#61
6
ByLayer
62
256
370
-1
100
AcDbLine
10
142.762250573
20
529.472095689
11
127.762250573
21
529.472095689
0
LINE
5
1B9
100
AcDbEntity
8
Groupe#61
6
ByLayer
62
256
370
-1
100
AcDbLine
10
274.762250573
20
406.472095689
11
277.762250573
21
406.472095689
0
LINE
5
1BA
100
AcDbEntity
8
Groupe#61
6
ByLayer
62
256
370
-1
100
AcDbLine
10
274.762250573
20
466.472095689
11
277.762250573
21
466.472095689
0
LINE
5
1BB
100
AcDbEntity
8
Groupe#61
6
ByLayer
62
256
370
-1
100
AcDbLine
10
277.762250573
20
451.472095689
11
274.762250573
21
451.472095689
0
LINE
5
1BC
100
AcDbEntity
8
Groupe#61
6
ByLayer
62
256
370
-1
100
AcDbLine
10
274.762250573
20
286.472095689
11
277.762250573
21
286.472095689
0
LINE
5
1BD
100
AcDbEntity
8
Groupe#61
6
ByLayer
62
256
370
-1
100
AcDbLine
10
37.7622505732
20
418.472095689
11
37.7622505732
21
403.472095689
0
LINE
5
1BE
100
AcDbEntity
8
Groupe#61
6
ByLayer
62
256
370
-1
100
AcDbLine
10
34.7622505732
20
273.472095689
11
34.7622505732
21
283.472095689
0
LINE
5
1BF
100
AcDbEntity
8
Groupe#61
6
ByLayer
62
256
370
-1
100
AcDbLine
10
34.7622505732
20
463.472095689
11
37.7622505732
21
463.472095689
0
LINE
5
1C0
100
AcDbEntity
8
Groupe#61
6
ByLayer
62
256
370
-1
100
AcDbLine
10
37.7622505732
20
448.472095689
11
34.7622505732
21
448.472095689
0
LINE
5
1C1
100
AcDbEntity
8
Groupe#61
6
ByLayer
62
256
370
-1
100
AcDbLine
10
34.7622505732
20
283.472095689
11
37.7622505732
21
283.472095689
0
LINE
5
1C2
100
AcDbEntity
8
Groupe#61
6
ByLayer
62
256
370
-1
100
AcDbLine
10
34.7622505732
20
343.472095689
11
37.7622505732
21
343.472095689
0
LINE
5
1C3
100
AcDbEntity
8
Groupe#61
6
ByLayer
62
256
370
-1
100
AcDbLine
10
34.7622505732
20
493.472095689
11
37.7622505732
21
493.472095689
0
LINE
5
1C4
100
AcDbEntity
8
Groupe#61
6
ByLayer
62
256
370
-1
100
AcDbLine
10
34.7622505732
20
418.472095689
11
37.7622505732
21
418.472095689
0
LINE
5
1C5
100
AcDbEntity
8
Groupe#61
6
ByLayer
62
256
370
-1
100
AcDbLine
10
34.7622505732
20
313.472095689
11
37.7622505732
21
313.472095689
0
LINE
5
1C6
100
AcDbEntity
8
Groupe#61
6
ByLayer
62
256
370
-1
100
AcDbLine
10
34.7622505732
20
478.472095689
11
37.7622505732
21
478.472095689
0
LINE
5
1C7
100
AcDbEntity
8
Groupe#61
6
ByLayer
62
256
370
-1
100
AcDbLine
10
34.7622505732
20
433.472095689
11
37.7622505732
21
433.472095689
0
LINE
5
1C8
100
AcDbEntity
8
Groupe#61
6
ByLayer
62
256
370
-1
100
AcDbLine
10
37.7622505732
20
388.472095689
11
34.7622505732
21
388.472095689
0
LINE
5
1C9
100
AcDbEntity
8
Groupe#61
6
ByLayer
62
256
370
-1
100
AcDbLine
10
37.7622505732
20
508.472095689
11
34.7622505732
21
508.472095689
0
LINE
5
1CA
100
AcDbEntity
8
Groupe#61
6
ByLayer
62
256
370
-1
100
AcDbLine
10
37.7622505732
20
328.472095689
11
34.7622505732
21
328.472095689
0
LINE
5
1CB
100
AcDbEntity
8
Groupe#61
6
ByLayer
62
256
370
-1
100
AcDbLine
10
34.7622505732
20
358.472095689
11
37.7622505732
21
358.472095689
0
LINE
5
1CC
100
AcDbEntity
8
Groupe#61
6
ByLayer
62
256
370
-1
100
AcDbLine
10
34.7622505732
20
298.472095689
11
37.7622505732
21
298.472095689
0
LINE
5
1CD
100
AcDbEntity
8
Groupe#61
6
ByLayer
62
256
370
-1
100
AcDbLine
10
34.7622505732
20
313.472095689
11
34.7622505732
21
298.472095689
0
LINE
5
1CE
100
AcDbEntity
8
Groupe#61
6
ByLayer
62
256
370
-1
100
AcDbLine
10
34.7622505732
20
403.472095689
11
37.7622505732
21
403.472095689
0
LINE
5
1CF
100
AcDbEntity
8
Groupe#61
6
ByLayer
62
256
370
-1
100
AcDbLine
10
34.7622505732
20
373.472095689
11
37.7622505732
21
373.472095689
0
LINE
5
1D0
100
AcDbEntity
8
Groupe#61
6
ByLayer
62
256
370
-1
100
AcDbLine
10
37.7622505732
20
448.472095689
11
37.7622505732
21
433.472095689
0
LINE
5
1D1
100
AcDbEntity
8
Groupe#61
6
ByLayer
62
256
370
-1
100
AcDbLine
10
37.7622505732
20
508.472095689
11
37.7622505732
21
493.472095689
0
LINE
5
1D2
100
AcDbEntity
8
Groupe#61
6
ByLayer
62
256
370
-1
100
AcDbLine
10
37.7622505732
20
298.472095689
11
37.7622505732
21
283.472095689
0
LINE
5
1D3
100
AcDbEntity
8
Groupe#61
6
ByLayer
62
256
370
-1
100
AcDbLine
10
37.7622505732
20
388.472095689
11
37.7622505732
21
373.472095689
0
LINE
5
1D4
100
AcDbEntity
8
Groupe#61
6
ByLayer
62
256
370
-1
100
AcDbLine
10
34.7622505732
20
463.472095689
11
34.7622505732
21
448.472095689
0
LINE
5
1D5
100
AcDbEntity
8
Groupe#61
6
ByLayer
62
256
370
-1
100
AcDbLine
10
34.7622505732
20
343.472095689
11
34.7622505732
21
328.472095689
0
LINE
5
1D6
100
AcDbEntity
8
Groupe#61
6
ByLayer
62
256
370
-1
100
AcDbLine
10
37.7622505732
20
358.472095689
11
37.7622505732
21
343.472095689
0
LINE
5
1D7
100
AcDbEntity
8
Groupe#61
6
ByLayer
62
256
370
-1
100
AcDbLine
10
37.7622505732
20
478.472095689
11
37.7622505732
21
463.472095689
0
LINE
5
1D8
100
AcDbEntity
8
Groupe#61
6
ByLayer
62
256
370
-1
100
AcDbLine
10
37.7622505732
20
273.472095689
11
34.7622505732
21
273.472095689
0
LINE
5
1D9
100
AcDbEntity
8
Groupe#61
6
ByLayer
62
256
370
-1
100
AcDbLine
10
34.7622505732
20
433.472095689
11
34.7622505732
21
418.472095689
0
LINE
5
1DA
100
AcDbEntity
8
Groupe#61
6
ByLayer
62
256
370
-1
100
AcDbLine
10
37.7622505732
20
328.472095689
11
37.7622505732
21
313.472095689
0
LINE
5
1DB
100
AcDbEntity
8
Groupe#61
6
ByLayer
62
256
370
-1
100
AcDbLine
10
34.7622505732
20
529.472095689
11
34.7622505732
21
508.472095689
0
LINE
5
1DC
100
AcDbEntity
8
Groupe#61
6
ByLayer
62
256
370
-1
100
AcDbLine
10
34.7622505732
20
373.472095689
11
34.7622505732
21
358.472095689
0
LINE
5
1DD
100
AcDbEntity
8
Groupe#61
6
ByLayer
62
256
370
-1
100
AcDbLine
10
34.7622505732
20
403.472095689
11
34.7622505732
21
388.472095689
0
LINE
5
1DE
100
AcDbEntity
8
Groupe#61
6
ByLayer
62
256
370
-1
100
AcDbLine
10
34.7622505732
20
493.472095689
11
34.7622505732
21
478.472095689
0
LINE
5
1DF
100
AcDbEntity
8
Groupe#61
6
ByLayer
62
256
370
-1
100
AcDbLine
10
67.7622505732
20
273.472095689
11
67.7622505732
21
276.472095689
0
LINE
5
1E0
100
AcDbEntity
8
Groupe#61
6
ByLayer
62
256
370
-1
100
AcDbLine
10
52.7622505732
20
526.472095689
11
52.7622505733
21
529.472095689
0
LINE
5
1E1
100
AcDbEntity
8
Groupe#61
6
ByLayer
62
256
370
-1
100
AcDbLine
10
52.7622505733
20
529.472095689
11
34.7622505732
21
529.472095689
0
LINE
5
1E2
100
AcDbEntity
8
Groupe#61
6
ByLayer
62
256
370
-1
100
AcDbLine
10
67.7622505732
20
526.472095689
11
67.7622505732
21
529.472095689
0
LINE
5
1E3
100
AcDbEntity
8
Groupe#61
6
ByLayer
62
256
370
-1
100
AcDbLine
10
52.7622505732
20
276.472095689
11
52.7622505732
21
273.472095689
0
LINE
5
1E4
100
AcDbEntity
8
Groupe#61
6
ByLayer
62
256
370
-1
100
AcDbLine
10
67.7622505732
20
276.472095689
11
52.7622505732
21
276.472095689
0
LINE
5
1E5
100
AcDbEntity
8
Groupe#61
6
ByLayer
62
256
370
-1
100
AcDbLine
10
52.7622505732
20
273.472095689
11
37.7622505732
21
273.472095689
0
LINE
5
1E6
100
AcDbEntity
8
Groupe#61
6
ByLayer
62
256
370
-1
100
AcDbLine
10
52.7622505732
20
526.472095689
11
67.7622505732
21
526.472095689
0
LINE
5
1E7
100
AcDbEntity
8
Groupe#61
6
ByLayer
62
256
370
-1
100
AcDbLine
10
274.762250573
20
286.472095689
11
274.762250573
21
301.472095689
0
LINE
5
1E8
100
AcDbEntity
8
Groupe#61
6
ByLayer
62
256
370
-1
100
AcDbLine
10
274.762250573
20
316.472095689
11
274.762250573
21
331.472095689
0
LINE
5
1E9
100
AcDbEntity
8
Groupe#61
6
ByLayer
62
256
370
-1
100
AcDbLine
10
274.762250573
20
346.472095689
11
274.762250573
21
361.472095689
0
LINE
5
1EA
100
AcDbEntity
8
Groupe#61
6
ByLayer
62
256
370
-1
100
AcDbLine
10
219.762250573
20
366.472095689
11
218.740025362
21
374.236667042
0
LINE
5
1EB
100
AcDbEntity
8
Groupe#61
6
ByLayer
62
256
370
-1
100
AcDbLine
10
218.740025362
20
374.236667042
11
215.743012687
21
381.472095689
0
LINE
5
1EC
100
AcDbEntity
8
Groupe#61
6
ByLayer
62
256
370
-1
100
AcDbLine
10
215.743012687
20
381.472095689
11
210.975454009
21
387.685299124
0
LINE
5
1ED
100
AcDbEntity
8
Groupe#61
6
ByLayer
62
256
370
-1
100
AcDbLine
10
210.975454009
20
387.685299124
11
204.762250573
21
392.452857802
0
LINE
5
1EE
100
AcDbEntity
8
Groupe#61
6
ByLayer
62
256
370
-1
100
AcDbLine
10
204.762250573
20
392.452857802
11
197.526821926
21
395.449870478
0
LINE
5
1EF
100
AcDbEntity
8
Groupe#61
6
ByLayer
62
256
370
-1
100
AcDbLine
10
197.526821926
20
395.449870478
11
189.762250573
21
396.472095689
0
LINE
5
1F0
100
AcDbEntity
8
Groupe#61
6
ByLayer
62
256
370
-1
100
AcDbLine
10
189.762250573
20
396.472095689
11
181.99767922
21
395.449870478
0
LINE
5
1F1
100
AcDbEntity
8
Groupe#61
6
ByLayer
62
256
370
-1
100
AcDbLine
10
181.99767922
20
395.449870478
11
174.762250573
21
392.452857802
0
LINE
5
1F2
100
AcDbEntity
8
Groupe#61
6
ByLayer
62
256
370
-1
100
AcDbLine
10
174.762250573
20
392.452857802
11
168.549047138
21
387.685299124
0
LINE
5
1F3
100
AcDbEntity
8
Groupe#61
6
ByLayer
62
256
370
-1
100
AcDbLine
10
168.549047138
20
387.685299124
11
163.78148846
21
381.472095689
0
LINE
5
1F4
100
AcDbEntity
8
Groupe#61
6
ByLayer
62
256
370
-1
100
AcDbLine
10
163.78148846
20
381.472095689
11
160.784475785
21
374.236667042
0
LINE
5
1F5
100
AcDbEntity
8
Groupe#61
6
ByLayer
62
256
370
-1
100
AcDbLine
10
160.784475785
20
374.236667042
11
159.762250573
21
366.472095689
0
LINE
5
1F6
100
AcDbEntity
8
Groupe#61
6
ByLayer
62
256
370
-1
100
AcDbLine
10
159.762250573
20
366.472095689
11
160.784475785
21
358.707524336
0
LINE
5
1F7
100
AcDbEntity
8
Groupe#61
6
ByLayer
62
256
370
-1
100
AcDbLine
10
160.784475785
20
358.707524336
11
163.78148846
21
351.472095689
0
LINE
5
1F8
100
AcDbEntity
8
Groupe#61
6
ByLayer
62
256
370
-1
100
AcDbLine
10
163.78148846
20
351.472095689
11
168.549047138
21
345.258892253
0
LINE
5
1F9
100
AcDbEntity
8
Groupe#61
6
ByLayer
62
256
370
-1
100
AcDbLine
10
168.549047138
20
345.258892253
11
174.762250573
21
340.491333575
0
LINE
5
1FA
100
AcDbEntity
8
Groupe#61
6
ByLayer
62
256
370
-1
100
AcDbLine
10
174.762250573
20
340.491333575
11
181.99767922
21
337.4943209
0
LINE
5
1FB
100
AcDbEntity
8
Groupe#61
6
ByLayer
62
256
370
-1
100
AcDbLine
10
181.99767922
20
337.4943209
11
189.762250573
21
336.472095689
0
LINE
5
1FC
100
AcDbEntity
8
Groupe#61
6
ByLayer
62
256
370
-1
100
AcDbLine
10
189.762250573
20
336.472095689
11
197.526821926
21
337.4943209
0
LINE
5
1FD
100
AcDbEntity
8
Groupe#61
6
ByLayer
62
256
370
-1
100
AcDbLine
10
197.526821926
20
337.4943209
11
204.762250573
21
340.491333575
0
LINE
5
1FE
100
AcDbEntity
8
Groupe#61
6
ByLayer
62
256
370
-1
100
AcDbLine
10
204.762250573
20
340.491333575
11
210.975454009
21
345.258892253
0
LINE
5
1FF
100
AcDbEntity
8
Groupe#61
6
ByLayer
62
256
370
-1
100
AcDbLine
10
210.975454009
20
345.258892253
11
215.743012687
21
351.472095689
0
LINE
5
200
100
AcDbEntity
8
Groupe#61
6
ByLayer
62
256
370
-1
100
AcDbLine
10
215.743012687
20
351.472095689
11
218.740025362
21
358.707524336
0
LINE
5
201
100
AcDbEntity
8
Groupe#61
6
ByLayer
62
256
370
-1
100
AcDbLine
10
218.740025362
20
358.707524336
11
219.762250573
21
366.472095689
0
LINE
5
202
100
AcDbEntity
8
Groupe#63
6
ByLayer
62
256
370
-1
100
AcDbLine
10
301.762250767
20
273.472092068
11
286.762250767
21
273.472092068
0
LINE
5
203
100
AcDbEntity
8
Groupe#63
6
ByLayer
62
256
370
-1
100
AcDbLine
10
331.762250767
20
273.472092068
11
316.762250767
21
273.472092068
0
LINE
5
204
100
AcDbEntity
8
Groupe#63
6
ByLayer
62
256
370
-1
100
AcDbLine
10
451.762250767
20
273.472092068
11
436.762250767
21
273.472092068
0
LINE
5
205
100
AcDbEntity
8
Groupe#63
6
ByLayer
62
256
370
-1
100
AcDbLine
10
421.762250767
20
273.472092068
11
406.762250767
21
273.472092068
0
LINE
5
206
100
AcDbEntity
8
Groupe#63
6
ByLayer
62
256
370
-1
100
AcDbLine
10
481.762250767
20
273.472092068
11
466.762250767
21
273.472092068
0
LINE
5
207
100
AcDbEntity
8
Groupe#63
6
ByLayer
62
256
370
-1
100
AcDbLine
10
511.762250767
20
273.472092068
11
496.762250767
21
273.472092068
0
LINE
5
208
100
AcDbEntity
8
Groupe#63
6
ByLayer
62
256
370
-1
100
AcDbLine
10
391.762250767
20
273.472092068
11
376.762250767
21
273.472092068
0
LINE
5
209
100
AcDbEntity
8
Groupe#63
6
ByLayer
62
256
370
-1
100
AcDbLine
10
361.762250767
20
273.472092068
11
346.762250767
21
273.472092068
0
LINE
5
20A
100
AcDbEntity
8
Groupe#63
6
ByLayer
62
256
370
-1
100
AcDbLine
10
511.762250767
20
270.472092068
11
511.762250767
21
273.472092068
0
LINE
5
20B
100
AcDbEntity
8
Groupe#63
6
ByLayer
62
256
370
-1
100
AcDbLine
10
421.762250767
20
273.472092068
11
421.762250767
21
270.472092068
0
LINE
5
20C
100
AcDbEntity
8
Groupe#63
6
ByLayer
62
256
370
-1
100
AcDbLine
10
406.762250767
20
273.472092068
11
406.762250767
21
270.472092068
0
LINE
5
20D
100
AcDbEntity
8
Groupe#63
6
ByLayer
62
256
370
-1
100
AcDbLine
10
391.762250767
20
270.472092068
11
391.762250767
21
273.472092068
0
LINE
5
20E
100
AcDbEntity
8
Groupe#63
6
ByLayer
62
256
370
-1
100
AcDbLine
10
376.762250767
20
273.472092068
11
376.762250767
21
270.472092068
0
LINE
5
20F
100
AcDbEntity
8
Groupe#63
6
ByLayer
62
256
370
-1
100
AcDbLine
10
466.762250767
20
273.472092068
11
466.762250767
21
270.472092068
0
LINE
5
210
100
AcDbEntity
8
Groupe#63
6
ByLayer
62
256
370
-1
100
AcDbLine
10
451.762250767
20
270.472092068
11
451.762250767
21
273.472092068
0
LINE
5
211
100
AcDbEntity
8
Groupe#63
6
ByLayer
62
256
370
-1
100
AcDbLine
10
301.762250767
20
273.472092068
11
301.762250767
21
270.472092068
0
LINE
5
212
100
AcDbEntity
8
Groupe#63
6
ByLayer
62
256
370
-1
100
AcDbLine
10
316.762250767
20
273.472092068
11
316.762250767
21
270.472092068
0
LINE
5
213
100
AcDbEntity
8
Groupe#63
6
ByLayer
62
256
370
-1
100
AcDbLine
10
331.762250767
20
270.472092068
11
331.762250767
21
273.472092068
0
LINE
5
214
100
AcDbEntity
8
Groupe#63
6
ByLayer
62
256
370
-1
100
AcDbLine
10
346.762250767
20
273.472092068
11
346.762250767
21
270.472092068
0
LINE
5
215
100
AcDbEntity
8
Groupe#63
6
ByLayer
62
256
370
-1
100
AcDbLine
10
361.762250767
20
273.472092068
11
361.762250767
21
270.472092068
0
LINE
5
216
100
AcDbEntity
8
Groupe#63
6
ByLayer
62
256
370
-1
100
AcDbLine
10
436.762250767
20
273.472092068
11
436.762250767
21
270.472092068
0
LINE
5
217
100
AcDbEntity
8
Groupe#63
6
ByLayer
62
256
370
-1
100
AcDbLine
10
481.762250767
20
273.472092068
11
481.762250767
21
270.472092068
0
LINE
5
218
100
AcDbEntity
8
Groupe#63
6
ByLayer
62
256
370
-1
100
AcDbLine
10
496.762250767
20
273.472092068
11
496.762250767
21
270.472092068
0
LINE
5
219
100
AcDbEntity
8
Groupe#63
6
ByLayer
62
256
370
-1
100
AcDbLine
10
286.762250767
20
273.472092068
11
286.762250767
21
270.472092068
0
LINE
5
21A
100
AcDbEntity
8
Groupe#63
6
ByLayer
62
256
370
-1
100
AcDbLine
10
394.762250767
20
17.4720920679
11
394.762250767
21
20.4720920679
0
LINE
5
21B
100
AcDbEntity
8
Groupe#63
6
ByLayer
62
256
370
-1
100
AcDbLine
10
334.762250767
20
17.4720920679
11
334.762250767
21
20.4720920679
0
LINE
5
21C
100
AcDbEntity
8
Groupe#63
6
ByLayer
62
256
370
-1
100
AcDbLine
10
349.762250767
20
20.4720920679
11
349.762250767
21
17.4720920679
0
LINE
5
21D
100
AcDbEntity
8
Groupe#63
6
ByLayer
62
256
370
-1
100
AcDbLine
10
514.762250767
20
17.4720920679
11
514.762250767
21
20.4720920679
0
LINE
5
21E
100
AcDbEntity
8
Groupe#63
6
ByLayer
62
256
370
-1
100
AcDbLine
10
271.762250767
20
210.472092068
11
274.762250767
21
210.472092068
0
LINE
5
21F
100
AcDbEntity
8
Groupe#63
6
ByLayer
62
256
370
-1
100
AcDbLine
10
271.762250767
20
195.472092068
11
271.762250767
21
180.472092068
0
LINE
5
220
100
AcDbEntity
8
Groupe#63
6
ByLayer
62
256
370
-1
100
AcDbLine
10
271.762250767
20
255.472092068
11
271.762250767
21
240.472092068
0
LINE
5
221
100
AcDbEntity
8
Groupe#63
6
ByLayer
62
256
370
-1
100
AcDbLine
10
271.762250767
20
225.472092068
11
271.762250767
21
210.472092068
0
LINE
5
222
100
AcDbEntity
8
Groupe#63
6
ByLayer
62
256
370
-1
100
AcDbLine
10
274.762250767
20
255.472092068
11
271.762250767
21
255.472092068
0
LINE
5
223
100
AcDbEntity
8
Groupe#63
6
ByLayer
62
256
370
-1
100
AcDbLine
10
271.762250767
20
240.472092068
11
274.762250767
21
240.472092068
0
LINE
5
224
100
AcDbEntity
8
Groupe#63
6
ByLayer
62
256
370
-1
100
AcDbLine
10
271.762250767
20
180.472092068
11
274.762250767
21
180.472092068
0
LINE
5
225
100
AcDbEntity
8
Groupe#63
6
ByLayer
62
256
370
-1
100
AcDbLine
10
274.762250767
20
195.472092068
11
271.762250767
21
195.472092068
0
LINE
5
226
100
AcDbEntity
8
Groupe#63
6
ByLayer
62
256
370
-1
100
AcDbLine
10
271.762250767
20
225.472092068
11
274.762250767
21
225.472092068
0
LINE
5
227
100
AcDbEntity
8
Groupe#63
6
ByLayer
62
256
370
-1
100
AcDbLine
10
271.762250767
20
60.4720920679
11
274.762250767
21
60.4720920679
0
LINE
5
228
100
AcDbEntity
8
Groupe#63
6
ByLayer
62
256
370
-1
100
AcDbLine
10
271.762250767
20
150.472092068
11
274.762250767
21
150.472092068
0
LINE
5
229
100
AcDbEntity
8
Groupe#63
6
ByLayer
62
256
370
-1
100
AcDbLine
10
271.762250767
20
45.4720920679
11
271.762250767
21
30.4720920679
0
LINE
5
22A
100
AcDbEntity
8
Groupe#63
6
ByLayer
62
256
370
-1
100
AcDbLine
10
271.762250767
20
165.472092068
11
271.762250767
21
150.472092068
0
LINE
5
22B
100
AcDbEntity
8
Groupe#63
6
ByLayer
62
256
370
-1
100
AcDbLine
10
271.762250767
20
135.472092068
11
271.762250767
21
120.472092068
0
LINE
5
22C
100
AcDbEntity
8
Groupe#63
6
ByLayer
62
256
370
-1
100
AcDbLine
10
271.762250767
20
105.472092068
11
271.762250767
21
90.4720920679
0
LINE
5
22D
100
AcDbEntity
8
Groupe#63
6
ByLayer
62
256
370
-1
100
AcDbLine
10
271.762250767
20
75.4720920679
11
271.762250767
21
60.4720920679
0
LINE
5
22E
100
AcDbEntity
8
Groupe#63
6
ByLayer
62
256
370
-1
100
AcDbLine
10
271.762250767
20
135.472092068
11
274.762250767
21
135.472092068
0
LINE
5
22F
100
AcDbEntity
8
Groupe#63
6
ByLayer
62
256
370
-1
100
AcDbLine
10
271.762250767
20
120.472092068
11
274.762250767
21
120.472092068
0
LINE
5
230
100
AcDbEntity
8
Groupe#63
6
ByLayer
62
256
370
-1
100
AcDbLine
10
274.762250767
20
105.472092068
11
271.762250767
21
105.472092068
0
LINE
5
231
100
AcDbEntity
8
Groupe#63
6
ByLayer
62
256
370
-1
100
AcDbLine
10
271.762250767
20
90.4720920679
11
274.762250767
21
90.4720920679
0
LINE
5
232
100
AcDbEntity
8
Groupe#63
6
ByLayer
62
256
370
-1
100
AcDbLine
10
274.762250767
20
165.472092068
11
271.762250767
21
165.472092068
0
LINE
5
233
100
AcDbEntity
8
Groupe#63
6
ByLayer
62
256
370
-1
100
AcDbLine
10
271.762250767
20
30.4720920679
11
274.762250767
21
30.4720920679
0
LINE
5
234
100
AcDbEntity
8
Groupe#63
6
ByLayer
62
256
370
-1
100
AcDbLine
10
274.762250767
20
45.4720920679
11
271.762250767
21
45.4720920679
0
LINE
5
235
100
AcDbEntity
8
Groupe#63
6
ByLayer
62
256
370
-1
100
AcDbLine
10
271.762250767
20
75.4720920679
11
274.762250767
21
75.4720920679
0
LINE
5
236
100
AcDbEntity
8
Groupe#63
6
ByLayer
62
256
370
-1
100
AcDbLine
10
274.762250767
20
270.472092068
11
274.762250767
21
255.472092068
0
LINE
5
237
100
AcDbEntity
8
Groupe#63
6
ByLayer
62
256
370
-1
100
AcDbLine
10
466.762250767
20
270.472092068
11
451.762250767
21
270.472092068
0
LINE
5
238
100
AcDbEntity
8
Groupe#63
6
ByLayer
62
256
370
-1
100
AcDbLine
10
496.762250767
20
270.472092068
11
481.762250767
21
270.472092068
0
LINE
5
239
100
AcDbEntity
8
Groupe#63
6
ByLayer
62
256
370
-1
100
AcDbLine
10
406.762250767
20
270.472092068
11
391.762250767
21
270.472092068
0
LINE
5
23A
100
AcDbEntity
8
Groupe#63
6
ByLayer
62
256
370
-1
100
AcDbLine
10
316.762250767
20
270.472092068
11
301.762250767
21
270.472092068
0
LINE
5
23B
100
AcDbEntity
8
Groupe#63
6
ByLayer
62
256
370
-1
100
AcDbLine
10
376.762250767
20
270.472092068
11
361.762250767
21
270.472092068
0
LINE
5
23C
100
AcDbEntity
8
Groupe#63
6
ByLayer
62
256
370
-1
100
AcDbLine
10
436.762250767
20
270.472092068
11
421.762250767
21
270.472092068
0
LINE
5
23D
100
AcDbEntity
8
Groupe#63
6
ByLayer
62
256
370
-1
100
AcDbLine
10
286.762250767
20
270.472092068
11
274.762250767
21
270.472092068
0
LINE
5
23E
100
AcDbEntity
8
Groupe#63
6
ByLayer
62
256
370
-1
100
AcDbLine
10
346.762250767
20
270.472092068
11
331.762250767
21
270.472092068
0
LINE
5
23F
100
AcDbEntity
8
Groupe#63
6
ByLayer
62
256
370
-1
100
AcDbLine
10
274.762250767
20
210.472092068
11
274.762250767
21
195.472092068
0
LINE
5
240
100
AcDbEntity
8
Groupe#63
6
ByLayer
62
256
370
-1
100
AcDbLine
10
274.762250767
20
240.472092068
11
274.762250767
21
225.472092068
0
LINE
5
241
100
AcDbEntity
8
Groupe#63
6
ByLayer
62
256
370
-1
100
AcDbLine
10
274.762250767
20
180.472092068
11
274.762250767
21
165.472092068
0
LINE
5
242
100
AcDbEntity
8
Groupe#63
6
ByLayer
62
256
370
-1
100
AcDbLine
10
274.762250767
20
60.4720920679
11
274.762250767
21
45.4720920679
0
LINE
5
243
100
AcDbEntity
8
Groupe#63
6
ByLayer
62
256
370
-1
100
AcDbLine
10
274.762250767
20
150.472092068
11
274.762250767
21
135.472092068
0
LINE
5
244
100
AcDbEntity
8
Groupe#63
6
ByLayer
62
256
370
-1
100
AcDbLine
10
274.762250767
20
30.4720920679
11
274.762250767
21
20.4720920679
0
LINE
5
245
100
AcDbEntity
8
Groupe#63
6
ByLayer
62
256
370
-1
100
AcDbLine
10
274.762250767
20
120.472092068
11
274.762250767
21
105.472092068
0
LINE
5
246
100
AcDbEntity
8
Groupe#63
6
ByLayer
62
256
370
-1
100
AcDbLine
10
274.762250767
20
90.4720920679
11
274.762250767
21
75.4720920679
0
LINE
5
247
100
AcDbEntity
8
Groupe#63
6
ByLayer
62
256
370
-1
100
AcDbLine
10
527.762250767
20
150.472092068
11
527.762250767
21
165.472092068
0
LINE
5
248
100
AcDbEntity
8
Groupe#63
6
ByLayer
62
256
370
-1
100
AcDbLine
10
527.762250767
20
75.4720920679
11
524.762250767
21
75.4720920679
0
LINE
5
249
100
AcDbEntity
8
Groupe#63
6
ByLayer
62
256
370
-1
100
AcDbLine
10
527.762250767
20
90.4720920679
11
527.762250767
21
105.472092068
0
LINE
5
24A
100
AcDbEntity
8
Groupe#63
6
ByLayer
62
256
370
-1
100
AcDbLine
10
527.762250767
20
30.4720920679
11
527.762250767
21
45.4720920679
0
LINE
5
24B
100
AcDbEntity
8
Groupe#63
6
ByLayer
62
256
370
-1
100
AcDbLine
10
527.762250767
20
60.4720920679
11
527.762250767
21
75.4720920679
0
LINE
5
24C
100
AcDbEntity
8
Groupe#63
6
ByLayer
62
256
370
-1
100
AcDbLine
10
524.762250767
20
30.4720920679
11
527.762250767
21
30.4720920679
0
LINE
5
24D
100
AcDbEntity
8
Groupe#63
6
ByLayer
62
256
370
-1
100
AcDbLine
10
527.762250767
20
45.4720920679
11
524.762250767
21
45.4720920679
0
LINE
5
24E
100
AcDbEntity
8
Groupe#63
6
ByLayer
62
256
370
-1
100
AcDbLine
10
527.762250767
20
105.472092068
11
524.762250767
21
105.472092068
0
LINE
5
24F
100
AcDbEntity
8
Groupe#63
6
ByLayer
62
256
370
-1
100
AcDbLine
10
524.762250767
20
90.4720920679
11
527.762250767
21
90.4720920679
0
LINE
5
250
100
AcDbEntity
8
Groupe#63
6
ByLayer
62
256
370
-1
100
AcDbLine
10
527.762250767
20
60.4720920679
11
524.762250767
21
60.4720920679
0
LINE
5
251
100
AcDbEntity
8
Groupe#63
6
ByLayer
62
256
370
-1
100
AcDbLine
10
527.762250767
20
225.472092068
11
524.762250767
21
225.472092068
0
LINE
5
252
100
AcDbEntity
8
Groupe#63
6
ByLayer
62
256
370
-1
100
AcDbLine
10
527.762250767
20
135.472092068
11
524.762250767
21
135.472092068
0
LINE
5
253
100
AcDbEntity
8
Groupe#63
6
ByLayer
62
256
370
-1
100
AcDbLine
10
527.762250767
20
240.472092068
11
527.762250767
21
255.472092068
0
LINE
5
254
100
AcDbEntity
8
Groupe#63
6
ByLayer
62
256
370
-1
100
AcDbLine
10
527.762250767
20
120.472092068
11
527.762250767
21
135.472092068
0
LINE
5
255
100
AcDbEntity
8
Groupe#63
6
ByLayer
62
256
370
-1
100
AcDbLine
10
527.762250767
20
180.472092068
11
527.762250767
21
195.472092068
0
LINE
5
256
100
AcDbEntity
8
Groupe#63
6
ByLayer
62
256
370
-1
100
AcDbLine
10
527.762250767
20
210.472092068
11
527.762250767
21
225.472092068
0
LINE
5
257
100
AcDbEntity
8
Groupe#63
6
ByLayer
62
256
370
-1
100
AcDbLine
10
527.762250767
20
150.472092068
11
524.762250767
21
150.472092068
0
LINE
5
258
100
AcDbEntity
8
Groupe#63
6
ByLayer
62
256
370
-1
100
AcDbLine
10
527.762250767
20
165.472092068
11
524.762250767
21
165.472092068
0
LINE
5
259
100
AcDbEntity
8
Groupe#63
6
ByLayer
62
256
370
-1
100
AcDbLine
10
524.762250767
20
180.472092068
11
527.762250767
21
180.472092068
0
LINE
5
25A
100
AcDbEntity
8
Groupe#63
6
ByLayer
62
256
370
-1
100
AcDbLine
10
527.762250767
20
195.472092068
11
524.762250767
21
195.472092068
0
LINE
5
25B
100
AcDbEntity
8
Groupe#63
6
ByLayer
62
256
370
-1
100
AcDbLine
10
524.762250767
20
120.472092068
11
527.762250767
21
120.472092068
0
LINE
5
25C
100
AcDbEntity
8
Groupe#63
6
ByLayer
62
256
370
-1
100
AcDbLine
10
527.762250767
20
255.472092068
11
524.762250767
21
255.472092068
0
LINE
5
25D
100
AcDbEntity
8
Groupe#63
6
ByLayer
62
256
370
-1
100
AcDbLine
10
524.762250767
20
240.472092068
11
527.762250767
21
240.472092068
0
LINE
5
25E
100
AcDbEntity
8
Groupe#63
6
ByLayer
62
256
370
-1
100
AcDbLine
10
527.762250767
20
210.472092068
11
524.762250767
21
210.472092068
0
LINE
5
25F
100
AcDbEntity
8
Groupe#63
6
ByLayer
62
256
370
-1
100
AcDbLine
10
524.762250767
20
135.472092068
11
524.762250767
21
150.472092068
0
LINE
5
260
100
AcDbEntity
8
Groupe#63
6
ByLayer
62
256
370
-1
100
AcDbLine
10
524.762250767
20
45.4720920679
11
524.762250767
21
60.4720920679
0
LINE
5
261
100
AcDbEntity
8
Groupe#63
6
ByLayer
62
256
370
-1
100
AcDbLine
10
524.762250767
20
20.4720920679
11
524.762250767
21
30.4720920679
0
LINE
5
262
100
AcDbEntity
8
Groupe#63
6
ByLayer
62
256
370
-1
100
AcDbLine
10
524.762250767
20
105.472092068
11
524.762250767
21
120.472092068
0
LINE
5
263
100
AcDbEntity
8
Groupe#63
6
ByLayer
62
256
370
-1
100
AcDbLine
10
524.762250767
20
225.472092068
11
524.762250767
21
240.472092068
0
LINE
5
264
100
AcDbEntity
8
Groupe#63
6
ByLayer
62
256
370
-1
100
AcDbLine
10
524.762250767
20
165.472092068
11
524.762250767
21
180.472092068
0
LINE
5
265
100
AcDbEntity
8
Groupe#63
6
ByLayer
62
256
370
-1
100
AcDbLine
10
524.762250767
20
75.4720920679
11
524.762250767
21
90.4720920679
0
LINE
5
266
100
AcDbEntity
8
Groupe#63
6
ByLayer
62
256
370
-1
100
AcDbLine
10
524.762250767
20
195.472092068
11
524.762250767
21
210.472092068
0
LINE
5
267
100
AcDbEntity
8
Groupe#63
6
ByLayer
62
256
370
-1
100
AcDbLine
10
524.762250767
20
255.472092068
11
524.762250767
21
270.472092068
0
LINE
5
268
100
AcDbEntity
8
Groupe#63
6
ByLayer
62
256
370
-1
100
AcDbLine
10
511.762250767
20
270.472092068
11
524.762250767
21
270.472092068
0
LINE
5
269
100
AcDbEntity
8
Groupe#63
6
ByLayer
62
256
370
-1
100
AcDbLine
10
514.762250767
20
20.4720920679
11
524.762250767
21
20.4720920679
0
LINE
5
26A
100
AcDbEntity
8
Groupe#63
6
ByLayer
62
256
370
-1
100
AcDbLine
10
499.762250767
20
17.4720920679
11
514.762250767
21
17.4720920679
0
LINE
5
26B
100
AcDbEntity
8
Groupe#63
6
ByLayer
62
256
370
-1
100
AcDbLine
10
499.762250767
20
17.4720920679
11
499.762250767
21
20.4720920679
0
LINE
5
26C
100
AcDbEntity
8
Groupe#63
6
ByLayer
62
256
370
-1
100
AcDbLine
10
484.762250767
20
20.4720920679
11
499.762250767
21
20.4720920679
0
LINE
5
26D
100
AcDbEntity
8
Groupe#63
6
ByLayer
62
256
370
-1
100
AcDbLine
10
484.762250767
20
17.4720920679
11
484.762250767
21
20.4720920679
0
LINE
5
26E
100
AcDbEntity
8
Groupe#63
6
ByLayer
62
256
370
-1
100
AcDbLine
10
469.762250767
20
17.4720920679
11
484.762250767
21
17.4720920679
0
LINE
5
26F
100
AcDbEntity
8
Groupe#63
6
ByLayer
62
256
370
-1
100
AcDbLine
10
469.762250767
20
20.4720920679
11
469.762250767
21
17.4720920679
0
LINE
5
270
100
AcDbEntity
8
Groupe#63
6
ByLayer
62
256
370
-1
100
AcDbLine
10
454.762250767
20
20.4720920679
11
469.762250767
21
20.4720920679
0
LINE
5
271
100
AcDbEntity
8
Groupe#63
6
ByLayer
62
256
370
-1
100
AcDbLine
10
454.762250767
20
17.4720920679
11
454.762250767
21
20.4720920679
0
LINE
5
272
100
AcDbEntity
8
Groupe#63
6
ByLayer
62
256
370
-1
100
AcDbLine
10
439.762250767
20
17.4720920679
11
454.762250767
21
17.4720920679
0
LINE
5
273
100
AcDbEntity
8
Groupe#63
6
ByLayer
62
256
370
-1
100
AcDbLine
10
439.762250767
20
17.4720920679
11
439.762250767
21
20.4720920679
0
LINE
5
274
100
AcDbEntity
8
Groupe#63
6
ByLayer
62
256
370
-1
100
AcDbLine
10
424.762250767
20
20.4720920679
11
439.762250767
21
20.4720920679
0
LINE
5
275
100
AcDbEntity
8
Groupe#63
6
ByLayer
62
256
370
-1
100
AcDbLine
10
424.762250767
20
17.4720920679
11
424.762250767
21
20.4720920679
0
LINE
5
276
100
AcDbEntity
8
Groupe#63
6
ByLayer
62
256
370
-1
100
AcDbLine
10
409.762250767
20
17.4720920679
11
424.762250767
21
17.4720920679
0
LINE
5
277
100
AcDbEntity
8
Groupe#63
6
ByLayer
62
256
370
-1
100
AcDbLine
10
409.762250767
20
20.4720920679
11
409.762250767
21
17.4720920679
0
LINE
5
278
100
AcDbEntity
8
Groupe#63
6
ByLayer
62
256
370
-1
100
AcDbLine
10
394.762250767
20
20.4720920679
11
409.762250767
21
20.4720920679
0
LINE
5
279
100
AcDbEntity
8
Groupe#63
6
ByLayer
62
256
370
-1
100
AcDbLine
10
379.762250767
20
17.4720920679
11
394.762250767
21
17.4720920679
0
LINE
5
27A
100
AcDbEntity
8
Groupe#63
6
ByLayer
62
256
370
-1
100
AcDbLine
10
379.762250767
20
17.4720920679
11
379.762250767
21
20.4720920679
0
LINE
5
27B
100
AcDbEntity
8
Groupe#63
6
ByLayer
62
256
370
-1
100
AcDbLine
10
364.762250767
20
20.4720920679
11
379.762250767
21
20.4720920679
0
LINE
5
27C
100
AcDbEntity
8
Groupe#63
6
ByLayer
62
256
370
-1
100
AcDbLine
10
364.762250767
20
17.4720920679
11
364.762250767
21
20.4720920679
0
LINE
5
27D
100
AcDbEntity
8
Groupe#63
6
ByLayer
62
256
370
-1
100
AcDbLine
10
349.762250767
20
17.4720920679
11
364.762250767
21
17.4720920679
0
LINE
5
27E
100
AcDbEntity
8
Groupe#63
6
ByLayer
62
256
370
-1
100
AcDbLine
10
334.762250767
20
20.4720920679
11
349.762250767
21
20.4720920679
0
LINE
5
27F
100
AcDbEntity
8
Groupe#63
6
ByLayer
62
256
370
-1
100
AcDbLine
10
319.762250767
20
17.4720920679
11
334.762250767
21
17.4720920679
0
LINE
5
280
100
AcDbEntity
8
Groupe#63
6
ByLayer
62
256
370
-1
100
AcDbLine
10
319.762250767
20
17.4720920679
11
319.762250767
21
20.4720920679
0
LINE
5
281
100
AcDbEntity
8
Groupe#63
6
ByLayer
62
256
370
-1
100
AcDbLine
10
304.762250767
20
20.4720920679
11
319.762250767
21
20.4720920679
0
LINE
5
282
100
AcDbEntity
8
Groupe#63
6
ByLayer
62
256
370
-1
100
AcDbLine
10
304.762250767
20
17.4720920679
11
304.762250767
21
20.4720920679
0
LINE
5
283
100
AcDbEntity
8
Groupe#63
6
ByLayer
62
256
370
-1
100
AcDbLine
10
289.762250767
20
17.4720920679
11
304.762250767
21
17.4720920679
0
LINE
5
284
100
AcDbEntity
8
Groupe#63
6
ByLayer
62
256
370
-1
100
AcDbLine
10
289.762250767
20
20.4720920679
11
289.762250767
21
17.4720920679
0
LINE
5
285
100
AcDbEntity
8
Groupe#63
6
ByLayer
62
256
370
-1
100
AcDbLine
10
274.762250767
20
20.4720920679
11
289.762250767
21
20.4720920679
0
LINE
5
286
100
AcDbEntity
8
Groupe#64
6
ByLayer
62
256
370
-1
100
AcDbLine
10
274.762250767
20
210.472092068
11
274.762250767
21
195.472092068
0
LINE
5
287
100
AcDbEntity
8
Groupe#64
6
ByLayer
62
256
370
-1
100
AcDbLine
10
271.762250767
20
135.472092068
11
271.762250767
21
120.472092068
0
LINE
5
288
100
AcDbEntity
8
Groupe#64
6
ByLayer
62
256
370
-1
100
AcDbLine
10
274.762250767
20
240.472092068
11
274.762250767
21
225.472092068
0
LINE
5
289
100
AcDbEntity
8
Groupe#64
6
ByLayer
62
256
370
-1
100
AcDbLine
10
274.762250767
20
180.472092068
11
274.762250767
21
165.472092068
0
LINE
5
28A
100
AcDbEntity
8
Groupe#64
6
ByLayer
62
256
370
-1
100
AcDbLine
10
274.762250767
20
120.472092068
11
274.762250767
21
105.472092068
0
LINE
5
28B
100
AcDbEntity
8
Groupe#64
6
ByLayer
62
256
370
-1
100
AcDbLine
10
274.762250767
20
30.4720920679
11
274.762250767
21
17.4720920679
0
LINE
5
28C
100
AcDbEntity
8
Groupe#64
6
ByLayer
62
256
370
-1
100
AcDbLine
10
274.762250767
20
60.4720920679
11
274.762250767
21
45.4720920679
0
LINE
5
28D
100
AcDbEntity
8
Groupe#64
6
ByLayer
62
256
370
-1
100
AcDbLine
10
271.762250767
20
240.472092068
11
274.762250767
21
240.472092068
0
LINE
5
28E
100
AcDbEntity
8
Groupe#64
6
ByLayer
62
256
370
-1
100
AcDbLine
10
271.762250767
20
180.472092068
11
274.762250767
21
180.472092068
0
LINE
5
28F
100
AcDbEntity
8
Groupe#64
6
ByLayer
62
256
370
-1
100
AcDbLine
10
274.762250767
20
195.472092068
11
271.762250767
21
195.472092068
0
LINE
5
290
100
AcDbEntity
8
Groupe#64
6
ByLayer
62
256
370
-1
100
AcDbLine
10
274.762250767
20
270.472092068
11
274.762250767
21
255.472092068
0
LINE
5
291
100
AcDbEntity
8
Groupe#64
6
ByLayer
62
256
370
-1
100
AcDbLine
10
274.762250767
20
150.472092068
11
274.762250767
21
135.472092068
0
LINE
5
292
100
AcDbEntity
8
Groupe#64
6
ByLayer
62
256
370
-1
100
AcDbLine
10
274.762250767
20
90.4720920679
11
274.762250767
21
75.4720920679
0
LINE
5
293
100
AcDbEntity
8
Groupe#64
6
ByLayer
62
256
370
-1
100
AcDbLine
10
271.762250767
20
210.472092068
11
274.762250767
21
210.472092068
0
LINE
5
294
100
AcDbEntity
8
Groupe#64
6
ByLayer
62
256
370
-1
100
AcDbLine
10
271.762250767
20
195.472092068
11
271.762250767
21
180.472092068
0
LINE
5
295
100
AcDbEntity
8
Groupe#64
6
ByLayer
62
256
370
-1
100
AcDbLine
10
271.762250767
20
255.472092068
11
271.762250767
21
240.472092068
0
LINE
5
296
100
AcDbEntity
8
Groupe#64
6
ByLayer
62
256
370
-1
100
AcDbLine
10
271.762250767
20
225.472092068
11
271.762250767
21
210.472092068
0
LINE
5
297
100
AcDbEntity
8
Groupe#64
6
ByLayer
62
256
370
-1
100
AcDbLine
10
274.762250767
20
255.472092068
11
271.762250767
21
255.472092068
0
LINE
5
298
100
AcDbEntity
8
Groupe#64
6
ByLayer
62
256
370
-1
100
AcDbLine
10
271.762250767
20
225.472092068
11
274.762250767
21
225.472092068
0
LINE
5
299
100
AcDbEntity
8
Groupe#64
6
ByLayer
62
256
370
-1
100
AcDbLine
10
271.762250767
20
60.4720920679
11
274.762250767
21
60.4720920679
0
LINE
5
29A
100
AcDbEntity
8
Groupe#64
6
ByLayer
62
256
370
-1
100
AcDbLine
10
271.762250767
20
150.472092068
11
274.762250767
21
150.472092068
0
LINE
5
29B
100
AcDbEntity
8
Groupe#64
6
ByLayer
62
256
370
-1
100
AcDbLine
10
271.762250767
20
45.4720920679
11
271.762250767
21
30.4720920679
0
LINE
5
29C
100
AcDbEntity
8
Groupe#64
6
ByLayer
62
256
370
-1
100
AcDbLine
10
271.762250767
20
165.472092068
11
271.762250767
21
150.472092068
0
LINE
5
29D
100
AcDbEntity
8
Groupe#64
6
ByLayer
62
256
370
-1
100
AcDbLine
10
271.762250767
20
105.472092068
11
271.762250767
21
90.4720920679
0
LINE
5
29E
100
AcDbEntity
8
Groupe#64
6
ByLayer
62
256
370
-1
100
AcDbLine
10
271.762250767
20
75.4720920679
11
271.762250767
21
60.4720920679
0
LINE
5
29F
100
AcDbEntity
8
Groupe#64
6
ByLayer
62
256
370
-1
100
AcDbLine
10
271.762250767
20
135.472092068
11
274.762250767
21
135.472092068
0
LINE
5
2A0
100
AcDbEntity
8
Groupe#64
6
ByLayer
62
256
370
-1
100
AcDbLine
10
271.762250767
20
120.472092068
11
274.762250767
21
120.472092068
0
LINE
5
2A1
100
AcDbEntity
8
Groupe#64
6
ByLayer
62
256
370
-1
100
AcDbLine
10
274.762250767
20
105.472092068
11
271.762250767
21
105.472092068
0
LINE
5
2A2
100
AcDbEntity
8
Groupe#64
6
ByLayer
62
256
370
-1
100
AcDbLine
10
271.762250767
20
90.4720920679
11
274.762250767
21
90.4720920679
0
LINE
5
2A3
100
AcDbEntity
8
Groupe#64
6
ByLayer
62
256
370
-1
100
AcDbLine
10
274.762250767
20
165.472092068
11
271.762250767
21
165.472092068
0
LINE
5
2A4
100
AcDbEntity
8
Groupe#64
6
ByLayer
62
256
370
-1
100
AcDbLine
10
271.762250767
20
30.4720920679
11
274.762250767
21
30.4720920679
0
LINE
5
2A5
100
AcDbEntity
8
Groupe#64
6
ByLayer
62
256
370
-1
100
AcDbLine
10
274.762250767
20
45.4720920679
11
271.762250767
21
45.4720920679
0
LINE
5
2A6
100
AcDbEntity
8
Groupe#64
6
ByLayer
62
256
370
-1
100
AcDbLine
10
271.762250767
20
75.4720920679
11
274.762250767
21
75.4720920679
0
LINE
5
2A7
100
AcDbEntity
8
Groupe#64
6
ByLayer
62
256
370
-1
100
AcDbLine
10
229.762250767
20
270.472092068
11
244.762250767
21
270.472092068
0
LINE
5
2A8
100
AcDbEntity
8
Groupe#64
6
ByLayer
62
256
370
-1
100
AcDbLine
10
169.762250767
20
270.472092068
11
169.762250767
21
273.472092068
0
LINE
5
2A9
100
AcDbEntity
8
Groupe#64
6
ByLayer
62
256
370
-1
100
AcDbLine
10
199.762250767
20
273.472092068
11
199.762250767
21
270.472092068
0
LINE
5
2AA
100
AcDbEntity
8
Groupe#64
6
ByLayer
62
256
370
-1
100
AcDbLine
10
214.762250767
20
270.472092068
11
214.762250767
21
273.472092068
0
LINE
5
2AB
100
AcDbEntity
8
Groupe#64
6
ByLayer
62
256
370
-1
100
AcDbLine
10
139.762250767
20
273.472092068
11
139.762250767
21
270.472092068
0
LINE
5
2AC
100
AcDbEntity
8
Groupe#64
6
ByLayer
62
256
370
-1
100
AcDbLine
10
259.762250767
20
273.472092068
11
259.762250767
21
270.472092068
0
LINE
5
2AD
100
AcDbEntity
8
Groupe#64
6
ByLayer
62
256
370
-1
100
AcDbLine
10
229.762250767
20
270.472092068
11
229.762250767
21
273.472092068
0
LINE
5
2AE
100
AcDbEntity
8
Groupe#64
6
ByLayer
62
256
370
-1
100
AcDbLine
10
79.762250767
20
270.472092068
11
94.7622507669
21
270.472092068
0
LINE
5
2AF
100
AcDbEntity
8
Groupe#64
6
ByLayer
62
256
370
-1
100
AcDbLine
10
109.762250767
20
273.472092068
11
94.762250767
21
273.472092068
0
LINE
5
2B0
100
AcDbEntity
8
Groupe#64
6
ByLayer
62
256
370
-1
100
AcDbLine
10
169.762250767
20
270.472092068
11
184.762250767
21
270.472092068
0
LINE
5
2B1
100
AcDbEntity
8
Groupe#64
6
ByLayer
62
256
370
-1
100
AcDbLine
10
124.762250767
20
270.472092068
11
124.762250767
21
273.472092068
0
LINE
5
2B2
100
AcDbEntity
8
Groupe#64
6
ByLayer
62
256
370
-1
100
AcDbLine
10
229.762250767
20
273.472092068
11
214.762250767
21
273.472092068
0
LINE
5
2B3
100
AcDbEntity
8
Groupe#64
6
ByLayer
62
256
370
-1
100
AcDbLine
10
199.762250767
20
273.472092068
11
184.762250767
21
273.472092068
0
LINE
5
2B4
100
AcDbEntity
8
Groupe#64
6
ByLayer
62
256
370
-1
100
AcDbLine
10
139.762250767
20
273.472092068
11
124.762250767
21
273.472092068
0
LINE
5
2B5
100
AcDbEntity
8
Groupe#64
6
ByLayer
62
256
370
-1
100
AcDbLine
10
169.762250767
20
273.472092068
11
154.762250767
21
273.472092068
0
LINE
5
2B6
100
AcDbEntity
8
Groupe#64
6
ByLayer
62
256
370
-1
100
AcDbLine
10
154.762250767
20
270.472092068
11
154.762250767
21
273.472092068
0
LINE
5
2B7
100
AcDbEntity
8
Groupe#64
6
ByLayer
62
256
370
-1
100
AcDbLine
10
259.762250767
20
270.472092068
11
274.762250767
21
270.472092068
0
LINE
5
2B8
100
AcDbEntity
8
Groupe#64
6
ByLayer
62
256
370
-1
100
AcDbLine
10
139.762250767
20
270.472092068
11
154.762250767
21
270.472092068
0
LINE
5
2B9
100
AcDbEntity
8
Groupe#64
6
ByLayer
62
256
370
-1
100
AcDbLine
10
199.762250767
20
270.472092068
11
214.762250767
21
270.472092068
0
LINE
5
2BA
100
AcDbEntity
8
Groupe#64
6
ByLayer
62
256
370
-1
100
AcDbLine
10
109.762250767
20
273.472092068
11
109.762250767
21
270.472092068
0
LINE
5
2BB
100
AcDbEntity
8
Groupe#64
6
ByLayer
62
256
370
-1
100
AcDbLine
10
94.7622507669
20
270.472092068
11
94.762250767
21
273.472092068
0
LINE
5
2BC
100
AcDbEntity
8
Groupe#64
6
ByLayer
62
256
370
-1
100
AcDbLine
10
109.762250767
20
270.472092068
11
124.762250767
21
270.472092068
0
LINE
5
2BD
100
AcDbEntity
8
Groupe#64
6
ByLayer
62
256
370
-1
100
AcDbLine
10
184.762250767
20
270.472092068
11
184.762250767
21
273.472092068
0
LINE
5
2BE
100
AcDbEntity
8
Groupe#64
6
ByLayer
62
256
370
-1
100
AcDbLine
10
79.762250767
20
270.472092068
11
79.7622507669
21
273.472092068
0
LINE
5
2BF
100
AcDbEntity
8
Groupe#64
6
ByLayer
62
256
370
-1
100
AcDbLine
10
244.762250767
20
270.472092068
11
244.762250767
21
273.472092068
0
LINE
5
2C0
100
AcDbEntity
8
Groupe#64
6
ByLayer
62
256
370
-1
100
AcDbLine
10
79.7622507669
20
273.472092068
11
61.762250767
21
273.472092068
0
LINE
5
2C1
100
AcDbEntity
8
Groupe#64
6
ByLayer
62
256
370
-1
100
AcDbLine
10
259.762250767
20
273.472092068
11
244.762250767
21
273.472092068
0
LINE
5
2C2
100
AcDbEntity
8
Groupe#64
6
ByLayer
62
256
370
-1
100
AcDbLine
10
154.762250767
20
17.4720920679
11
154.762250767
21
20.4720920679
0
LINE
5
2C3
100
AcDbEntity
8
Groupe#64
6
ByLayer
62
256
370
-1
100
AcDbLine
10
94.7622507669
20
17.4720920679
11
94.7622507669
21
20.4720920679
0
LINE
5
2C4
100
AcDbEntity
8
Groupe#64
6
ByLayer
62
256
370
-1
100
AcDbLine
10
109.762250767
20
20.4720920679
11
109.762250767
21
17.4720920679
0
LINE
5
2C5
100
AcDbEntity
8
Groupe#64
6
ByLayer
62
256
370
-1
100
AcDbLine
10
109.762250767
20
17.4720920679
11
124.762250767
21
17.4720920679
0
LINE
5
2C6
100
AcDbEntity
8
Groupe#64
6
ByLayer
62
256
370
-1
100
AcDbLine
10
139.762250767
20
17.4720920679
11
154.762250767
21
17.4720920679
0
LINE
5
2C7
100
AcDbEntity
8
Groupe#64
6
ByLayer
62
256
370
-1
100
AcDbLine
10
169.762250767
20
17.4720920679
11
184.762250767
21
17.4720920679
0
LINE
5
2C8
100
AcDbEntity
8
Groupe#64
6
ByLayer
62
256
370
-1
100
AcDbLine
10
199.762250767
20
17.4720920679
11
214.762250767
21
17.4720920679
0
LINE
5
2C9
100
AcDbEntity
8
Groupe#64
6
ByLayer
62
256
370
-1
100
AcDbLine
10
139.762250767
20
17.4720920679
11
139.762250767
21
20.4720920679
0
LINE
5
2CA
100
AcDbEntity
8
Groupe#64
6
ByLayer
62
256
370
-1
100
AcDbLine
10
184.762250767
20
17.4720920679
11
184.762250767
21
20.4720920679
0
LINE
5
2CB
100
AcDbEntity
8
Groupe#64
6
ByLayer
62
256
370
-1
100
AcDbLine
10
259.762250767
20
17.4720920679
11
259.762250767
21
20.4720920679
0
LINE
5
2CC
100
AcDbEntity
8
Groupe#64
6
ByLayer
62
256
370
-1
100
AcDbLine
10
244.762250767
20
17.4720920679
11
244.762250767
21
20.4720920679
0
LINE
5
2CD
100
AcDbEntity
8
Groupe#64
6
ByLayer
62
256
370
-1
100
AcDbLine
10
229.762250767
20
20.4720920679
11
229.762250767
21
17.4720920679
0
LINE
5
2CE
100
AcDbEntity
8
Groupe#64
6
ByLayer
62
256
370
-1
100
AcDbLine
10
199.762250767
20
17.4720920679
11
199.762250767
21
20.4720920679
0
LINE
5
2CF
100
AcDbEntity
8
Groupe#64
6
ByLayer
62
256
370
-1
100
AcDbLine
10
214.762250767
20
17.4720920679
11
214.762250767
21
20.4720920679
0
LINE
5
2D0
100
AcDbEntity
8
Groupe#64
6
ByLayer
62
256
370
-1
100
AcDbLine
10
79.7622507669
20
17.4720920679
11
79.7622507669
21
20.4720920679
0
LINE
5
2D1
100
AcDbEntity
8
Groupe#64
6
ByLayer
62
256
370
-1
100
AcDbLine
10
124.762250767
20
17.4720920679
11
124.762250767
21
20.4720920679
0
LINE
5
2D2
100
AcDbEntity
8
Groupe#64
6
ByLayer
62
256
370
-1
100
AcDbLine
10
169.762250767
20
20.4720920679
11
169.762250767
21
17.4720920679
0
LINE
5
2D3
100
AcDbEntity
8
Groupe#64
6
ByLayer
62
256
370
-1
100
AcDbLine
10
259.762250767
20
17.4720920679
11
274.762250767
21
17.4720920679
0
LINE
5
2D4
100
AcDbEntity
8
Groupe#64
6
ByLayer
62
256
370
-1
100
AcDbLine
10
229.762250767
20
17.4720920679
11
244.762250767
21
17.4720920679
0
LINE
5
2D5
100
AcDbEntity
8
Groupe#64
6
ByLayer
62
256
370
-1
100
AcDbLine
10
79.7622507669
20
20.4720920679
11
61.762250767
21
20.4720920679
0
LINE
5
2D6
100
AcDbEntity
8
Groupe#64
6
ByLayer
62
256
370
-1
100
AcDbLine
10
109.762250767
20
20.4720920679
11
94.7622507669
21
20.4720920679
0
LINE
5
2D7
100
AcDbEntity
8
Groupe#64
6
ByLayer
62
256
370
-1
100
AcDbLine
10
139.762250767
20
20.4720920679
11
124.762250767
21
20.4720920679
0
LINE
5
2D8
100
AcDbEntity
8
Groupe#64
6
ByLayer
62
256
370
-1
100
AcDbLine
10
259.762250767
20
20.4720920679
11
244.762250767
21
20.4720920679
0
LINE
5
2D9
100
AcDbEntity
8
Groupe#64
6
ByLayer
62
256
370
-1
100
AcDbLine
10
169.762250767
20
20.4720920679
11
154.762250767
21
20.4720920679
0
LINE
5
2DA
100
AcDbEntity
8
Groupe#64
6
ByLayer
62
256
370
-1
100
AcDbLine
10
229.762250767
20
20.4720920679
11
214.762250767
21
20.4720920679
0
LINE
5
2DB
100
AcDbEntity
8
Groupe#64
6
ByLayer
62
256
370
-1
100
AcDbLine
10
199.762250767
20
20.4720920679
11
184.762250767
21
20.4720920679
0
LINE
5
2DC
100
AcDbEntity
8
Groupe#64
6
ByLayer
62
256
370
-1
100
AcDbLine
10
79.7622507669
20
17.4720920679
11
94.7622507669
21
17.4720920679
0
LINE
5
2DD
100
AcDbEntity
8
Groupe#64
6
ByLayer
62
256
370
-1
100
AcDbLine
10
31.762250767
20
30.472092068
11
31.762250767
21
45.472092068
0
LINE
5
2DE
100
AcDbEntity
8
Groupe#64
6
ByLayer
62
256
370
-1
100
AcDbLine
10
31.762250767
20
135.472092068
11
28.762250767
21
135.472092068
0
LINE
5
2DF
100
AcDbEntity
8
Groupe#64
6
ByLayer
62
256
370
-1
100
AcDbLine
10
31.762250767
20
120.472092068
11
31.762250767
21
135.472092068
0
LINE
5
2E0
100
AcDbEntity
8
Groupe#64
6
ByLayer
62
256
370
-1
100
AcDbLine
10
31.762250767
20
210.472092068
11
31.762250767
21
225.472092068
0
LINE
5
2E1
100
AcDbEntity
8
Groupe#64
6
ByLayer
62
256
370
-1
100
AcDbLine
10
31.762250767
20
150.472092068
11
28.762250767
21
150.472092068
0
LINE
5
2E2
100
AcDbEntity
8
Groupe#64
6
ByLayer
62
256
370
-1
100
AcDbLine
10
31.762250767
20
165.472092068
11
28.762250767
21
165.472092068
0
LINE
5
2E3
100
AcDbEntity
8
Groupe#64
6
ByLayer
62
256
370
-1
100
AcDbLine
10
28.762250767
20
180.472092068
11
31.762250767
21
180.472092068
0
LINE
5
2E4
100
AcDbEntity
8
Groupe#64
6
ByLayer
62
256
370
-1
100
AcDbLine
10
28.762250767
20
240.472092068
11
31.762250767
21
240.472092068
0
LINE
5
2E5
100
AcDbEntity
8
Groupe#64
6
ByLayer
62
256
370
-1
100
AcDbLine
10
31.762250767
20
210.472092068
11
28.762250767
21
210.472092068
0
LINE
5
2E6
100
AcDbEntity
8
Groupe#64
6
ByLayer
62
256
370
-1
100
AcDbLine
10
28.762250767
20
255.472092068
11
28.762250767
21
270.472092068
0
LINE
5
2E7
100
AcDbEntity
8
Groupe#64
6
ByLayer
62
256
370
-1
100
AcDbLine
10
28.762250767
20
20.4720920679
11
28.762250767
21
30.472092068
0
LINE
5
2E8
100
AcDbEntity
8
Groupe#64
6
ByLayer
62
256
370
-1
100
AcDbLine
10
31.762250767
20
240.472092068
11
31.762250767
21
255.472092068
0
LINE
5
2E9
100
AcDbEntity
8
Groupe#64
6
ByLayer
62
256
370
-1
100
AcDbLine
10
28.762250767
20
195.472092068
11
28.762250767
21
210.472092068
0
LINE
5
2EA
100
AcDbEntity
8
Groupe#64
6
ByLayer
62
256
370
-1
100
AcDbLine
10
28.762250767
20
165.472092068
11
28.762250767
21
180.472092068
0
LINE
5
2EB
100
AcDbEntity
8
Groupe#64
6
ByLayer
62
256
370
-1
100
AcDbLine
10
28.762250767
20
105.472092068
11
28.762250767
21
120.472092068
0
LINE
5
2EC
100
AcDbEntity
8
Groupe#64
6
ByLayer
62
256
370
-1
100
AcDbLine
10
28.762250767
20
273.472092068
11
28.762250767
21
270.472092068
0
LINE
5
2ED
100
AcDbEntity
8
Groupe#64
6
ByLayer
62
256
370
-1
100
AcDbLine
10
31.762250767
20
195.472092068
11
28.762250767
21
195.472092068
0
LINE
5
2EE
100
AcDbEntity
8
Groupe#64
6
ByLayer
62
256
370
-1
100
AcDbLine
10
28.762250767
20
120.472092068
11
31.762250767
21
120.472092068
0
LINE
5
2EF
100
AcDbEntity
8
Groupe#64
6
ByLayer
62
256
370
-1
100
AcDbLine
10
31.762250767
20
255.472092068
11
28.762250767
21
255.472092068
0
LINE
5
2F0
100
AcDbEntity
8
Groupe#64
6
ByLayer
62
256
370
-1
100
AcDbLine
10
31.762250767
20
180.472092068
11
31.762250767
21
195.472092068
0
LINE
5
2F1
100
AcDbEntity
8
Groupe#64
6
ByLayer
62
256
370
-1
100
AcDbLine
10
28.762250767
20
225.472092068
11
28.762250767
21
240.472092068
0
LINE
5
2F2
100
AcDbEntity
8
Groupe#64
6
ByLayer
62
256
370
-1
100
AcDbLine
10
28.762250767
20
90.472092068
11
31.762250767
21
90.472092068
0
LINE
5
2F3
100
AcDbEntity
8
Groupe#64
6
ByLayer
62
256
370
-1
100
AcDbLine
10
31.762250767
20
60.472092068
11
28.762250767
21
60.472092068
0
LINE
5
2F4
100
AcDbEntity
8
Groupe#64
6
ByLayer
62
256
370
-1
100
AcDbLine
10
31.762250767
20
225.472092068
11
28.762250767
21
225.472092068
0
LINE
5
2F5
100
AcDbEntity
8
Groupe#64
6
ByLayer
62
256
370
-1
100
AcDbLine
10
28.762250767
20
75.472092068
11
28.762250767
21
90.472092068
0
LINE
5
2F6
100
AcDbEntity
8
Groupe#64
6
ByLayer
62
256
370
-1
100
AcDbLine
10
28.762250767
20
30.472092068
11
31.762250767
21
30.472092068
0
LINE
5
2F7
100
AcDbEntity
8
Groupe#64
6
ByLayer
62
256
370
-1
100
AcDbLine
10
31.762250767
20
45.472092068
11
28.762250767
21
45.472092068
0
LINE
5
2F8
100
AcDbEntity
8
Groupe#64
6
ByLayer
62
256
370
-1
100
AcDbLine
10
31.762250767
20
105.472092068
11
28.762250767
21
105.472092068
0
LINE
5
2F9
100
AcDbEntity
8
Groupe#64
6
ByLayer
62
256
370
-1
100
AcDbLine
10
31.762250767
20
60.472092068
11
31.762250767
21
75.472092068
0
LINE
5
2FA
100
AcDbEntity
8
Groupe#64
6
ByLayer
62
256
370
-1
100
AcDbLine
10
31.762250767
20
75.472092068
11
28.762250767
21
75.472092068
0
LINE
5
2FB
100
AcDbEntity
8
Groupe#64
6
ByLayer
62
256
370
-1
100
AcDbLine
10
31.762250767
20
90.472092068
11
31.762250767
21
105.472092068
0
LINE
5
2FC
100
AcDbEntity
8
Groupe#64
6
ByLayer
62
256
370
-1
100
AcDbLine
10
28.762250767
20
45.472092068
11
28.762250767
21
60.472092068
0
LINE
5
2FD
100
AcDbEntity
8
Groupe#64
6
ByLayer
62
256
370
-1
100
AcDbLine
10
28.762250767
20
135.472092068
11
28.762250767
21
150.472092068
0
LINE
5
2FE
100
AcDbEntity
8
Groupe#64
6
ByLayer
62
256
370
-1
100
AcDbLine
10
31.762250767
20
150.472092068
11
31.762250767
21
165.472092068
0
LINE
5
2FF
100
AcDbEntity
8
Groupe#64
6
ByLayer
62
256
370
-1
100
AcDbLine
10
61.7622507669
20
17.4720920679
11
61.762250767
21
20.4720920679
0
LINE
5
300
100
AcDbEntity
8
Groupe#64
6
ByLayer
62
256
370
-1
100
AcDbLine
10
46.762250767
20
270.472092068
11
46.762250767
21
273.472092068
0
LINE
5
301
100
AcDbEntity
8
Groupe#64
6
ByLayer
62
256
370
-1
100
AcDbLine
10
46.762250767
20
273.472092068
11
28.762250767
21
273.472092068
0
LINE
5
302
100
AcDbEntity
8
Groupe#64
6
ByLayer
62
256
370
-1
100
AcDbLine
10
46.762250767
20
17.4720920679
11
61.7622507669
21
17.4720920679
0
LINE
5
303
100
AcDbEntity
8
Groupe#64
6
ByLayer
62
256
370
-1
100
AcDbLine
10
61.762250767
20
270.472092068
11
61.762250767
21
273.472092068
0
LINE
5
304
100
AcDbEntity
8
Groupe#64
6
ByLayer
62
256
370
-1
100
AcDbLine
10
46.762250767
20
20.4720920679
11
28.762250767
21
20.4720920679
0
LINE
5
305
100
AcDbEntity
8
Groupe#64
6
ByLayer
62
256
370
-1
100
AcDbLine
10
46.762250767
20
17.4720920679
11
46.762250767
21
20.4720920679
0
LINE
5
306
100
AcDbEntity
8
Groupe#64
6
ByLayer
62
256
370
-1
100
AcDbLine
10
46.762250767
20
270.472092068
11
61.762250767
21
270.472092068
0
LINE
5
307
100
AcDbEntity
8
Groupe#62
6
ByLayer
62
256
370
-1
100
AcDbLine
10
767.762250573
20
45.4720956889
11
767.762250573
21
30.4720956888
0
LINE
5
308
100
AcDbEntity
8
Groupe#62
6
ByLayer
62
256
370
-1
100
AcDbLine
10
770.762250573
20
30.4720956888
11
770.762250573
21
15.4720956888
0
LINE
5
309
100
AcDbEntity
8
Groupe#62
6
ByLayer
62
256
370
-1
100
AcDbLine
10
770.762250573
20
180.472095689
11
770.762250573
21
165.472095689
0
LINE
5
30A
100
AcDbEntity
8
Groupe#62
6
ByLayer
62
256
370
-1
100
AcDbLine
10
770.762250573
20
268.472095689
11
770.762250573
21
255.472095689
0
LINE
5
30B
100
AcDbEntity
8
Groupe#62
6
ByLayer
62
256
370
-1
100
AcDbLine
10
770.762250573
20
90.4720956889
11
770.762250573
21
75.4720956888
0
LINE
5
30C
100
AcDbEntity
8
Groupe#62
6
ByLayer
62
256
370
-1
100
AcDbLine
10
770.762250573
20
60.4720956889
11
770.762250573
21
45.4720956889
0
LINE
5
30D
100
AcDbEntity
8
Groupe#62
6
ByLayer
62
256
370
-1
100
AcDbLine
10
770.762250573
20
120.472095689
11
770.762250573
21
105.472095689
0
LINE
5
30E
100
AcDbEntity
8
Groupe#62
6
ByLayer
62
256
370
-1
100
AcDbLine
10
770.762250573
20
210.472095689
11
770.762250573
21
195.472095689
0
LINE
5
30F
100
AcDbEntity
8
Groupe#62
6
ByLayer
62
256
370
-1
100
AcDbLine
10
770.762250573
20
240.472095689
11
770.762250573
21
225.472095689
0
LINE
5
310
100
AcDbEntity
8
Groupe#62
6
ByLayer
62
256
370
-1
100
AcDbLine
10
770.762250573
20
150.472095689
11
770.762250573
21
135.472095689
0
LINE
5
311
100
AcDbEntity
8
Groupe#62
6
ByLayer
62
256
370
-1
100
AcDbLine
10
767.762250573
20
135.472095689
11
767.762250573
21
120.472095689
0
LINE
5
312
100
AcDbEntity
8
Groupe#62
6
ByLayer
62
256
370
-1
100
AcDbLine
10
767.762250573
20
210.472095689
11
770.762250573
21
210.472095689
0
LINE
5
313
100
AcDbEntity
8
Groupe#62
6
ByLayer
62
256
370
-1
100
AcDbLine
10
767.762250573
20
195.472095689
11
767.762250573
21
180.472095689
0
LINE
5
314
100
AcDbEntity
8
Groupe#62
6
ByLayer
62
256
370
-1
100
AcDbLine
10
767.762250573
20
255.472095689
11
767.762250573
21
240.472095689
0
LINE
5
315
100
AcDbEntity
8
Groupe#62
6
ByLayer
62
256
370
-1
100
AcDbLine
10
767.762250573
20
225.472095689
11
767.762250573
21
210.472095689
0
LINE
5
316
100
AcDbEntity
8
Groupe#62
6
ByLayer
62
256
370
-1
100
AcDbLine
10
770.762250573
20
255.472095689
11
767.762250573
21
255.472095689
0
LINE
5
317
100
AcDbEntity
8
Groupe#62
6
ByLayer
62
256
370
-1
100
AcDbLine
10
767.762250573
20
240.472095689
11
770.762250573
21
240.472095689
0
LINE
5
318
100
AcDbEntity
8
Groupe#62
6
ByLayer
62
256
370
-1
100
AcDbLine
10
767.762250573
20
180.472095689
11
770.762250573
21
180.472095689
0
LINE
5
319
100
AcDbEntity
8
Groupe#62
6
ByLayer
62
256
370
-1
100
AcDbLine
10
770.762250573
20
195.472095689
11
767.762250573
21
195.472095689
0
LINE
5
31A
100
AcDbEntity
8
Groupe#62
6
ByLayer
62
256
370
-1
100
AcDbLine
10
767.762250573
20
225.472095689
11
770.762250573
21
225.472095689
0
LINE
5
31B
100
AcDbEntity
8
Groupe#62
6
ByLayer
62
256
370
-1
100
AcDbLine
10
767.762250573
20
60.4720956889
11
770.762250573
21
60.4720956889
0
LINE
5
31C
100
AcDbEntity
8
Groupe#62
6
ByLayer
62
256
370
-1
100
AcDbLine
10
767.762250573
20
150.472095689
11
770.762250573
21
150.472095689
0
LINE
5
31D
100
AcDbEntity
8
Groupe#62
6
ByLayer
62
256
370
-1
100
AcDbLine
10
767.762250573
20
165.472095689
11
767.762250573
21
150.472095689
0
LINE
5
31E
100
AcDbEntity
8
Groupe#62
6
ByLayer
62
256
370
-1
100
AcDbLine
10
767.762250573
20
105.472095689
11
767.762250573
21
90.4720956888
0
LINE
5
31F
100
AcDbEntity
8
Groupe#62
6
ByLayer
62
256
370
-1
100
AcDbLine
10
767.762250573
20
75.4720956888
11
767.762250573
21
60.4720956889
0
LINE
5
320
100
AcDbEntity
8
Groupe#62
6
ByLayer
62
256
370
-1
100
AcDbLine
10
767.762250573
20
135.472095689
11
770.762250573
21
135.472095689
0
LINE
5
321
100
AcDbEntity
8
Groupe#62
6
ByLayer
62
256
370
-1
100
AcDbLine
10
767.762250573
20
120.472095689
11
770.762250573
21
120.472095689
0
LINE
5
322
100
AcDbEntity
8
Groupe#62
6
ByLayer
62
256
370
-1
100
AcDbLine
10
770.762250573
20
105.472095689
11
767.762250573
21
105.472095689
0
LINE
5
323
100
AcDbEntity
8
Groupe#62
6
ByLayer
62
256
370
-1
100
AcDbLine
10
767.762250573
20
90.4720956888
11
770.762250573
21
90.4720956889
0
LINE
5
324
100
AcDbEntity
8
Groupe#62
6
ByLayer
62
256
370
-1
100
AcDbLine
10
770.762250573
20
165.472095689
11
767.762250573
21
165.472095689
0
LINE
5
325
100
AcDbEntity
8
Groupe#62
6
ByLayer
62
256
370
-1
100
AcDbLine
10
767.762250573
20
30.4720956888
11
770.762250573
21
30.4720956888
0
LINE
5
326
100
AcDbEntity
8
Groupe#62
6
ByLayer
62
256
370
-1
100
AcDbLine
10
770.762250573
20
45.4720956889
11
767.762250573
21
45.4720956889
0
LINE
5
327
100
AcDbEntity
8
Groupe#62
6
ByLayer
62
256
370
-1
100
AcDbLine
10
767.762250573
20
75.4720956888
11
770.762250573
21
75.4720956888
0
LINE
5
328
100
AcDbEntity
8
Groupe#62
6
ByLayer
62
256
370
-1
100
AcDbLine
10
635.762250573
20
12.4720956889
11
620.762250573
21
12.4720956889
0
LINE
5
329
100
AcDbEntity
8
Groupe#62
6
ByLayer
62
256
370
-1
100
AcDbLine
10
665.762250573
20
12.4720956889
11
650.762250573
21
12.4720956889
0
LINE
5
32A
100
AcDbEntity
8
Groupe#62
6
ByLayer
62
256
370
-1
100
AcDbLine
10
680.762250573
20
15.4720956889
11
665.762250573
21
15.4720956889
0
LINE
5
32B
100
AcDbEntity
8
Groupe#62
6
ByLayer
62
256
370
-1
100
AcDbLine
10
620.762250573
20
15.4720956889
11
605.762250573
21
15.4720956889
0
LINE
5
32C
100
AcDbEntity
8
Groupe#62
6
ByLayer
62
256
370
-1
100
AcDbLine
10
590.762250573
20
15.4720956889
11
575.762250573
21
15.4720956889
0
LINE
5
32D
100
AcDbEntity
8
Groupe#62
6
ByLayer
62
256
370
-1
100
AcDbLine
10
650.762250573
20
15.4720956889
11
650.762250573
21
12.4720956889
0
LINE
5
32E
100
AcDbEntity
8
Groupe#62
6
ByLayer
62
256
370
-1
100
AcDbLine
10
635.762250573
20
15.4720956889
11
635.762250573
21
12.4720956889
0
LINE
5
32F
100
AcDbEntity
8
Groupe#62
6
ByLayer
62
256
370
-1
100
AcDbLine
10
590.762250573
20
15.4720956889
11
590.762250573
21
12.4720956889
0
LINE
5
330
100
AcDbEntity
8
Groupe#62
6
ByLayer
62
256
370
-1
100
AcDbLine
10
740.762250573
20
15.4720956889
11
725.762250573
21
15.4720956889
0
LINE
5
331
100
AcDbEntity
8
Groupe#62
6
ByLayer
62
256
370
-1
100
AcDbLine
10
755.762250573
20
15.4720956888
11
755.762250573
21
12.4720956889
0
LINE
5
332
100
AcDbEntity
8
Groupe#62
6
ByLayer
62
256
370
-1
100
AcDbLine
10
695.762250573
20
15.4720956889
11
695.762250573
21
12.4720956889
0
LINE
5
333
100
AcDbEntity
8
Groupe#62
6
ByLayer
62
256
370
-1
100
AcDbLine
10
710.762250573
20
12.4720956889
11
710.762250573
21
15.4720956889
0
LINE
5
334
100
AcDbEntity
8
Groupe#62
6
ByLayer
62
256
370
-1
100
AcDbLine
10
740.762250573
20
15.4720956889
11
740.762250573
21
12.4720956889
0
LINE
5
335
100
AcDbEntity
8
Groupe#62
6
ByLayer
62
256
370
-1
100
AcDbLine
10
575.762250573
20
15.4720956889
11
575.762250573
21
12.4720956889
0
LINE
5
336
100
AcDbEntity
8
Groupe#62
6
ByLayer
62
256
370
-1
100
AcDbLine
10
575.762250573
20
12.4720956889
11
557.762250573
21
12.4720956889
0
LINE
5
337
100
AcDbEntity
8
Groupe#62
6
ByLayer
62
256
370
-1
100
AcDbLine
10
665.762250573
20
15.4720956889
11
665.762250573
21
12.4720956889
0
LINE
5
338
100
AcDbEntity
8
Groupe#62
6
ByLayer
62
256
370
-1
100
AcDbLine
10
695.762250573
20
12.4720956889
11
680.762250573
21
12.4720956889
0
LINE
5
339
100
AcDbEntity
8
Groupe#62
6
ByLayer
62
256
370
-1
100
AcDbLine
10
725.762250573
20
12.4720956889
11
710.762250573
21
12.4720956889
0
LINE
5
33A
100
AcDbEntity
8
Groupe#62
6
ByLayer
62
256
370
-1
100
AcDbLine
10
605.762250573
20
12.4720956889
11
590.762250573
21
12.4720956889
0
LINE
5
33B
100
AcDbEntity
8
Groupe#62
6
ByLayer
62
256
370
-1
100
AcDbLine
10
755.762250573
20
12.4720956889
11
740.762250573
21
12.4720956889
0
LINE
5
33C
100
AcDbEntity
8
Groupe#62
6
ByLayer
62
256
370
-1
100
AcDbLine
10
620.762250573
20
12.4720956889
11
620.762250573
21
15.4720956889
0
LINE
5
33D
100
AcDbEntity
8
Groupe#62
6
ByLayer
62
256
370
-1
100
AcDbLine
10
605.762250573
20
15.4720956889
11
605.762250573
21
12.4720956889
0
LINE
5
33E
100
AcDbEntity
8
Groupe#62
6
ByLayer
62
256
370
-1
100
AcDbLine
10
680.762250573
20
12.4720956889
11
680.762250573
21
15.4720956889
0
LINE
5
33F
100
AcDbEntity
8
Groupe#62
6
ByLayer
62
256
370
-1
100
AcDbLine
10
650.762250573
20
15.4720956889
11
635.762250573
21
15.4720956889
0
LINE
5
340
100
AcDbEntity
8
Groupe#62
6
ByLayer
62
256
370
-1
100
AcDbLine
10
725.762250573
20
15.4720956889
11
725.762250573
21
12.4720956889
0
LINE
5
341
100
AcDbEntity
8
Groupe#62
6
ByLayer
62
256
370
-1
100
AcDbLine
10
710.762250573
20
15.4720956889
11
695.762250573
21
15.4720956889
0
LINE
5
342
100
AcDbEntity
8
Groupe#62
6
ByLayer
62
256
370
-1
100
AcDbLine
10
770.762250573
20
15.4720956888
11
755.762250573
21
15.4720956888
0
LINE
5
343
100
AcDbEntity
8
Groupe#62
6
ByLayer
62
256
370
-1
100
AcDbLine
10
665.762250573
20
268.472095689
11
665.762250573
21
265.472095689
0
LINE
5
344
100
AcDbEntity
8
Groupe#62
6
ByLayer
62
256
370
-1
100
AcDbLine
10
635.762250573
20
268.472095689
11
635.762250573
21
265.472095689
0
LINE
5
345
100
AcDbEntity
8
Groupe#62
6
ByLayer
62
256
370
-1
100
AcDbLine
10
725.762250573
20
268.472095689
11
725.762250573
21
265.472095689
0
LINE
5
346
100
AcDbEntity
8
Groupe#62
6
ByLayer
62
256
370
-1
100
AcDbLine
10
770.762250573
20
268.472095689
11
755.762250573
21
268.472095689
0
LINE
5
347
100
AcDbEntity
8
Groupe#62
6
ByLayer
62
256
370
-1
100
AcDbLine
10
590.762250573
20
268.472095689
11
575.762250573
21
268.472095689
0
LINE
5
348
100
AcDbEntity
8
Groupe#62
6
ByLayer
62
256
370
-1
100
AcDbLine
10
710.762250573
20
268.472095689
11
695.762250573
21
268.472095689
0
LINE
5
349
100
AcDbEntity
8
Groupe#62
6
ByLayer
62
256
370
-1
100
AcDbLine
10
680.762250573
20
268.472095689
11
665.762250573
21
268.472095689
0
LINE
5
34A
100
AcDbEntity
8
Groupe#62
6
ByLayer
62
256
370
-1
100
AcDbLine
10
650.762250573
20
265.472095689
11
650.762250573
21
268.472095689
0
LINE
5
34B
100
AcDbEntity
8
Groupe#62
6
ByLayer
62
256
370
-1
100
AcDbLine
10
740.762250573
20
268.472095689
11
725.762250573
21
268.472095689
0
LINE
5
34C
100
AcDbEntity
8
Groupe#62
6
ByLayer
62
256
370
-1
100
AcDbLine
10
650.762250573
20
268.472095689
11
635.762250573
21
268.472095689
0
LINE
5
34D
100
AcDbEntity
8
Groupe#62
6
ByLayer
62
256
370
-1
100
AcDbLine
10
620.762250573
20
268.472095689
11
605.762250573
21
268.472095689
0
LINE
5
34E
100
AcDbEntity
8
Groupe#62
6
ByLayer
62
256
370
-1
100
AcDbLine
10
680.762250573
20
268.472095689
11
680.762250573
21
265.472095689
0
LINE
5
34F
100
AcDbEntity
8
Groupe#62
6
ByLayer
62
256
370
-1
100
AcDbLine
10
575.762250573
20
268.472095689
11
575.762250573
21
265.472095689
0
LINE
5
350
100
AcDbEntity
8
Groupe#62
6
ByLayer
62
256
370
-1
100
AcDbLine
10
590.762250573
20
265.472095689
11
590.762250573
21
268.472095689
0
LINE
5
351
100
AcDbEntity
8
Groupe#62
6
ByLayer
62
256
370
-1
100
AcDbLine
10
620.762250573
20
268.472095689
11
620.762250573
21
265.472095689
0
LINE
5
352
100
AcDbEntity
8
Groupe#62
6
ByLayer
62
256
370
-1
100
AcDbLine
10
605.762250573
20
268.472095689
11
605.762250573
21
265.472095689
0
LINE
5
353
100
AcDbEntity
8
Groupe#62
6
ByLayer
62
256
370
-1
100
AcDbLine
10
755.762250573
20
268.472095689
11
755.762250573
21
265.472095689
0
LINE
5
354
100
AcDbEntity
8
Groupe#62
6
ByLayer
62
256
370
-1
100
AcDbLine
10
740.762250573
20
268.472095689
11
740.762250573
21
265.472095689
0
LINE
5
355
100
AcDbEntity
8
Groupe#62
6
ByLayer
62
256
370
-1
100
AcDbLine
10
695.762250573
20
268.472095689
11
695.762250573
21
265.472095689
0
LINE
5
356
100
AcDbEntity
8
Groupe#62
6
ByLayer
62
256
370
-1
100
AcDbLine
10
665.762250573
20
265.472095689
11
650.762250573
21
265.472095689
0
LINE
5
357
100
AcDbEntity
8
Groupe#62
6
ByLayer
62
256
370
-1
100
AcDbLine
10
755.762250573
20
265.472095689
11
740.762250573
21
265.472095689
0
LINE
5
358
100
AcDbEntity
8
Groupe#62
6
ByLayer
62
256
370
-1
100
AcDbLine
10
635.762250573
20
265.472095689
11
620.762250573
21
265.472095689
0
LINE
5
359
100
AcDbEntity
8
Groupe#62
6
ByLayer
62
256
370
-1
100
AcDbLine
10
695.762250573
20
265.472095689
11
680.762250573
21
265.472095689
0
LINE
5
35A
100
AcDbEntity
8
Groupe#62
6
ByLayer
62
256
370
-1
100
AcDbLine
10
605.762250573
20
265.472095689
11
590.762250573
21
265.472095689
0
LINE
5
35B
100
AcDbEntity
8
Groupe#62
6
ByLayer
62
256
370
-1
100
AcDbLine
10
575.762250573
20
265.472095689
11
557.762250573
21
265.472095689
0
LINE
5
35C
100
AcDbEntity
8
Groupe#62
6
ByLayer
62
256
370
-1
100
AcDbLine
10
725.762250573
20
265.472095689
11
710.762250573
21
265.472095689
0
LINE
5
35D
100
AcDbEntity
8
Groupe#62
6
ByLayer
62
256
370
-1
100
AcDbLine
10
710.762250573
20
265.472095689
11
710.762250573
21
268.472095689
0
LINE
5
35E
100
AcDbEntity
8
Groupe#62
6
ByLayer
62
256
370
-1
100
AcDbLine
10
524.762250573
20
105.472095689
11
524.762250573
21
120.472095689
0
LINE
5
35F
100
AcDbEntity
8
Groupe#62
6
ByLayer
62
256
370
-1
100
AcDbLine
10
527.762250573
20
45.4720956889
11
524.762250573
21
45.4720956889
0
LINE
5
360
100
AcDbEntity
8
Groupe#62
6
ByLayer
62
256
370
-1
100
AcDbLine
10
524.762250573
20
165.472095689
11
524.762250573
21
180.472095689
0
LINE
5
361
100
AcDbEntity
8
Groupe#62
6
ByLayer
62
256
370
-1
100
AcDbLine
10
527.762250573
20
195.472095689
11
527.762250573
21
180.472095689
0
LINE
5
362
100
AcDbEntity
8
Groupe#62
6
ByLayer
62
256
370
-1
100
AcDbLine
10
527.762250573
20
135.472095689
11
527.762250573
21
120.472095689
0
LINE
5
363
100
AcDbEntity
8
Groupe#62
6
ByLayer
62
256
370
-1
100
AcDbLine
10
524.762250573
20
75.4720956889
11
524.762250573
21
90.4720956889
0
LINE
5
364
100
AcDbEntity
8
Groupe#62
6
ByLayer
62
256
370
-1
100
AcDbLine
10
524.762250573
20
45.4720956889
11
524.762250573
21
60.4720956889
0
LINE
5
365
100
AcDbEntity
8
Groupe#62
6
ByLayer
62
256
370
-1
100
AcDbLine
10
524.762250573
20
255.472095689
11
524.762250573
21
265.472095689
0
LINE
5
366
100
AcDbEntity
8
Groupe#62
6
ByLayer
62
256
370
-1
100
AcDbLine
10
527.762250573
20
225.472095689
11
527.762250573
21
210.472095689
0
LINE
5
367
100
AcDbEntity
8
Groupe#62
6
ByLayer
62
256
370
-1
100
AcDbLine
10
527.762250573
20
165.472095689
11
527.762250573
21
150.472095689
0
LINE
5
368
100
AcDbEntity
8
Groupe#62
6
ByLayer
62
256
370
-1
100
AcDbLine
10
527.762250573
20
195.472095689
11
524.762250573
21
195.472095689
0
LINE
5
369
100
AcDbEntity
8
Groupe#62
6
ByLayer
62
256
370
-1
100
AcDbLine
10
527.762250573
20
105.472095689
11
524.762250573
21
105.472095689
0
LINE
5
36A
100
AcDbEntity
8
Groupe#62
6
ByLayer
62
256
370
-1
100
AcDbLine
10
524.762250573
20
30.4720956889
11
527.762250573
21
30.4720956889
0
LINE
5
36B
100
AcDbEntity
8
Groupe#62
6
ByLayer
62
256
370
-1
100
AcDbLine
10
527.762250573
20
60.4720956889
11
524.762250573
21
60.4720956889
0
LINE
5
36C
100
AcDbEntity
8
Groupe#62
6
ByLayer
62
256
370
-1
100
AcDbLine
10
524.762250573
20
135.472095689
11
524.762250573
21
150.472095689
0
LINE
5
36D
100
AcDbEntity
8
Groupe#62
6
ByLayer
62
256
370
-1
100
AcDbLine
10
527.762250573
20
150.472095689
11
524.762250573
21
150.472095689
0
LINE
5
36E
100
AcDbEntity
8
Groupe#62
6
ByLayer
62
256
370
-1
100
AcDbLine
10
527.762250573
20
165.472095689
11
524.762250573
21
165.472095689
0
LINE
5
36F
100
AcDbEntity
8
Groupe#62
6
ByLayer
62
256
370
-1
100
AcDbLine
10
524.762250573
20
12.4720956889
11
524.762250573
21
30.4720956889
0
LINE
5
370
100
AcDbEntity
8
Groupe#62
6
ByLayer
62
256
370
-1
100
AcDbLine
10
524.762250573
20
225.472095689
11
524.762250573
21
240.472095689
0
LINE
5
371
100
AcDbEntity
8
Groupe#62
6
ByLayer
62
256
370
-1
100
AcDbLine
10
527.762250573
20
75.4720956889
11
524.762250573
21
75.4720956889
0
LINE
5
372
100
AcDbEntity
8
Groupe#62
6
ByLayer
62
256
370
-1
100
AcDbLine
10
524.762250573
20
195.472095689
11
524.762250573
21
210.472095689
0
LINE
5
373
100
AcDbEntity
8
Groupe#62
6
ByLayer
62
256
370
-1
100
AcDbLine
10
527.762250573
20
255.472095689
11
527.762250573
21
240.472095689
0
LINE
5
374
100
AcDbEntity
8
Groupe#62
6
ByLayer
62
256
370
-1
100
AcDbLine
10
527.762250573
20
225.472095689
11
524.762250573
21
225.472095689
0
LINE
5
375
100
AcDbEntity
8
Groupe#62
6
ByLayer
62
256
370
-1
100
AcDbLine
10
527.762250573
20
135.472095689
11
524.762250573
21
135.472095689
0
LINE
5
376
100
AcDbEntity
8
Groupe#62
6
ByLayer
62
256
370
-1
100
AcDbLine
10
524.762250573
20
240.472095689
11
527.762250573
21
240.472095689
0
LINE
5
377
100
AcDbEntity
8
Groupe#62
6
ByLayer
62
256
370
-1
100
AcDbLine
10
527.762250573
20
210.472095689
11
524.762250573
21
210.472095689
0
LINE
5
378
100
AcDbEntity
8
Groupe#62
6
ByLayer
62
256
370
-1
100
AcDbLine
10
524.762250573
20
180.472095689
11
527.762250573
21
180.472095689
0
LINE
5
379
100
AcDbEntity
8
Groupe#62
6
ByLayer
62
256
370
-1
100
AcDbLine
10
524.762250573
20
120.472095689
11
527.762250573
21
120.472095689
0
LINE
5
37A
100
AcDbEntity
8
Groupe#62
6
ByLayer
62
256
370
-1
100
AcDbLine
10
524.762250573
20
90.4720956889
11
527.762250573
21
90.4720956889
0
LINE
5
37B
100
AcDbEntity
8
Groupe#62
6
ByLayer
62
256
370
-1
100
AcDbLine
10
527.762250573
20
75.4720956889
11
527.762250573
21
60.4720956889
0
LINE
5
37C
100
AcDbEntity
8
Groupe#62
6
ByLayer
62
256
370
-1
100
AcDbLine
10
527.762250573
20
45.4720956889
11
527.762250573
21
30.4720956889
0
LINE
5
37D
100
AcDbEntity
8
Groupe#62
6
ByLayer
62
256
370
-1
100
AcDbLine
10
527.762250573
20
105.472095689
11
527.762250573
21
90.4720956889
0
LINE
5
37E
100
AcDbEntity
8
Groupe#62
6
ByLayer
62
256
370
-1
100
AcDbLine
10
527.762250573
20
255.472095689
11
524.762250573
21
255.472095689
0
LINE
5
37F
100
AcDbEntity
8
Groupe#62
6
ByLayer
62
256
370
-1
100
AcDbLine
10
557.762250573
20
15.4720956889
11
542.762250573
21
15.4720956889
0
LINE
5
380
100
AcDbEntity
8
Groupe#62
6
ByLayer
62
256
370
-1
100
AcDbLine
10
542.762250573
20
12.4720956889
11
524.762250573
21
12.4720956889
0
LINE
5
381
100
AcDbEntity
8
Groupe#62
6
ByLayer
62
256
370
-1
100
AcDbLine
10
542.762250573
20
265.472095689
11
524.762250573
21
265.472095689
0
LINE
5
382
100
AcDbEntity
8
Groupe#62
6
ByLayer
62
256
370
-1
100
AcDbLine
10
542.762250573
20
268.472095689
11
542.762250573
21
265.472095689
0
LINE
5
383
100
AcDbEntity
8
Groupe#62
6
ByLayer
62
256
370
-1
100
AcDbLine
10
542.762250573
20
15.4720956889
11
542.762250573
21
12.4720956889
0
LINE
5
384
100
AcDbEntity
8
Groupe#62
6
ByLayer
62
256
370
-1
100
AcDbLine
10
557.762250573
20
15.4720956889
11
557.762250573
21
12.4720956889
0
LINE
5
385
100
AcDbEntity
8
Groupe#62
6
ByLayer
62
256
370
-1
100
AcDbLine
10
557.762250573
20
265.472095689
11
557.762250573
21
268.472095689
0
LINE
5
386
100
AcDbEntity
8
Groupe#62
6
ByLayer
62
256
370
-1
100
AcDbLine
10
557.762250573
20
268.472095689
11
542.762250573
21
268.472095689
0
ENDSEC
0
SECTION
2
OBJECTS
0
DICTIONARY
5
C
330
0
100
AcDbDictionary
281
1
3
ACAD_GROUP
350
D
0
DICTIONARY
5
D
330
C
100
AcDbDictionary
281
1
0
ENDSEC
0
EOF
